<svg xmlns="http://www.w3.org/2000/svg" viewBox="0 0 256 256"><defs><style>.cls-1{fill:#1d1d1b;}.cls-2{fill:#fff;}</style></defs><title>letter-R</title><g id="Layer_2" data-name="Layer 2"><g id="Logo"><rect class="cls-1" width="256" height="256"/><path class="cls-2" d="M47.07,85.08A200.62,200.62,0,0,1,88.43,67.79,154.46,154.46,0,0,1,110.72,63a98,98,0,0,1,23.44-.49,68.91,68.91,0,0,1,12,2.49c1,.35,2,.71,3,1.09a24.75,24.75,0,0,1,2.9,1.27c1,.48,1.94.87,2.86,1.44l2.76,1.67c.92.57,1.76,1.28,2.63,1.93l1.28,1,1.19,1.13c.79.76,1.6,1.49,2.34,2.3a32.73,32.73,0,0,1,2.16,2.58,25.18,25.18,0,0,1,3.54,6.35A20,20,0,0,1,172,93.46a22.2,22.2,0,0,1-1.57,7.39,28.9,28.9,0,0,1-3.36,6.06,49.78,49.78,0,0,1-8.65,9,105.31,105.31,0,0,1-9.45,6.87c-3.2,2.11-6.43,4.06-9.68,6-6.47,3.79-13,7.29-19.35,10.9-3.17,1.81-6.3,3.64-9.3,5.57a62.21,62.21,0,0,0-8.29,6.17,19.87,19.87,0,0,0-3,3.38,8.63,8.63,0,0,0-.86,1.63,5.14,5.14,0,0,0-.3,1.38,4.51,4.51,0,0,0,1.13,2.81,14.67,14.67,0,0,0,3.27,3,45.28,45.28,0,0,0,9.12,4.71c3.3,1.32,6.73,2.46,10.2,3.49,6.94,2.09,14.08,3.74,21.27,5.22s14.43,2.75,21.71,3.89S179.45,183,186.77,184s14.64,1.87,22,2.7a.61.61,0,0,1-.1,1.22q-11.07-.56-22.14-1.33t-22.12-2c-7.37-.77-14.74-1.65-22.09-2.76s-14.7-2.41-22-4.19c-3.65-.91-7.3-1.93-10.92-3.19a52.43,52.43,0,0,1-10.75-5,21.68,21.68,0,0,1-5.05-4.26,15.2,15.2,0,0,1-1.1-1.47c-.33-.56-.67-1.12-1-1.71s-.48-1.3-.67-2-.23-1.4-.3-2.1a12.31,12.31,0,0,1,.56-4.06,16.35,16.35,0,0,1,1.54-3.35,27.59,27.59,0,0,1,4.08-5.07,70.05,70.05,0,0,1,9.17-7.41c3.14-2.18,6.31-4.2,9.48-6.17,6.35-3.93,12.71-7.65,18.84-11.55a120.83,120.83,0,0,0,17.08-12.63,37.83,37.83,0,0,0,6.3-7.28,16.74,16.74,0,0,0,1.79-3.71,10,10,0,0,0,.51-3.44,7.66,7.66,0,0,0-.67-3.08,14.89,14.89,0,0,0-2-3.2c-.43-.55-.92-1.09-1.43-1.63s-1.11-1-1.66-1.54l-.82-.77-.92-.67c-.63-.43-1.19-.94-1.84-1.35A41.7,41.7,0,0,0,142.13,77a56.55,56.55,0,0,0-9.62-2.34c-.82-.18-1.67-.26-2.51-.37s-1.69-.23-2.55-.29c-1.72-.11-3.42-.29-5.17-.31-3.47-.18-7,0-10.54.1a204.36,204.36,0,0,0-21.38,2.45,423.47,423.47,0,0,0-42.82,10,.63.63,0,0,1-.77-.43A.62.62,0,0,1,47.07,85.08Z"/><path class="cls-2" d="M86.11,89.05a80.5,80.5,0,0,1,8.55,23.46,101.46,101.46,0,0,1,1.92,25,100.25,100.25,0,0,1-4.35,24.75A76.51,76.51,0,0,1,81.15,184.7c1.09-8.32,2.42-16.21,3.36-24.11s1.65-15.69,2-23.53.44-15.7.29-23.65S86.24,97.44,86.11,89.05Z"/></g></g></svg>