<svg xmlns="http://www.w3.org/2000/svg" viewBox="0 0 210.51 210.82"><defs><style>.cls-1{fill:#e72260;}.cls-2{fill:#93d3e4;}.cls-3{fill:#161616;}.cls-4{fill:#92d2e4;}.cls-5{fill:#fffdec;}</style></defs><title>RBxo-emblem</title><g id="Layer_2" data-name="Layer 2"><g id="Layer_1-2" data-name="Layer 1"><g id="Full_Logo" data-name="Full Logo"><g id="RBxo-emblem"><g id="Background_Box" data-name="Background Box"><rect class="cls-1" x="16.91" y="17.23" width="193.59" height="193.59"/><rect class="cls-2" width="193.59" height="193.59"/><rect class="cls-3" x="8.78" y="8.14" width="193.59" height="193.59"/></g><g id="RBXO"><path class="cls-4" d="M106.92,127H81.86L83.55,131h23.13l.59-3.33-.35-.74M60.64,88.63H51.5L45,127H30.87L30.16,131H52L58.4,92.7h3.93l-1.69-4.07M68,50H58.49l-4,22.46h7.64L65.4,54.1h9.54a32.42,32.42,0,0,1,7.14.71,7.21,7.21,0,0,0-2.88-2.64Q75,50,68,50m29.8-11.1Q106,45.54,106,57T99.64,75.92q-6.31,7.33-17.08,10l17.8,37.7,1.36-7.69L89.46,90q10.76-2.69,17.09-10a25.24,25.24,0,0,0,2-2.64l3.83-21.68a21.15,21.15,0,0,0-8.31-13.2,28.07,28.07,0,0,0-6.22-3.53"/><path class="cls-4" d="M142.67,86.21H128.15l-3.89,22.73h7.6l3.2-18.67h14.52a24.07,24.07,0,0,1,5,.48,8.94,8.94,0,0,0-2-2q-3.5-2.55-10-2.55m29.33-4c.53.47,1,1,1.54,1.51q4.91,5.32,4.91,13.79a26,26,0,0,1-3,12.78,26.58,26.58,0,0,1-8.4,9.21,39.41,39.41,0,0,1-12.91,5.58A67.33,67.33,0,0,1,137.7,127H107.4l-.13.74-.59,3.33h33.68a30.23,30.23,0,0,1,7.47-.88,33.24,33.24,0,0,1,5.28.41,59,59,0,0,0,7.91-1.42,39.36,39.36,0,0,0,12.9-5.58,26.53,26.53,0,0,0,8.41-9.21,26.11,26.11,0,0,0,3-12.78q0-8.46-4.91-13.78A20.71,20.71,0,0,0,172,82.21M146.84,49.76H134.61l-3.5,20.31h7.6l2.81-16.24h12.23a23.87,23.87,0,0,1,4.88.46A6.69,6.69,0,0,0,156,51.77a18.75,18.75,0,0,0-9.15-2m28.43-11.51a20.36,20.36,0,0,1,3.92,4.59,18,18,0,0,1,2.49,9.75q0,9.69-5.66,15.87a28.88,28.88,0,0,1-14.65,8.47v.27a21.14,21.14,0,0,1,8.51,3.35,28.4,28.4,0,0,0,13.05-8q5.67-6.18,5.66-15.87a17.88,17.88,0,0,0-2.5-9.74,20.1,20.1,0,0,0-6.45-6.46,26.67,26.67,0,0,0-4.37-2.2"/><path class="cls-4" d="M97.35,162.84,85,176.74H78.3l-3.92,4.06H91.91l9.27-10.43-3.83-7.53m3.73-27.26H96.23l4.2,8.28,3.07-3.5-2.42-4.78m29.83,0h-6.57l-16.91,17.73,13.08,23.43H109.26l2.07,4.06h16.08l-13.08-23.43,6.94-7.27a28.1,28.1,0,0,1,.87-2.69,26.35,26.35,0,0,1,5.49-8.91,26,26,0,0,1,3.28-2.92"/><path class="cls-4" d="M147.2,142.05a11.6,11.6,0,0,0-5.27,1.18,12,12,0,0,0-4,3.18A14.83,14.83,0,0,0,135.4,151a16.72,16.72,0,0,0-.91,5.54,9.59,9.59,0,0,0,2.45,6.76,8.51,8.51,0,0,0,5.83,2.64,10.08,10.08,0,0,1-1.37-5.34,16.81,16.81,0,0,1,.91-5.54,14.74,14.74,0,0,1,2.54-4.63,12.16,12.16,0,0,1,4-3.18,11.72,11.72,0,0,1,5.27-1.17,11.47,11.47,0,0,1,1.19,0,8.89,8.89,0,0,0-1.06-1.4,9.06,9.06,0,0,0-7-2.72M165,135.9A18.39,18.39,0,0,1,171.09,150a30.37,30.37,0,0,1-1.91,10.81,26.06,26.06,0,0,1-5.54,8.9,26.61,26.61,0,0,1-8.76,6A29.14,29.14,0,0,1,143.2,178a29.84,29.84,0,0,1-9.12-1.36l-.79-.27.44.38a20.88,20.88,0,0,0,7.25,4,29.64,29.64,0,0,0,9.13,1.36,29.17,29.17,0,0,0,11.68-2.22,26.42,26.42,0,0,0,8.75-6,26,26,0,0,0,5.54-8.9A30.33,30.33,0,0,0,178,154.1a18.47,18.47,0,0,0-6.63-14.57A21.12,21.12,0,0,0,165,135.9"/><path class="cls-1" d="M67.54,92.7H62.33L76.65,127h5.21L67.54,92.7M82.08,54.81a10.21,10.21,0,0,1,1.29,5.38c0,4.28-1.67,7.4-5,9.37s-8,2.94-14,2.94H62.09l-.73,4.06h10q9,0,14-2.94t5-9.36q0-5.88-4.17-8a17.4,17.4,0,0,0-4-1.43M72.61,31.74H40.06L23.25,127h7.62L47,35.81H79.52q10.77,0,18.31,3.13l-.68-.54q-8.81-6.64-24.54-6.66"/><path class="cls-5" d="M54.45,72.5l4-22.46H68q7,0,11.17,2.13a7.21,7.21,0,0,1,2.88,2.64,17.4,17.4,0,0,1,4,1.43q4.17,2.13,4.17,8,0,6.42-5,9.36t-14,2.94h-10l.73-4.06H54.45M79.52,35.81H47L30.87,127H45L51.5,88.63h9.14l1.69,4.07h5.21L81.86,127H99.77l.59-3.32-17.8-37.7q10.75-2.68,17.08-10T106,57q0-11.51-8.13-18.09-7.53-3.13-18.31-3.13"/><path class="cls-1" d="M154.61,90.75a8.68,8.68,0,0,1,1.52,5.15,11.74,11.74,0,0,1-1.55,6.18,11.38,11.38,0,0,1-4.17,4,20.46,20.46,0,0,1-6,2.15,36.26,36.26,0,0,1-7.13.67h-5.44l-.7,4.07h13.05a36.15,36.15,0,0,0,7.12-.68,20.14,20.14,0,0,0,6-2.15,11.3,11.3,0,0,0,4.17-4A11.71,11.71,0,0,0,163,100a8.34,8.34,0,0,0-3.5-7.13,12.69,12.69,0,0,0-4.92-2.08m15.27-10.2c-.53.16-1.06.31-1.6.45v.27a22.51,22.51,0,0,1,3.72.94,22.08,22.08,0,0,0-2.12-1.66M158.63,54.29a8.21,8.21,0,0,1,1,4.16,10.34,10.34,0,0,1-1.42,5.61,11,11,0,0,1-3.55,3.61,14.37,14.37,0,0,1-4.78,1.87,24.9,24.9,0,0,1-5,.53h-6.12l-.7,4.07h13.73a25.54,25.54,0,0,0,5-.53,14.44,14.44,0,0,0,4.79-1.88,11,11,0,0,0,3.55-3.6,10.49,10.49,0,0,0,1.41-5.62c0-3.11-1.2-5.34-3.62-6.67a15.32,15.32,0,0,0-4.27-1.55m-4.79-22.55H116.58l-4.22,23.93a27.72,27.72,0,0,1,.5,5.42q0,9.59-4.33,16.26L101.72,116l5.2,11h.48l16.09-91.15h37.25a46.71,46.71,0,0,1,9.95,1.08,29.71,29.71,0,0,1,4.58,1.36,21.59,21.59,0,0,0-2.54-1.87,28,28,0,0,0-8.94-3.56,47.51,47.51,0,0,0-9.95-1.08"/><path class="cls-5" d="M101.72,116l-1.36,7.69L99.77,127h7.15l-5.2-11m10.64-60.28-3.83,21.68q4.34-6.67,4.33-16.26a27.72,27.72,0,0,0-.5-5.42"/><path class="cls-5" d="M124.26,108.94l3.89-22.73h14.52q6.47,0,10,2.55a8.94,8.94,0,0,1,2,2,12.69,12.69,0,0,1,4.92,2.08A8.34,8.34,0,0,1,163,100a11.71,11.71,0,0,1-1.54,6.18,11.3,11.3,0,0,1-4.17,4,20.14,20.14,0,0,1-6,2.15,36.15,36.15,0,0,1-7.12.68H131.16l.7-4.07h-7.6m6.85-38.87,3.5-20.31h12.23a18.75,18.75,0,0,1,9.15,2,6.69,6.69,0,0,1,2.64,2.52,15.32,15.32,0,0,1,4.27,1.55c2.42,1.33,3.62,3.56,3.62,6.67a10.49,10.49,0,0,1-1.41,5.62,11,11,0,0,1-3.55,3.6,14.44,14.44,0,0,1-4.79,1.88,25.54,25.54,0,0,1-5,.53H138l.7-4.07h-7.6m29.63-34.26H123.49L107.4,127h30.3a67.33,67.33,0,0,0,16.41-1.88A39.41,39.41,0,0,0,167,119.5a26.58,26.58,0,0,0,8.4-9.21,26,26,0,0,0,3-12.78q0-8.48-4.91-13.79c-.5-.53-1-1-1.54-1.51a22.51,22.51,0,0,0-3.72-.94V81c.54-.14,1.07-.29,1.6-.45a21.14,21.14,0,0,0-8.51-3.35v-.27A28.88,28.88,0,0,0,176,68.46q5.67-6.18,5.66-15.87a18,18,0,0,0-2.49-9.75,20.36,20.36,0,0,0-3.92-4.59,29.71,29.71,0,0,0-4.58-1.36,46.71,46.71,0,0,0-9.95-1.08"/><path class="cls-1" d="M104.25,166.91l-3.07,3.46,3.25,6.37h4.83l-5-9.83m-10.08-35.4H78.28L90.35,153l-22.88,23.7H78.3l19-19.64L85.19,135.58h11l-2.06-4.07m34.05,0h-17l-7.75,8.85,3.84,7.57,10.81-12.35h6.19l3.88-4.07"/><polyline class="cls-5" points="124.34 135.58 118.15 135.58 107.34 147.93 103.5 140.36 100.43 143.86 96.23 135.58 85.19 135.58 97.26 157.1 78.3 176.74 85 176.74 97.35 162.84 101.18 170.37 104.25 166.91 109.26 176.74 120.51 176.74 107.43 153.31 124.34 135.58"/><path class="cls-1" d="M155.3,146.17a10,10,0,0,1,1.44,5.41,16.72,16.72,0,0,1-.91,5.54,14.49,14.49,0,0,1-2.59,4.64,11.82,11.82,0,0,1-9.3,4.26c-.4,0-.79,0-1.17,0a9.76,9.76,0,0,0,1.08,1.43,9,9,0,0,0,7,2.68,11.87,11.87,0,0,0,9.31-4.27,14.74,14.74,0,0,0,2.59-4.63,17,17,0,0,0,.91-5.54,9.62,9.62,0,0,0-2.51-6.81,8.51,8.51,0,0,0-5.84-2.67m-2.19-15.61a75.18,75.18,0,0,1-8.51.47h-4.24a24.15,24.15,0,0,0-4.05,1.39,27.62,27.62,0,0,0-5.4,3.16h4.22L121.27,150.1a30.84,30.84,0,0,0-1,8,18.56,18.56,0,0,0,6.59,14.58,20.59,20.59,0,0,0,6.47,3.68,18.58,18.58,0,0,1-6.15-14.19,30.29,30.29,0,0,1,1.9-10.72,26.33,26.33,0,0,1,5.5-8.9,26.74,26.74,0,0,1,8.68-6.09,28,28,0,0,1,11.52-2.27,30.28,30.28,0,0,1,9.27,1.37l1,.32-.5-.44a21.58,21.58,0,0,0-7.36-4,28.32,28.32,0,0,0-4-.95"/><path class="cls-5" d="M147.83,130.15a30.23,30.23,0,0,0-7.47.88h4.24a75.18,75.18,0,0,0,8.51-.47,33.24,33.24,0,0,0-5.28-.41"/><path class="cls-5" d="M135.13,135.58h-4.22a26,26,0,0,0-3.28,2.92,26.35,26.35,0,0,0-5.49,8.91,28.1,28.1,0,0,0-.87,2.69l13.86-14.52"/><path class="cls-5" d="M142.77,166a8.51,8.51,0,0,1-5.83-2.64,9.59,9.59,0,0,1-2.45-6.76,16.72,16.72,0,0,1,.91-5.54,14.83,14.83,0,0,1,2.54-4.63,12,12,0,0,1,4-3.18,11.6,11.6,0,0,1,5.27-1.18,9.06,9.06,0,0,1,7,2.72,8.89,8.89,0,0,1,1.06,1.4,8.51,8.51,0,0,1,5.84,2.67,9.62,9.62,0,0,1,2.51,6.81,17,17,0,0,1-.91,5.54,14.74,14.74,0,0,1-2.59,4.63,11.87,11.87,0,0,1-9.31,4.27,9,9,0,0,1-7-2.68,9.76,9.76,0,0,1-1.08-1.43m12-31.77a28,28,0,0,0-11.52,2.27,26.74,26.74,0,0,0-8.68,6.09,26.33,26.33,0,0,0-5.5,8.9,30.29,30.29,0,0,0-1.9,10.72,18.58,18.58,0,0,0,6.15,14.19l.79.27A29.84,29.84,0,0,0,143.2,178a29.14,29.14,0,0,0,11.68-2.22,26.61,26.61,0,0,0,8.76-6,26.06,26.06,0,0,0,5.54-8.9A30.37,30.37,0,0,0,171.09,150,18.39,18.39,0,0,0,165,135.9l-1-.32a30.28,30.28,0,0,0-9.27-1.37"/></g></g></g></g></g></svg>