<svg xmlns="http://www.w3.org/2000/svg" viewBox="0 0 175.12 63.72"><defs><style>.cls-1{fill:#e72260;}.cls-1,.cls-2{opacity:0.4;}.cls-2{fill:#92d2e4;}.cls-3{fill:#bf7d8f;opacity:0.64;}.cls-4{fill:#020000;}.cls-5{fill:#000100;}</style></defs><title>RBxo-text</title><g id="Layer_2" data-name="Layer 2"><g id="Layer_1-2" data-name="Layer 1"><g id="Full_Logo" data-name="Full Logo"><path class="cls-1" d="M27.64,23.27a.88.88,0,0,0-.09.2,3.63,3.63,0,0,0-.2,1.22A2,2,0,0,0,27.74,26a9.19,9.19,0,0,1-.07-1.08,7.58,7.58,0,0,1,.12-1.39,1.43,1.43,0,0,1-.15-.22M35.14,22a5.24,5.24,0,0,0-.66.28,4.16,4.16,0,0,1-1,1.07l-.09.07,0,0a3.63,3.63,0,0,0-.2,1.22,2.1,2.1,0,0,0,.33,1.19,4,4,0,0,0,1.66-3.46V22m105.91-3a7.82,7.82,0,0,1-.35,2,4.76,4.76,0,0,1-1.15,1.9,4,4,0,0,1-1.23.77,5.54,5.54,0,0,0,.76,1.48,4.4,4.4,0,0,0,.35.39l.12-.1a4.76,4.76,0,0,0,1.15-1.9,9.18,9.18,0,0,0,.37-2.87V20c0-.35,0-.68,0-1M88.76,19c0,.4-.05.82-.05,1.26a11,11,0,0,0,.48,3.48,16.27,16.27,0,0,1-.35-3.48c0-.19,0-.37,0-.55s-.06-.46-.09-.71m65.63,0c0,.4,0,.82,0,1.26a11,11,0,0,0,.48,3.48,15.63,15.63,0,0,1-.36-3.48c0-.19,0-.37,0-.55s-.06-.46-.08-.71M98,19a7.26,7.26,0,0,1-1.1,3.54,3.65,3.65,0,0,1-1.81,1.41,5.4,5.4,0,0,0,.59,1.15,3.63,3.63,0,0,0,.6.69,3.55,3.55,0,0,0,.62-.71A8.46,8.46,0,0,0,98,20.23c0-.45,0-.87-.06-1.27m65.63,0a7.37,7.37,0,0,1-1.1,3.54,3.69,3.69,0,0,1-1.81,1.41,5.38,5.38,0,0,0,.58,1.15,4,4,0,0,0,.6.69,3.6,3.6,0,0,0,.63-.71,8.46,8.46,0,0,0,1.15-4.81c0-.45,0-.87-.05-1.27m-31.52,0c0,.38-.05.78-.05,1.2a13.41,13.41,0,0,0,.25,2.74,20.86,20.86,0,0,1-.16-2.7c0-.25,0-.5,0-.74s0-.33,0-.5m36.81-2.37a14.6,14.6,0,0,1,.39,2.38c0-.23,0-.46,0-.7a8.58,8.58,0,0,0-.43-1.68m-65.63,0a12.72,12.72,0,0,1,.39,2.38c0-.23,0-.46,0-.69a7.87,7.87,0,0,0-.43-1.69m21-1.19a13.43,13.43,0,0,1,.08,1.59V15.57a1.42,1.42,0,0,0-.08-.18M35,15.27l-1,.05a3,3,0,0,0-.19.64L29.9,15.6c-.4.05-.8.1-1.2.17l-.71.14V16h-.17a11.61,11.61,0,0,0-2.53.88,6.32,6.32,0,0,0-2.47,2.07l-.19.29.75,1.57a6.39,6.39,0,0,1,1.91-1.39,12.33,12.33,0,0,1,3.42-1.06,30.77,30.77,0,0,1,3.86-.39l2.62-.12v-1A4.48,4.48,0,0,0,35,15.27m46.06,0c0,.5.07,1,.07,1.58V15.41c0-.05,0-.11-.07-.17m-41-1a12,12,0,0,1,.43,3.34V14.66a2,2,0,0,0-.43-.43M5.8,12.6h0v2.54h0V12.6m9-2.61-.06.22A2.81,2.81,0,0,1,14,11.49a3.59,3.59,0,0,1-1.43.82,6.34,6.34,0,0,1-1,.22v2.54a6.34,6.34,0,0,0,1-.22A3.49,3.49,0,0,0,14,14a2.73,2.73,0,0,0,.72-1.27,6.41,6.41,0,0,0,.2-1.64A4.58,4.58,0,0,0,14.77,10M48.6,7.51H43.12v3.15h0v-.61H48.6V7.51m8.22,0H51.5v2.54h5.32V7.51m54.35,0h-5.32v4h0V10.05h5.32V7.51M31.89,6.89a11.88,11.88,0,0,0-5.72,1.2,10.26,10.26,0,0,1,.43,2.32,12.59,12.59,0,0,1,5.29-1,14.43,14.43,0,0,1,2.84.25,15.87,15.87,0,0,1,3-.25q.62,0,1.17,0l-.33-.38a6.45,6.45,0,0,0-2.65-1.63,12.5,12.5,0,0,0-4-.56m30.8,0a6.67,6.67,0,0,0-3.21.82,7.45,7.45,0,0,0-2.66,2.54v2.54a8,8,0,0,1,.48-.66V10.05h2.57a6.58,6.58,0,0,1,2.82-.62,7.31,7.31,0,0,1,3.07.58,6.71,6.71,0,0,1,2.14-.56,4.63,4.63,0,0,0-1.57-1.66,6.66,6.66,0,0,0-3.64-.9m12,0a7.25,7.25,0,0,0-3.44.82,8.08,8.08,0,0,0-2.18,1.73,6.73,6.73,0,0,1,2.55.63,7.31,7.31,0,0,1,3.07-.64,7.78,7.78,0,0,1,3,.52,7,7,0,0,1,2.34-.51,4.92,4.92,0,0,0-.58-.81,6.12,6.12,0,0,0-4.76-1.74m18.63,0a11.85,11.85,0,0,0-4.27.74,9.23,9.23,0,0,0-3.26,2.13A8.21,8.21,0,0,0,85,10.83c.11.11.23.22.34.34a4.55,4.55,0,0,1,.68,1,9,9,0,0,1,3.12-2,11.63,11.63,0,0,1,4.27-.74,13,13,0,0,1,2.92.31,12.65,12.65,0,0,1,2.88-.31,12.4,12.4,0,0,1,1.51.08,9,9,0,0,0-3-1.88,11.9,11.9,0,0,0-4.3-.74m24.14,0a7.69,7.69,0,0,0-3.46.82,7.52,7.52,0,0,0-2.88,2.62v2.54c.16-.23.32-.44.48-.65V10.05h2.83a7.61,7.61,0,0,1,3-.62,9.13,9.13,0,0,1,3.12.48,7.72,7.72,0,0,1,2.6-.48,4.55,4.55,0,0,0-.55-.72c-1.12-1.22-2.84-1.82-5.17-1.82m17.65,0a8.52,8.52,0,0,0-3.71.78A8.15,8.15,0,0,0,128,10.81a4.78,4.78,0,0,1,.46.44A5.21,5.21,0,0,1,129,12a7.72,7.72,0,0,1,2.41-1.77,8.52,8.52,0,0,1,3.71-.78A9,9,0,0,1,138,9.9a8.89,8.89,0,0,1,2.94-.47,6.9,6.9,0,0,0-2.73-2,9,9,0,0,0-3-.54m23.83,0a11.83,11.83,0,0,0-4.26.74A9.38,9.38,0,0,0,152.31,9v2.54a9.09,9.09,0,0,1,2.42-1.37A11.62,11.62,0,0,1,159,9.43a12.88,12.88,0,0,1,2.92.31,13.84,13.84,0,0,1,4.4-.23,9,9,0,0,0-3-1.88A12,12,0,0,0,159,6.89M9.9,0H0V2.54H15.7a21.94,21.94,0,0,1,2.93.18,8.89,8.89,0,0,0-3.31-2A16.29,16.29,0,0,0,9.9,0M48.68,0H43.05V2.54h5.63V0m97.83,0H141V9.43h0V2.54h5.48V0"/><path class="cls-1" d="M5.8,56H5.63v2.54H5.8V56m89.3-.09-.09.2a3.63,3.63,0,0,0-.19,1.22,2,2,0,0,0,.39,1.27,7.44,7.44,0,0,1-.07-1.08,8.7,8.7,0,0,1,.11-1.39l-.15-.22m7.5-1.26a6,6,0,0,0-.66.28,4.16,4.16,0,0,1-1,1.07l-.09.07,0,0a3.63,3.63,0,0,0-.19,1.22,2.1,2.1,0,0,0,.33,1.19,4.23,4.23,0,0,0,1.18-1.37A4.17,4.17,0,0,0,102.6,55v-.41m-41.15-.41h-.37a6.3,6.3,0,0,0,1.08,3.63,13.59,13.59,0,0,1-.71-3.63m13.56,0H69.69a3.13,3.13,0,0,1-2.34,2.52,4.51,4.51,0,0,0,.79,1.33,3.32,3.32,0,0,0,.54.52,3.37,3.37,0,0,0,1-1.87h4.6a10.16,10.16,0,0,0,.72-2.5M50.6,53.82v2.54a3.43,3.43,0,0,0,.42,1.9,14.13,14.13,0,0,1-.1-1.78v-.93a3.73,3.73,0,0,1-.32-1.73m-35.21-.47c0,.1-.06.21-.09.31a3,3,0,0,1-.82,1.24,3.85,3.85,0,0,1-1.55.8,7.36,7.36,0,0,1-1.5.24v2.54a7.36,7.36,0,0,0,1.5-.24,4,4,0,0,0,1.55-.8,3,3,0,0,0,.82-1.24,4.94,4.94,0,0,0,.24-1.6,4.81,4.81,0,0,0-.15-1.25m12.78-.47v2.54a5.65,5.65,0,0,0,.41,2.41,14.61,14.61,0,0,1-.08-1.67V55.1a6,6,0,0,1-.33-2.22M21,52.68a1.42,1.42,0,0,1,0,.2c0,.18.07.36.1.54l0-.31a3.2,3.2,0,0,0-.17-.43m41.29-4.61h-.32a4.27,4.27,0,0,0-.4.8,5.39,5.39,0,0,0-.36,1.74h.41a11.46,11.46,0,0,1,.58-2.29l.09-.25m7.2,0H67.72a5,5,0,0,0-.41.8A5.66,5.66,0,0,0,67,50.61h3a5.52,5.52,0,0,0-.53-2.54m33-.19-1,0a3.7,3.7,0,0,0-.19.64l-3.88-.36-1.19.17-.72.14v0h-.16a11.7,11.7,0,0,0-2.54.88,6.29,6.29,0,0,0-2.46,2.07A5.84,5.84,0,0,0,89.34,55a8.39,8.39,0,0,0,.09,1.26,5.12,5.12,0,0,1,.85-2.17A6.29,6.29,0,0,1,92.74,52a12.3,12.3,0,0,1,3.43-1.06,30.61,30.61,0,0,1,3.85-.39l2.62-.12v-1a4.25,4.25,0,0,0-.23-1.51M57,46.93H56.4v1.26A12.05,12.05,0,0,1,57,46.93m17.3,0a11.35,11.35,0,0,1,.92,3.71h.06V49.48A14.91,14.91,0,0,0,75.18,48a3.67,3.67,0,0,0-.45-.64,2.61,2.61,0,0,0-.46-.42m33.18-.06a12,12,0,0,1,.44,3.34V47.64c0-.13,0-.25,0-.37a1.76,1.76,0,0,0-.43-.43M5.8,43.68H5.63v2.54H5.8V43.68m8.77-2a2.71,2.71,0,0,1-.68,1.15,3.8,3.8,0,0,1-2.46.84V46.2a3.8,3.8,0,0,0,2.46-.84,3.29,3.29,0,0,0,.86-2.46,3.88,3.88,0,0,0-.18-1.23m13.6-1.55H25.9a10.32,10.32,0,0,1,.33,2.54h1.94V40.12m12.84,0H35.53V52.41a3.68,3.68,0,0,1-.37,1.66,4.2,4.2,0,0,1-1,1.32l-.19.16a5.84,5.84,0,0,0,.37,2.21,4,4,0,0,0,.82-1.15A3.71,3.71,0,0,0,35.53,55V42.66H41V40.12m9.91,0H50.6v2.54h.32V40.12m31.77,0H77.36v3.44h0v-.9h5.33V40.12m5.51-.35a6.26,6.26,0,0,0-3,.8A6.9,6.9,0,0,0,82.69,43v2.54c.15-.24.31-.47.47-.68V42.66h3a6.22,6.22,0,0,1,2-.35,11.46,11.46,0,0,1,1.3.06l.56.08L90.4,40c-.27,0-.57-.1-.9-.14a11.46,11.46,0,0,0-1.3-.06M65.82,39.5a11.52,11.52,0,0,0-4.15.72,8.76,8.76,0,0,0-3.23,2.13l-.28.31h2.93V43l.58-.25A11.52,11.52,0,0,1,65.82,42a12.44,12.44,0,0,1,3,.32A11.77,11.77,0,0,1,71.62,42c.4,0,.78,0,1.16,0q-2.37-2.58-7-2.58m33.54,0a11.3,11.3,0,0,0-6.11,1.43,5.55,5.55,0,0,0-1.9,2,6.11,6.11,0,0,1,2.65-.6,11.27,11.27,0,0,1,1.29.06l.47.06a15,15,0,0,1,3.6-.39,14.32,14.32,0,0,1,2.83.25,16,16,0,0,1,3-.25c.4,0,.79,0,1.16,0a3.9,3.9,0,0,0-.33-.38,6.48,6.48,0,0,0-2.64-1.63,12.58,12.58,0,0,0-4-.56M50.6,34.68H45.12v5.44H41.91v2.54h3.21V37.22H50.6V34.68M10.06,32.61H0v2.54H15.86a25,25,0,0,1,3,.17,6.53,6.53,0,0,0-.53-.52,8.29,8.29,0,0,0-3.19-1.6,18.6,18.6,0,0,0-5.1-.59"/><path class="cls-2" d="M141.19,27.78a7.58,7.58,0,0,1-3.61,2.87,9.75,9.75,0,0,0,3.07.46,7.71,7.71,0,0,0,3.15-.63h-2.61v-2.7m-4.74-13.93a4.27,4.27,0,0,0-1.7.35,3.87,3.87,0,0,0-1.41,1.1,5.55,5.55,0,0,0-1,1.95.3.3,0,0,1,0,.1,15.51,15.51,0,0,0-.23,2.1,9.58,9.58,0,0,0,.24,1.23,5.71,5.71,0,0,0,.91,2,3.44,3.44,0,0,0,1.37,1.09,4.18,4.18,0,0,0,1.69.34,5.18,5.18,0,0,0,2-.37c0-.16-.11-.34-.16-.52a12,12,0,0,1-.33-3.07,10.71,10.71,0,0,1,.35-2.9,5.55,5.55,0,0,1,1-1.95,4.15,4.15,0,0,1,.4-.43,3.2,3.2,0,0,0-1.42-.81,6.88,6.88,0,0,0-1.67-.21M141,9.43h0l.1.12V9.43H141m11.35-6.89h-5.48v9.55a3.73,3.73,0,0,0-.32-.36v5.08l0,.09a12,12,0,0,1,.33,3.13v.71a9.32,9.32,0,0,1-.36,2.83V28.4c.17-.2.32-.4.48-.62v2.7h5.32V29.14a8.48,8.48,0,0,1-.95-.85q-2.7-2.82-2.7-8.06c0-.42,0-.83.05-1.23s-.05-.86-.05-1.31a13.11,13.11,0,0,1,.73-4.52,9.3,9.3,0,0,1,2.07-3.41,8.71,8.71,0,0,1,.85-.76V2.54"/><path class="cls-3" d="M132.13,19.45c0,.24,0,.49,0,.74a20.86,20.86,0,0,0,.16,2.7l.09.33a5.71,5.71,0,0,0,.91,2,3.53,3.53,0,0,0,1.37,1.09,4.35,4.35,0,0,0,1.69.33,4.63,4.63,0,0,0,3.09-1,4.4,4.4,0,0,1-.35-.39,5.54,5.54,0,0,1-.76-1.48,5.18,5.18,0,0,1-2,.37,4.18,4.18,0,0,1-1.69-.34,3.44,3.44,0,0,1-1.37-1.09,5.71,5.71,0,0,1-.91-2,9.58,9.58,0,0,1-.24-1.23m8.8-10A8.89,8.89,0,0,0,138,9.9l.21.07A6.85,6.85,0,0,1,141,12.09V9.43h0v.12l-.1-.12M152.31,9a8.71,8.71,0,0,0-.85.76,9.3,9.3,0,0,0-2.07,3.41,13.11,13.11,0,0,0-.73,4.52c0,.45,0,.89.05,1.31a12.47,12.47,0,0,1,.68-3.29,9.3,9.3,0,0,1,2.07-3.41,8.71,8.71,0,0,1,.85-.76V9"/><path class="cls-2" d="M11.23,20H5.8V30.48h5.75V20.71L11.23,20M9.78,7.35h-4V12.6h4.49a9.75,9.75,0,0,0,1.26-.07v-5a10.32,10.32,0,0,0-1.77-.13m8.85-4.63,0,0A6.75,6.75,0,0,1,20.35,5.5a10,10,0,0,1,.47,2.95c0,.49,0,1-.07,1.4A10.9,10.9,0,0,1,20.82,11a9.62,9.62,0,0,1-1,4.54,7.09,7.09,0,0,1-2.35,2.52l4.74,9.89H21l1.22,2.54h3.33a5.82,5.82,0,0,1-1.67-.94,5.48,5.48,0,0,1-1.47-1.9,6.47,6.47,0,0,1-.55-2.76,8.49,8.49,0,0,1,.1-1.27,8.39,8.39,0,0,1-.1-1.27,6.12,6.12,0,0,1,.75-3.15l-.27-.57a7.91,7.91,0,0,0,3.18-2.89L23,15.49A8.09,8.09,0,0,1,23.78,13L23,13a6.4,6.4,0,0,1,2.82-4.63l.38-.23,0-.05A6.78,6.78,0,0,0,24.46,5.3a8.71,8.71,0,0,0-3.34-2,12.67,12.67,0,0,0-2.49-.58m35.85-.18H48.84V7.47h5.64V2.54"/><path class="cls-3" d="M22.62,19.19a6.12,6.12,0,0,0-.75,3.15,8.39,8.39,0,0,0,.1,1.27,5.25,5.25,0,0,1,.84-2.17,7.5,7.5,0,0,1,.56-.68l-.75-1.57m-5.13-1.14a9.37,9.37,0,0,1-.94.57L21,27.94h1.22l-4.74-9.89m-5.94-5.52a9.75,9.75,0,0,1-1.26.07H5.8v2.54h4.49a12,12,0,0,0,1.26-.07V12.53M26.17,8.09l-.38.23A6.4,6.4,0,0,0,23,13l.81.08a5.78,5.78,0,0,1,2-2.18,7.73,7.73,0,0,1,.81-.44,10.26,10.26,0,0,0-.43-2.32M15.7,2.54H9.9a16.29,16.29,0,0,1,5.42.76,8.83,8.83,0,0,1,3.35,2A6.75,6.75,0,0,1,20.35,8a10.9,10.9,0,0,1,.4,1.81c0-.44.07-.91.07-1.4a10,10,0,0,0-.47-2.95,6.75,6.75,0,0,0-1.68-2.74l0,0a21.94,21.94,0,0,0-2.93-.18"/><path class="cls-2" d="M159,13.81a4,4,0,0,0-3.5,1.64,5.91,5.91,0,0,0-.55,1,13.86,13.86,0,0,0-.47,3.2,6.79,6.79,0,0,0,1,2.84A4,4,0,0,0,159,24.18a5,5,0,0,0,1.7-.27,10.53,10.53,0,0,1-.55-3.68,8.29,8.29,0,0,1,1.15-4.78,3.87,3.87,0,0,1,.6-.67,4.18,4.18,0,0,0-2.9-1m7.32-4.3.26.25a9.13,9.13,0,0,1,2.05,3.41,13.61,13.61,0,0,1,.71,4.52c0,.19,0,.38,0,.57a13.29,13.29,0,0,1,.13,2,10.31,10.31,0,0,1-.59,3.73,8,8,0,0,1-.26.83,9.51,9.51,0,0,1-2.07,3.42,8.84,8.84,0,0,1-3.27,2.15,9.75,9.75,0,0,1-1.45.44,13.3,13.3,0,0,0,3,.31,11.63,11.63,0,0,0,4.27-.75,8.84,8.84,0,0,0,3.27-2.15,9.51,9.51,0,0,0,2.07-3.42,13.55,13.55,0,0,0,.72-4.56,13.61,13.61,0,0,0-.7-4.52,8.79,8.79,0,0,0-5.32-5.54,11.16,11.16,0,0,0-2.79-.66"/><path class="cls-3" d="M154.47,19.68c0,.18,0,.36,0,.55a15.63,15.63,0,0,0,.36,3.48,5.64,5.64,0,0,0,.65,1.35A4,4,0,0,0,159,26.72a4.17,4.17,0,0,0,2.88-1,4,4,0,0,1-.6-.69,5.38,5.38,0,0,1-.58-1.15,5,5,0,0,1-1.7.27,4,4,0,0,1-3.52-1.66,6.79,6.79,0,0,1-1-2.84M164.79,9.43a12.65,12.65,0,0,0-2.88.31,11.85,11.85,0,0,1,1.39.43,8.79,8.79,0,0,1,5.32,5.54q.15.42.27.87a8.58,8.58,0,0,1,.43,1.68c0-.19,0-.38,0-.57a13.61,13.61,0,0,0-.71-4.52,9.13,9.13,0,0,0-2.05-3.41l-.26-.25a12.57,12.57,0,0,0-1.52-.08"/><path class="cls-2" d="M115.87,14a4.78,4.78,0,0,0-1.82.32,5.2,5.2,0,0,0-1.43.9,4.88,4.88,0,0,0-.92,1.31l0,.11V30.48h5.48V18.19a3.71,3.71,0,0,1,.37-1.66,5.13,5.13,0,0,1,.91-1.3,1.94,1.94,0,0,0-.35-.44,3.06,3.06,0,0,0-2.19-.79m7.44-4.57h-.08a9.44,9.44,0,0,1,1.13,5v1.13a5.84,5.84,0,0,1,.32,2.15V30.48h5.48v-.61a6.81,6.81,0,0,1-1.73-1.66q-2.12-2.89-2.11-8c0-.41,0-.8,0-1.19s0-.89,0-1.35a14.59,14.59,0,0,1,.61-4.36A10.76,10.76,0,0,1,128,10.81a7.19,7.19,0,0,0-4.71-1.38"/><path class="cls-3" d="M128,10.81a10.76,10.76,0,0,0-1.09,2.48,14.59,14.59,0,0,0-.61,4.36c0,.46,0,.91,0,1.35a13.38,13.38,0,0,1,.57-3.18,10.12,10.12,0,0,1,1.74-3.4c.12-.15.24-.3.37-.44a5.21,5.21,0,0,0-.56-.73,4.78,4.78,0,0,0-.46-.44m-13.54-.76h-2.83v2.17a7.08,7.08,0,0,1,2.4-2l.43-.2m8.75-.62a7.72,7.72,0,0,0-2.6.48,5.12,5.12,0,0,1,2.05,1.34,7,7,0,0,1,1.6,4.14,1.42,1.42,0,0,1,.08.18V14.44a9.44,9.44,0,0,0-1.13-5"/><path class="cls-2" d="M93.37,13.81a4,4,0,0,0-3.5,1.64,4.81,4.81,0,0,0-.55,1,12.93,12.93,0,0,0-.47,3.2,6.66,6.66,0,0,0,1,2.84,4,4,0,0,0,3.52,1.66,5,5,0,0,0,1.69-.27,10.77,10.77,0,0,1-.55-3.68,8.29,8.29,0,0,1,1.16-4.78,3.87,3.87,0,0,1,.6-.67,4.2,4.2,0,0,0-2.9-1m7.31-4.3.26.25A9.14,9.14,0,0,1,103,13.17a13.61,13.61,0,0,1,.7,4.52c0,.19,0,.39,0,.58a13.08,13.08,0,0,1,.14,2,10.25,10.25,0,0,1-.59,3.72c-.08.29-.17.57-.26.84a9.67,9.67,0,0,1-2.08,3.42,8.88,8.88,0,0,1-3.26,2.15,9.88,9.88,0,0,1-1.46.44,13.39,13.39,0,0,0,3,.31,11.58,11.58,0,0,0,4.26-.75A9.38,9.38,0,0,0,105.85,29V11.51a9.05,9.05,0,0,0-2.38-1.34,11.16,11.16,0,0,0-2.79-.66"/><path class="cls-3" d="M88.85,19.68c0,.18,0,.36,0,.55a16.27,16.27,0,0,0,.35,3.48,5.65,5.65,0,0,0,.66,1.35,4,4,0,0,0,3.52,1.66,4.17,4.17,0,0,0,2.88-1,3.63,3.63,0,0,1-.6-.69,5.4,5.4,0,0,1-.59-1.15,5,5,0,0,1-1.69.27,4,4,0,0,1-3.52-1.66,6.66,6.66,0,0,1-1-2.84M99.17,9.43a12.65,12.65,0,0,0-2.88.31,11.69,11.69,0,0,1,1.38.43A8.84,8.84,0,0,1,103,15.71c.1.28.18.57.26.87a7.87,7.87,0,0,1,.43,1.69c0-.19,0-.39,0-.58a13.61,13.61,0,0,0-.7-4.52,9.14,9.14,0,0,0-2.06-3.41l-.26-.25a12.4,12.4,0,0,0-1.51-.08"/><path class="cls-2" d="M61.05,14a4.1,4.1,0,0,0-1.51.28,3.9,3.9,0,0,0-1.35.94,4,4,0,0,0-.88,1.31v14h5.47V18.19a4.14,4.14,0,0,1,.34-1.66A3.81,3.81,0,0,1,63.4,16a.84.84,0,0,0,0-.17,2.86,2.86,0,0,0-.52-1.08,1.86,1.86,0,0,0-.81-.55,3.18,3.18,0,0,0-1-.16m12,0a3.77,3.77,0,0,0-2.86,1.22,4.41,4.41,0,0,0-.88,1.25l-.06.13a9.35,9.35,0,0,1,0,1V30.48h5.48V18a3.48,3.48,0,0,1,.33-1.49,4.35,4.35,0,0,1,.29-.52c0-.06,0-.11,0-.16a2.87,2.87,0,0,0-.53-1.08,1.83,1.83,0,0,0-.8-.55,3.24,3.24,0,0,0-1-.16M68.49,9.43a5.72,5.72,0,0,0-.59,0,5.17,5.17,0,0,1,.42,1c.27-.35.53-.67.8-1h-.63m12.05,0h-.46a9.72,9.72,0,0,1,1,4.84v1.13a3.37,3.37,0,0,1,.13.38,6.67,6.67,0,0,1,.19,1.78V30.48h5.48v-1.2a7.64,7.64,0,0,1-1.14-1Q83,25.47,83,20.23c0-.42,0-.83,0-1.23s0-.86,0-1.31a13.35,13.35,0,0,1,.72-4.52A9.55,9.55,0,0,1,85,10.83a6.39,6.39,0,0,0-4.42-1.4"/><path class="cls-3" d="M85,10.83a9.55,9.55,0,0,0-1.2,2.34A13.35,13.35,0,0,0,83,17.69c0,.45,0,.89,0,1.31a12.47,12.47,0,0,1,.68-3.29,9.45,9.45,0,0,1,2.08-3.41,1.85,1.85,0,0,1,.14-.14,4.55,4.55,0,0,0-.68-1c-.11-.12-.23-.23-.34-.34m-25.09-.78H57.3v2.08a6.87,6.87,0,0,1,2.18-1.88l.39-.2m9.25-.61c-.27.3-.53.62-.8,1a5.17,5.17,0,0,0-.42-1,6.71,6.71,0,0,0-2.14.56,5.24,5.24,0,0,1,.57.32,4.82,4.82,0,0,1,2,2.62,9.16,9.16,0,0,1,3-2.7,2.53,2.53,0,0,1,.37-.18,6.73,6.73,0,0,0-2.55-.63m11,0a7,7,0,0,0-2.34.51,4.88,4.88,0,0,1,1.76,1.22A6.94,6.94,0,0,1,81,15.24c0,.06,0,.12.07.17V14.28a9.72,9.72,0,0,0-1-4.84"/><path class="cls-2" d="M35.26,27.9a11,11,0,0,1-2.72,2.23,6.05,6.05,0,0,1-1,.43l.26.08a9.6,9.6,0,0,0,2.6.35,8.66,8.66,0,0,0,3.15-.51H35.26V27.9m-.33-6.53-2.22.11a14,14,0,0,0-2.77.35,4.71,4.71,0,0,0-1.63.69,1.87,1.87,0,0,0-.36.32,4.12,4.12,0,0,0-.16.65,2.23,2.23,0,0,0,.27.26,3,3,0,0,0,2,.59,5.77,5.77,0,0,0,3.36-.91,2,2,0,0,1,.74-.91,2.6,2.6,0,0,1,.37-.23,3.37,3.37,0,0,0,.19-.32,3.29,3.29,0,0,0,.26-.6M31.7,13.5a4.55,4.55,0,0,0-2.6.64,8.88,8.88,0,0,0-.33,1.35l1.13.11c.88-.11,1.76-.18,2.66-.22L34,15.32a2.39,2.39,0,0,1,.52-.82,2,2,0,0,0-.35-.3,4.22,4.22,0,0,0-2.44-.7m7.16-4A6.25,6.25,0,0,1,40,11.64a11.68,11.68,0,0,1,.45,3A3.5,3.5,0,0,1,41,16.78v1l-.56,0v3.56l.52,0v1.06a4.28,4.28,0,0,1-.47,2.09.22.22,0,0,1,0,.08v4c.22-.21.43-.43.64-.66v2.58h2.06V10.66A8,8,0,0,0,41.68,10a11.23,11.23,0,0,0-2.82-.53"/><path class="cls-3" d="M33.37,23.43a5.77,5.77,0,0,1-3.36.91,3,3,0,0,1-2-.59,2.23,2.23,0,0,1-.27-.26,7.58,7.58,0,0,0-.12,1.39A9.19,9.19,0,0,0,27.74,26a2,2,0,0,0,.32.33,3,3,0,0,0,2,.59,5.71,5.71,0,0,0,3.45-1l0,0a2.1,2.1,0,0,1-.33-1.19,3.63,3.63,0,0,1,.2-1.22l0,0m1.77-2.07h-.21a3.29,3.29,0,0,1-.26.6,3.37,3.37,0,0,1-.19.32,5.24,5.24,0,0,1,.66-.28v-.65m-1.17-6-1.41.06c-.9,0-1.78.11-2.66.22l3.88.36a3,3,0,0,1,.19-.64m3.72-5.89a15.87,15.87,0,0,0-3,.25,9.16,9.16,0,0,1,1.15.31,6.45,6.45,0,0,1,2.65,1.63A6.32,6.32,0,0,1,40,14.18l0,.05a2,2,0,0,1,.43.43,11.68,11.68,0,0,0-.45-3,6.25,6.25,0,0,0-1.11-2.18q-.55,0-1.17,0"/><polyline class="cls-2" points="51.5 10.05 48.92 10.05 48.92 30.48 54.4 30.48 51.5 30.48 51.5 27.94 51.5 10.05"/><path class="cls-2" d="M11.11,50.92H5.8v5h4.73q.48,0,.9,0v-5h-.32M9.86,39.73H5.8v4h4.92c.25,0,.49,0,.71,0V39.8a15,15,0,0,0-1.57-.07m9-4.41A5.16,5.16,0,0,1,20,37.19a9.43,9.43,0,0,1,.45,3,7.24,7.24,0,0,1-.09,1.15c0,.13,0,.26,0,.4a3.6,3.6,0,0,1,.17,1.19,3.72,3.72,0,0,1-.44,1.91,6.25,6.25,0,0,1-.39,1,4,4,0,0,1-.81,1.14l.21.18a6.09,6.09,0,0,1,1.25,1.54A5.76,5.76,0,0,1,21,50.34a8.38,8.38,0,0,1,.18,1.72c0,.35,0,.7-.05,1a4.83,4.83,0,0,1,.21,1.49,5,5,0,0,1-.23,1.6,1.8,1.8,0,0,1-.08.21,8.56,8.56,0,0,1-.38,1.51,6.31,6.31,0,0,1-1.76,2.7,8.71,8.71,0,0,1-3.23,1.8,15.54,15.54,0,0,1-4.93.67h5.8a15.54,15.54,0,0,0,4.93-.67,9.46,9.46,0,0,0,2.41-1.15,9.41,9.41,0,0,1-1.16-5.11V53.62h0V40.12h3.2l-.12-.39a5.34,5.34,0,0,0-1.63-2.39A8.29,8.29,0,0,0,21,35.74a13.62,13.62,0,0,0-2.08-.42"/><path class="cls-3" d="M11.43,55.94q-.42,0-.9,0H5.8v2.54h4.73q.48,0,.9,0V55.94m7.48-9a7.16,7.16,0,0,1-1.85,1.33,9.83,9.83,0,0,1,2.06,1.39,6.09,6.09,0,0,1,1.25,1.54A6.38,6.38,0,0,1,21,52.68a3.2,3.2,0,0,1,.17.43c0-.35.05-.7.05-1A8.38,8.38,0,0,0,21,50.34a5.76,5.76,0,0,0-.62-1.69,6.09,6.09,0,0,0-1.25-1.54l-.21-.18m-7.48-3.27c-.22,0-.46,0-.71,0H5.8v2.54h4.92c.25,0,.49,0,.71,0V43.66M25.9,40.12H22.7v13.5h0v-11h3.53a10.32,10.32,0,0,0-.33-2.54m-10-5h-5.8a18.22,18.22,0,0,1,5.1.59,8.29,8.29,0,0,1,3.19,1.6A5.26,5.26,0,0,1,20,39.73a9.84,9.84,0,0,1,.36,1.58,7.24,7.24,0,0,0,.09-1.15,9.43,9.43,0,0,0-.45-3,5.16,5.16,0,0,0-1.1-1.87,25,25,0,0,0-3-.17"/><path class="cls-2" d="M56.4,37.22H50.92v2.9h4.37v6.81H50.92v8.62a1.4,1.4,0,0,0,.34.44,2.57,2.57,0,0,0,1.72.57,10.65,10.65,0,0,0,1.12-.06,7.13,7.13,0,0,0,1.12-.21l.78,4-.47.13L56,62.86c-.39.11-.77.22-1.14.3a10.18,10.18,0,0,0,2.67.32,15,15,0,0,0,2.06-.14A11.29,11.29,0,0,0,61.32,63a7.75,7.75,0,0,1-3.15-2.09q-2.56-2.82-2.56-8c0-.42,0-.83,0-1.23s0-.86,0-1.31a13.1,13.1,0,0,1,.74-4.6,10,10,0,0,1,1.81-3.12H56.4V37.22"/><path class="cls-3" d="M50.92,55.55v.93a14.13,14.13,0,0,0,.1,1.78,1.05,1.05,0,0,0,.24.27A2.57,2.57,0,0,0,53,59.1,10.65,10.65,0,0,0,54.1,59a6.16,6.16,0,0,0,1.12-.22l.31,1.63.47-.13-.78-4a7.13,7.13,0,0,1-1.12.21,10.65,10.65,0,0,1-1.12.06A2.57,2.57,0,0,1,51.26,56a1.4,1.4,0,0,1-.34-.44M61.09,42.66H58.16a10,10,0,0,0-1.81,3.12,13.1,13.1,0,0,0-.74,4.6c0,.45,0,.89,0,1.31a12.06,12.06,0,0,1,.7-3.37s0-.09,0-.13V46.93H57a9.48,9.48,0,0,1,1.47-2A8.58,8.58,0,0,1,61.09,43v-.35m-5.8-2.54H50.92v2.54h4.37V40.12"/><path class="cls-2" d="M102.72,60.51A10.87,10.87,0,0,1,100,62.74a5.49,5.49,0,0,1-1,.43l.26.08a9.55,9.55,0,0,0,2.6.35,8.74,8.74,0,0,0,3.15-.51h-2.34V60.51M102.39,54l-2.21.11a14,14,0,0,0-2.78.35,4.65,4.65,0,0,0-1.62.69,1.94,1.94,0,0,0-.37.32c-.06.2-.11.42-.16.65a2.23,2.23,0,0,0,.27.26,3,3,0,0,0,2,.59,5.73,5.73,0,0,0,3.35-.91,2,2,0,0,1,.74-.91,2.6,2.6,0,0,1,.37-.23,3.37,3.37,0,0,0,.19-.32,2.72,2.72,0,0,0,.26-.6m-3.23-7.87a4.49,4.49,0,0,0-2.59.64,8.88,8.88,0,0,0-.34,1.35l1.13.11c.88-.11,1.77-.18,2.66-.22l1.41-.06a2.55,2.55,0,0,1,.52-.82,1.92,1.92,0,0,0-.34-.3,4.27,4.27,0,0,0-2.45-.7m7.16-4a6.44,6.44,0,0,1,1.12,2.18,11.27,11.27,0,0,1,.44,3,3.43,3.43,0,0,1,.56,2.12v1l-.55,0V54l.51,0V55a4.17,4.17,0,0,1-.47,2.09l0,.08v4c.21-.21.43-.43.63-.66v2.58h5.17V50.18a11.84,11.84,0,0,0-.45-3.39,6.34,6.34,0,0,0-1.45-2.56,6.48,6.48,0,0,0-2.64-1.63,11.4,11.4,0,0,0-2.83-.53"/><path class="cls-3" d="M100.83,56a5.73,5.73,0,0,1-3.35.91,3,3,0,0,1-2-.59,2.23,2.23,0,0,1-.27-.26,8.7,8.7,0,0,0-.11,1.39,7.44,7.44,0,0,0,.07,1.08,1.93,1.93,0,0,0,.31.33,3,3,0,0,0,2,.59,5.68,5.68,0,0,0,3.44-1l0,0a2.1,2.1,0,0,1-.33-1.19,3.63,3.63,0,0,1,.19-1.22l0,0M102.6,54h-.21a2.72,2.72,0,0,1-.26.6,3.37,3.37,0,0,1-.19.32,6,6,0,0,1,.66-.28V54m-1.17-6L100,48c-.89,0-1.78.11-2.66.22l3.88.36a3.7,3.7,0,0,1,.19-.64M105.16,42a16,16,0,0,0-3,.25,11.47,11.47,0,0,1,1.16.31A6.48,6.48,0,0,1,106,44.23a6.34,6.34,0,0,1,1.45,2.56v.05a1.76,1.76,0,0,1,.43.43,11.27,11.27,0,0,0-.44-3,6.44,6.44,0,0,0-1.12-2.18c-.37,0-.76,0-1.16,0"/><path class="cls-2" d="M77.36,56.71H75.49a3.33,3.33,0,0,1-.9,1.76,7.31,7.31,0,0,1-2.33,3.47,8.09,8.09,0,0,1-3.5,1.52,15,15,0,0,0,2.86.26,11,11,0,0,0,5.74-1.3V56.71m-7.67-2.5H61.56a4.74,4.74,0,0,0,.78,1.31,4.33,4.33,0,0,0,3.52,1.39,5.63,5.63,0,0,0,1.49-.18,7.59,7.59,0,0,1-.47-2.52h2.81m-4-8.06a4.69,4.69,0,0,0-1.91.35,4,4,0,0,0-1.18.75c-.13.26-.25.53-.37.82h5.48a4.71,4.71,0,0,1,.47-.61,4.58,4.58,0,0,1,.46-.42,4.35,4.35,0,0,0-3-.89m7.08-4.07.1.12A9.86,9.86,0,0,1,75.18,48a5.44,5.44,0,0,1,.59,2.65h-.52v1.06h0v2.54h2.11V43.56a9.18,9.18,0,0,0-4.58-1.48"/><path class="cls-3" d="M61.56,54.21h-.11a13.59,13.59,0,0,0,.71,3.63l.18.22a4.33,4.33,0,0,0,3.52,1.39,4.14,4.14,0,0,0,2.82-.87,3.32,3.32,0,0,1-.54-.52,4.51,4.51,0,0,1-.79-1.33,5.63,5.63,0,0,1-1.49.18,4.33,4.33,0,0,1-3.52-1.39,4.74,4.74,0,0,1-.78-1.31m13.69-3.6h-.06c0,.34,0,.69.06,1.06h0V50.61m-7.53-2.54H62.24l-.09.25a11.46,11.46,0,0,0-.58,2.29H67a5.66,5.66,0,0,1,.35-1.74,5,5,0,0,1,.41-.8m3.9-6a11.77,11.77,0,0,0-2.84.32,7.59,7.59,0,0,1,4.1,2.38,8.41,8.41,0,0,1,1.39,2.16,2.61,2.61,0,0,1,.46.42,3.67,3.67,0,0,1,.45.64,9.86,9.86,0,0,0-2.3-5.76l-.1-.12c-.38,0-.76,0-1.16,0"/><path class="cls-2" d="M91.35,42.91l-.4.2c-.24.14-.47.29-.7.45l-.52,3.92a9.53,9.53,0,0,0-2.31-.24,6.49,6.49,0,0,0-1.72.22,3.61,3.61,0,0,0-1.49.8,3.94,3.94,0,0,0-1,1.41l0,0V63.09h5.48V51.27a3.95,3.95,0,0,1,1.37-3,3.73,3.73,0,0,1,.46-.35,8,8,0,0,1,.77-2.27l-.81-.08a7.9,7.9,0,0,1,.92-2.65"/><path class="cls-3" d="M86.15,42.66h-3v2.18a6.63,6.63,0,0,1,2-1.73,6.82,6.82,0,0,1,1-.45M94,42.31a6.11,6.11,0,0,0-2.65.6,7.9,7.9,0,0,0-.92,2.65l.81.08a5.78,5.78,0,0,1,2-2.18,8.75,8.75,0,0,1,2.51-1l-.47-.06A11.27,11.27,0,0,0,94,42.31"/><path class="cls-2" d="M35.69,60.27a7.94,7.94,0,0,1-2.84,2.62,4.69,4.69,0,0,1-.72.33,8.91,8.91,0,0,0,3.14.5,7.17,7.17,0,0,0,3-.63H35.69V60.27M34,42.66H28.5V55.1a2,2,0,0,0,.46.73,3,3,0,0,0,2.15.77,4.37,4.37,0,0,0,1.74-.31A4.83,4.83,0,0,0,34,55.55V42.66m7.94,0h-.58V55A3.8,3.8,0,0,1,41,56.5v4.41c.16-.2.32-.41.48-.64v2.82h5.32V61.94l-.07-.06q-1.62-1.6-1.62-5.4V53.94h0v-7H41.91V42.66"/><path class="cls-3" d="M28.5,55.1v1.06a14.61,14.61,0,0,0,.08,1.67,1.86,1.86,0,0,0,.38.54,3,3,0,0,0,2.15.77,4.19,4.19,0,0,0,1.74-.32,4.52,4.52,0,0,0,1.31-.9l.18-.16A5.84,5.84,0,0,1,34,55.55a4.83,4.83,0,0,1-1.12.74,4.37,4.37,0,0,1-1.74.31A3,3,0,0,1,29,55.83a2,2,0,0,1-.46-.73"/><path d="M146.51,28.4a7.29,7.29,0,0,1-2.71,2.08h2.71V28.4m-16.35-1.07v2.54a8.4,8.4,0,0,0,4.69,1.24,8.06,8.06,0,0,0,2.73-.46,6.66,6.66,0,0,1-3.08-2.09,8.18,8.18,0,0,1-4.34-1.23m11-2.09a8.56,8.56,0,0,1-.84,1l.1,0a4.91,4.91,0,0,0,.74.24V25.24m-.52-11.09-.12,0a3.49,3.49,0,0,0-1,.67l.12.11a4.31,4.31,0,0,1,1.08,1.92,10.4,10.4,0,0,1,.31,2.14c0-.27,0-.55,0-.84v-.71a12,12,0,0,0-.33-3.13,1.72,1.72,0,0,0-.07-.21m-5.28-2.71a4.83,4.83,0,0,0-.64.22,3.87,3.87,0,0,0-1.41,1.1,5.64,5.64,0,0,0-1,2,10.71,10.71,0,0,0-.35,2.9c0,.48,0,.92.05,1.34a9,9,0,0,1,.28-1.6,12.2,12.2,0,0,1,.36-1.53,10.32,10.32,0,0,1,1.75-3.4,7.78,7.78,0,0,1,.92-1"/><path class="cls-4" d="M142.25,13.85a4.23,4.23,0,0,0-1.58.3,1.72,1.72,0,0,1,.07.21,12,12,0,0,1,.33,3.13v.71c0,.29,0,.57,0,.84s0,.64,0,1v.71a9.18,9.18,0,0,1-.37,2.87,4.76,4.76,0,0,1-1.15,1.9l-.12.1a3.4,3.4,0,0,0,.92.66,8.56,8.56,0,0,0,.84-1v1.31a4.86,4.86,0,0,0,.95.09,4.55,4.55,0,0,0,3.2-1.13,4.67,4.67,0,0,0,1.16-1.9v-6.8a4.24,4.24,0,0,0-1-1.83,3.4,3.4,0,0,0-1.54-.92,7,7,0,0,0-1.67-.21m-7.09-4.42a8.52,8.52,0,0,0-3.71.78A7.72,7.72,0,0,0,129,12a9.43,9.43,0,0,1,1.12,5V27.33a8.18,8.18,0,0,0,4.34,1.23l-.27-.35a11.51,11.51,0,0,1-1.95-5.32,13.41,13.41,0,0,1-.25-2.74c0-.42,0-.82.05-1.2s-.05-.86-.05-1.34a10.71,10.71,0,0,1,.35-2.9,5.64,5.64,0,0,1,1-2,3.87,3.87,0,0,1,1.41-1.1,4.83,4.83,0,0,1,.64-.22,8.05,8.05,0,0,1,1.85-1.23A7,7,0,0,1,138,9.9a9,9,0,0,0-2.83-.47m11.35-6.89H141V9.43a8.74,8.74,0,0,1,3,.54,6.59,6.59,0,0,1,2.52,1.76V2.54"/><path class="cls-5" d="M140.35,26.27a7.27,7.27,0,0,1-5.5,2.3h-.35a6.66,6.66,0,0,0,3.08,2.09,7.58,7.58,0,0,0,3.61-2.87V26.55a4.91,4.91,0,0,1-.74-.24l-.1,0m6.16-2.7h0v4.37h-5.32v2.54h2.61a7.29,7.29,0,0,0,2.71-2.08V23.57M136.45,11.31a4.16,4.16,0,0,0-1.06.13,7.78,7.78,0,0,0-.92,1,10.32,10.32,0,0,0-1.75,3.4,12.2,12.2,0,0,0-.36,1.53.3.3,0,0,0,0-.1,5.55,5.55,0,0,1,1-1.95,3.87,3.87,0,0,1,1.41-1.1,4.27,4.27,0,0,1,1.7-.35,6.88,6.88,0,0,1,1.67.21,3.2,3.2,0,0,1,1.42.81,3.49,3.49,0,0,1,1-.67l.12,0a4.16,4.16,0,0,0-1-1.71,3.4,3.4,0,0,0-1.54-.92,6.88,6.88,0,0,0-1.67-.21"/><path class="cls-4" d="M146.51,23.57v0a4.67,4.67,0,0,1-1.16,1.9,4.55,4.55,0,0,1-3.2,1.13,4.86,4.86,0,0,1-.95-.09v1.23h0v.16h5.32V23.57m-14.23-.68a11.51,11.51,0,0,0,1.95,5.32l.27.35h.35a7.27,7.27,0,0,0,5.5-2.3,3.4,3.4,0,0,1-.92-.66,4.63,4.63,0,0,1-3.09,1,4.35,4.35,0,0,1-1.69-.33,3.53,3.53,0,0,1-1.37-1.09,5.71,5.71,0,0,1-.91-2l-.09-.33M141,9.43v2.66A6.85,6.85,0,0,0,138.2,10L138,9.9a7,7,0,0,0-.75.31,8.05,8.05,0,0,0-1.85,1.23,4.16,4.16,0,0,1,1.06-.13,6.88,6.88,0,0,1,1.67.21,3.4,3.4,0,0,1,1.54.92,4.16,4.16,0,0,1,1,1.71,4.23,4.23,0,0,1,1.58-.3,7,7,0,0,1,1.67.21,3.4,3.4,0,0,1,1.54.92,4.24,4.24,0,0,1,1,1.83V11.73A6.59,6.59,0,0,0,144,10a8.74,8.74,0,0,0-3-.54"/><path class="cls-5" d="M126.36,19c0,.39,0,.78,0,1.19q0,5.13,2.11,8a6.81,6.81,0,0,0,1.73,1.66V27.33a6.81,6.81,0,0,1-1.73-1.66A12.38,12.38,0,0,1,126.36,19"/><path class="cls-4" d="M129,12c-.13.14-.25.29-.37.44a10.12,10.12,0,0,0-1.74,3.4,13.38,13.38,0,0,0-.57,3.18,12.38,12.38,0,0,0,2.07,6.67,6.81,6.81,0,0,0,1.73,1.66V17A9.43,9.43,0,0,0,129,12"/><polyline points="48.68 2.54 48.68 2.54 48.68 4.93 43.05 4.93 43.05 7.47 48.68 7.47 48.68 2.54"/><polyline class="cls-4" points="48.68 2.54 43.05 2.54 43.05 4.93 48.68 4.93 48.68 2.54"/><path d="M12.37,20h-.82v.72l4.38,9.77h5.8l-1.14-2.54H15.93l-3.56-8M5.8,17.45h0V27.94H0v2.54H5.75V20h0V17.45m14.86-7A8.12,8.12,0,0,1,19.84,13a6.68,6.68,0,0,1-1.49,1.86h0A3.49,3.49,0,0,0,19.79,14a2.73,2.73,0,0,0,.72-1.27,6.41,6.41,0,0,0,.2-1.64,4.48,4.48,0,0,0-.05-.64M14.74,7.35H11.55v.13a5.32,5.32,0,0,1,.76.17,3.84,3.84,0,0,1,1.56.82,2.82,2.82,0,0,1,.8,1.21c0,.1.07.21.1.31a7,7,0,0,0,.14-1.42,4.49,4.49,0,0,0-.17-1.22M5.8,4.81h0V7.35h0V4.81"/><path class="cls-4" d="M17,20H12.37l3.56,8h4.66L17,20M15.58,7.35h-.84a4.49,4.49,0,0,1,.17,1.22A7,7,0,0,1,14.77,10a4.58,4.58,0,0,1,.14,1.12,6.41,6.41,0,0,1-.2,1.64A2.73,2.73,0,0,1,14,14a3.49,3.49,0,0,1-1.43.83,6.34,6.34,0,0,1-1,.22v.07h4.54a7.57,7.57,0,0,0,2.26-.29A6.68,6.68,0,0,0,19.84,13a8.12,8.12,0,0,0,.82-2.52,4.33,4.33,0,0,0-.19-.79,2.82,2.82,0,0,0-.8-1.21,3.84,3.84,0,0,0-1.56-.82,9,9,0,0,0-2.53-.3M9.9,2.54H0v25.4H5.75V17.45h0V15.14h0V4.81h0V2.54H9.9"/><path class="cls-5" d="M21,27.94h-.42l1.14,2.54h.5L21,27.94M11.23,17.45H5.8V20h5.43l.32.72V20h.82l-1.14-2.54m9.52-7.6c0,.21-.05.42-.09.62a4.48,4.48,0,0,1,.05.64,6.41,6.41,0,0,1-.2,1.64A2.73,2.73,0,0,1,19.79,14a3.49,3.49,0,0,1-1.43.83h0a9.47,9.47,0,0,1-1.8,1.23l.94,2a7.09,7.09,0,0,0,2.35-2.52,9.62,9.62,0,0,0,1-4.54,10.9,10.9,0,0,0-.07-1.14m-11-5h-4V7.35h4a10.32,10.32,0,0,1,1.77.13V7.35h3.19a1.72,1.72,0,0,0-.07-.21,2.88,2.88,0,0,0-.8-1.21,3.84,3.84,0,0,0-1.56-.82,9,9,0,0,0-2.53-.3"/><path class="cls-4" d="M18.35,14.85a7.57,7.57,0,0,1-2.26.29H11.55v-.07a12,12,0,0,1-1.26.07H5.8v2.31h5.43L12.37,20H17l3.56,8H21l-4.46-9.32a9.37,9.37,0,0,0,.94-.57l-.94-2a9.47,9.47,0,0,0,1.8-1.23M9.9,2.54H5.8V4.81h4a9,9,0,0,1,2.53.3,3.84,3.84,0,0,1,1.56.82,2.88,2.88,0,0,1,.8,1.21,1.72,1.72,0,0,1,.07.21h.84a9,9,0,0,1,2.53.3,3.84,3.84,0,0,1,1.56.82,2.82,2.82,0,0,1,.8,1.21,4.33,4.33,0,0,1,.19.79c0-.2.06-.41.09-.62A10.9,10.9,0,0,0,20.35,8,6.75,6.75,0,0,0,18.67,5.3a8.83,8.83,0,0,0-3.35-2A16.29,16.29,0,0,0,9.9,2.54"/><path d="M152.31,26.6v2.54a10.69,10.69,0,0,0,6.68,2,12.13,12.13,0,0,0,2.82-.31,9,9,0,0,1-4.46-2.32,9.8,9.8,0,0,1-5-1.88m17-7.64a12.47,12.47,0,0,1-.68,3.29,9.51,9.51,0,0,1-2.07,3.42,8.89,8.89,0,0,1-1.18,1,3.81,3.81,0,0,0,3-1.66,5,5,0,0,0,.56-1.08,14.16,14.16,0,0,0,.47-3.73c0-.44,0-.86-.05-1.27m-6.18-4.89a3.68,3.68,0,0,0-1.21.71,3.55,3.55,0,0,1,.61.67A7.18,7.18,0,0,1,163.6,19c0-.4.05-.83.05-1.27a10.25,10.25,0,0,0-.55-3.62m-4.67-2.78a3.85,3.85,0,0,0-2.94,1.62,8.29,8.29,0,0,0-1.15,4.78c0,.45,0,.88,0,1.28a8.64,8.64,0,0,1,.55-2.49c.07-.27.16-.52.25-.77a9.3,9.3,0,0,1,2.07-3.41,9.43,9.43,0,0,1,1.17-1"/><path class="cls-4" d="M164.79,13.81a5.26,5.26,0,0,0-1.69.26,10.25,10.25,0,0,1,.55,3.62c0,.44,0,.87-.05,1.27s.05.82.05,1.27A8.46,8.46,0,0,1,162.5,25a3.6,3.6,0,0,1-.63.71,4.24,4.24,0,0,0,2.92,1l.56,0a8.89,8.89,0,0,0,1.18-1,9.51,9.51,0,0,0,2.07-3.42,12.47,12.47,0,0,0,.68-3.29,14.6,14.6,0,0,0-.39-2.38,5.24,5.24,0,0,0-.59-1.13,4,4,0,0,0-3.51-1.64M159,9.43a11.62,11.62,0,0,0-4.26.74,9.09,9.09,0,0,0-2.42,1.37V26.6a9.8,9.8,0,0,0,5,1.88l-.19-.19a9.44,9.44,0,0,1-2.34-4.58,11,11,0,0,1-.48-3.48c0-.44,0-.86,0-1.26s0-.83,0-1.28a8.29,8.29,0,0,1,1.15-4.78,3.85,3.85,0,0,1,2.94-1.62,9.56,9.56,0,0,1,2.1-1.12,11.69,11.69,0,0,1,1.38-.43A12.88,12.88,0,0,0,159,9.43"/><path class="cls-5" d="M148.71,19c0,.4-.05.81-.05,1.23q0,5.23,2.7,8.06a8.48,8.48,0,0,0,.95.85V26.6a8.48,8.48,0,0,1-.95-.85A10.5,10.5,0,0,1,148.71,19"/><path class="cls-4" d="M152.31,11.54a8.71,8.71,0,0,0-.85.76,9.3,9.3,0,0,0-2.07,3.41,12.47,12.47,0,0,0-.68,3.29,10.5,10.5,0,0,0,2.65,6.75,8.48,8.48,0,0,0,.95.85V11.54"/><path class="cls-5" d="M168.86,24A5,5,0,0,1,168.3,25a3.81,3.81,0,0,1-3,1.66,9.29,9.29,0,0,1-2.09,1.12,11.63,11.63,0,0,1-4.27.75,14.62,14.62,0,0,1-1.64-.09,9,9,0,0,0,4.46,2.32,9.75,9.75,0,0,0,1.45-.44,8.84,8.84,0,0,0,3.27-2.15,9.51,9.51,0,0,0,2.07-3.42,8,8,0,0,0,.26-.83M159,11.27l-.56,0a9.43,9.43,0,0,0-1.17,1,9.3,9.3,0,0,0-2.07,3.41c-.09.25-.18.5-.25.77a5.91,5.91,0,0,1,.55-1,4,4,0,0,1,3.5-1.64,4.18,4.18,0,0,1,2.9,1,3.68,3.68,0,0,1,1.21-.71,5.08,5.08,0,0,0-.6-1.16A4,4,0,0,0,159,11.27"/><path class="cls-4" d="M154.82,23.71a9.44,9.44,0,0,0,2.34,4.58l.19.19a14.62,14.62,0,0,0,1.64.09,11.63,11.63,0,0,0,4.27-.75,9.29,9.29,0,0,0,2.09-1.12l-.56,0a4.24,4.24,0,0,1-2.92-1,4.17,4.17,0,0,1-2.88,1,4,4,0,0,1-3.52-1.66,5.64,5.64,0,0,1-.65-1.35m7.09-14a11.69,11.69,0,0,0-1.38.43,9.56,9.56,0,0,0-2.1,1.12l.56,0a4,4,0,0,1,3.51,1.64,5.08,5.08,0,0,1,.6,1.16,5.26,5.26,0,0,1,1.69-.26,4,4,0,0,1,3.51,1.64,5.24,5.24,0,0,1,.59,1.13q-.12-.45-.27-.87a8.79,8.79,0,0,0-5.32-5.54,11.85,11.85,0,0,0-1.39-.43"/><path d="M124.36,17v11h-5.48v2.54h5.48V17h0m-5.48-2.13-.46.37h0a5.32,5.32,0,0,1,.47,2.49V14.85m-7.23-.75a3.84,3.84,0,0,0-.32,1.55V27.94H107l-.25.27a7.86,7.86,0,0,1-.85.78v1.49h5.48V18.19a3.8,3.8,0,0,1,.32-1.55V14.1M117,11.62v1.25a9.71,9.71,0,0,1,.71-.92,2.72,2.72,0,0,0-.71-.33"/><path class="cls-4" d="M121.67,14a4.78,4.78,0,0,0-1.82.32,5.39,5.39,0,0,0-1,.53v2.87h0V27.94h5.48V17a13.43,13.43,0,0,0-.08-1.59,1.9,1.9,0,0,0-.42-.6,3.06,3.06,0,0,0-2.19-.79m-10.5-3.95h-5.32v1.46a8.37,8.37,0,0,1,.89.79,9.14,9.14,0,0,1,2.06,3.41,13.88,13.88,0,0,1,.7,4.52,13.55,13.55,0,0,1-.72,4.56A9.81,9.81,0,0,1,107,27.94h4.38V15.65a3.84,3.84,0,0,1,.32-1.55V12.22c-.16.21-.32.42-.48.65V10.33h0v-.28m6.34-.62a7.61,7.61,0,0,0-3,.62H117v1.57a2.72,2.72,0,0,1,.71.33,7,7,0,0,1,2.17-1.7c.26-.13.52-.24.78-.34a9.13,9.13,0,0,0-3.12-.48"/><path class="cls-5" d="M115.87,11.47a4.78,4.78,0,0,0-1.82.31,5.2,5.2,0,0,0-1.43.9A4.88,4.88,0,0,0,111.7,14a.54.54,0,0,1,0,.11v2.54l0-.11a4.88,4.88,0,0,1,.92-1.31,5.2,5.2,0,0,1,1.43-.9,4.78,4.78,0,0,1,1.82-.32,3.06,3.06,0,0,1,2.19.79,1.94,1.94,0,0,1,.35.44h0l.46-.37a3.68,3.68,0,0,0-.82-2.6,2.18,2.18,0,0,0-.38-.3,9.71,9.71,0,0,0-.71.92V11.62a3.8,3.8,0,0,0-1.1-.15"/><path class="cls-4" d="M117,10.05h-2.49l-.43.2a7.08,7.08,0,0,0-2.4,2V14.1a.54.54,0,0,0,0-.11,4.88,4.88,0,0,1,.92-1.31,5.2,5.2,0,0,1,1.43-.9,4.78,4.78,0,0,1,1.82-.31,3.8,3.8,0,0,1,1.1.15V10.05m3.66-.14c-.26.1-.52.21-.78.34a7,7,0,0,0-2.17,1.7,2.18,2.18,0,0,1,.38.3,3.68,3.68,0,0,1,.82,2.6,5.39,5.39,0,0,1,1-.53,4.78,4.78,0,0,1,1.82-.32,3.06,3.06,0,0,1,2.19.79,1.9,1.9,0,0,1,.42.6,7,7,0,0,0-1.6-4.14,5.12,5.12,0,0,0-2.05-1.34"/><path class="cls-5" d="M107,27.94h-1.1v1a7.86,7.86,0,0,0,.85-.78l.25-.27"/><path class="cls-4" d="M105.85,11.51V27.94H107a9.81,9.81,0,0,0,1.83-3.15,13.55,13.55,0,0,0,.72-4.56,13.88,13.88,0,0,0-.7-4.52,9.14,9.14,0,0,0-2.06-3.41,8.37,8.37,0,0,0-.89-.79"/><path d="M86.88,26.74v2.54a10.79,10.79,0,0,0,6.49,1.83,12,12,0,0,0,2.81-.31,8.92,8.92,0,0,1-4.45-2.32,9.83,9.83,0,0,1-4.85-1.74M103.65,19a12.47,12.47,0,0,1-.67,3.29,9.67,9.67,0,0,1-2.08,3.42,8.3,8.3,0,0,1-1.18,1,3.79,3.79,0,0,0,3-1.66,5.33,5.33,0,0,0,.57-1.09,14,14,0,0,0,.46-3.72c0-.44,0-.86,0-1.27m-6.17-4.89a3.58,3.58,0,0,0-1.21.71,3.87,3.87,0,0,1,.6.67A7.07,7.07,0,0,1,98,19c0-.4.06-.83.06-1.27a10.48,10.48,0,0,0-.55-3.62m-4.67-2.78a3.82,3.82,0,0,0-2.94,1.62,8.29,8.29,0,0,0-1.16,4.78c0,.45,0,.88.05,1.28a8.62,8.62,0,0,1,.56-2.49c.07-.27.15-.52.24-.77a9.31,9.31,0,0,1,2.08-3.41,9.43,9.43,0,0,1,1.17-1"/><path class="cls-4" d="M99.17,13.81a5.21,5.21,0,0,0-1.69.26A10.48,10.48,0,0,1,98,17.69c0,.44,0,.87-.06,1.27s.06.82.06,1.27A8.46,8.46,0,0,1,96.87,25a3.55,3.55,0,0,1-.62.71,4.22,4.22,0,0,0,2.92,1l.55,0a8.3,8.3,0,0,0,1.18-1A9.67,9.67,0,0,0,103,22.25a12.47,12.47,0,0,0,.67-3.29,12.72,12.72,0,0,0-.39-2.38,5.24,5.24,0,0,0-.59-1.13,4,4,0,0,0-3.5-1.64m-5.8-4.38a11.63,11.63,0,0,0-4.27.74,9,9,0,0,0-3.12,2,10.11,10.11,0,0,1,.9,4.66v9.92a9.83,9.83,0,0,0,4.85,1.74c-.07-.06-.13-.13-.19-.19a9.46,9.46,0,0,1-2.35-4.58,11,11,0,0,1-.48-3.48c0-.44,0-.86.05-1.26s-.05-.83-.05-1.28a8.29,8.29,0,0,1,1.16-4.78,3.82,3.82,0,0,1,2.94-1.62,9.71,9.71,0,0,1,2.09-1.12,12.47,12.47,0,0,1,1.39-.43,13,13,0,0,0-2.92-.31"/><path class="cls-5" d="M103.24,24a5.33,5.33,0,0,1-.57,1.09,3.79,3.79,0,0,1-3,1.66,9.22,9.22,0,0,1-2.08,1.12,11.63,11.63,0,0,1-4.27.75,14.36,14.36,0,0,1-1.64-.09,8.92,8.92,0,0,0,4.45,2.32,9.88,9.88,0,0,0,1.46-.44,8.88,8.88,0,0,0,3.26-2.15A9.67,9.67,0,0,0,103,24.79c.09-.27.18-.55.26-.84M93.37,11.27l-.56,0a9.43,9.43,0,0,0-1.17,1,9.31,9.31,0,0,0-2.08,3.41c-.09.25-.17.5-.24.77a4.81,4.81,0,0,1,.55-1,4,4,0,0,1,3.5-1.64,4.2,4.2,0,0,1,2.9,1,3.58,3.58,0,0,1,1.21-.71,5.53,5.53,0,0,0-.61-1.16,4,4,0,0,0-3.5-1.64"/><path class="cls-4" d="M89.19,23.71a9.46,9.46,0,0,0,2.35,4.58c.06.06.12.13.19.19a14.36,14.36,0,0,0,1.64.09,11.63,11.63,0,0,0,4.27-.75,9.22,9.22,0,0,0,2.08-1.12l-.55,0a4.22,4.22,0,0,1-2.92-1,4.17,4.17,0,0,1-2.88,1,4,4,0,0,1-3.52-1.66,5.65,5.65,0,0,1-.66-1.35m7.1-14a12.47,12.47,0,0,0-1.39.43,9.71,9.71,0,0,0-2.09,1.12l.56,0a4,4,0,0,1,3.5,1.64,5.53,5.53,0,0,1,.61,1.16,5.21,5.21,0,0,1,1.69-.26,4,4,0,0,1,3.5,1.64,5.24,5.24,0,0,1,.59,1.13c-.08-.3-.16-.59-.26-.87a8.84,8.84,0,0,0-5.33-5.54,11.69,11.69,0,0,0-1.38-.43"/><path class="cls-5" d="M83.08,19c0,.4,0,.81,0,1.23q0,5.23,2.7,8.06a7.64,7.64,0,0,0,1.14,1V26.74a7.64,7.64,0,0,1-1.14-1A10.5,10.5,0,0,1,83.08,19"/><path class="cls-4" d="M86,12.16a1.85,1.85,0,0,0-.14.14,9.45,9.45,0,0,0-2.08,3.41A12.47,12.47,0,0,0,83.08,19a10.5,10.5,0,0,0,2.66,6.75,7.64,7.64,0,0,0,1.14,1V16.82a10.11,10.11,0,0,0-.9-4.66"/><path d="M81.08,16.82V27.94H75.6v2.54h5.48V16.82h0M63.55,15.74,63.4,16a7.28,7.28,0,0,1,.15,1.61V15.74m12,0-.15.22a7.32,7.32,0,0,1,.15,1.62V15.73M69,15.41h0V27.94H63.55v2.54H69V18a3.47,3.47,0,0,1,.27-1.36,4.19,4.19,0,0,0-.15-.81,3.4,3.4,0,0,0-.12-.38M57.3,14A4,4,0,0,0,57,15.65V27.94H54.4v2.54H57V18.19a4,4,0,0,1,.32-1.63V14M62.62,12v.83c.1-.16.21-.32.32-.47l-.11-.15a2.08,2.08,0,0,0-.21-.21m10.74-.48A5.11,5.11,0,0,1,74.12,13a10.23,10.23,0,0,1,.7-.85,1.89,1.89,0,0,0-.74-.48,3.4,3.4,0,0,0-.72-.14"/><path class="cls-4" d="M66.84,14a4,4,0,0,0-1.5.28,3.9,3.9,0,0,0-1.35.94,3.67,3.67,0,0,0-.44.52v1.83h0V27.94H69V15.42h0a2.57,2.57,0,0,0-.4-.7,1.86,1.86,0,0,0-.81-.55,3.19,3.19,0,0,0-1-.16M78.9,14a4.1,4.1,0,0,0-1.51.28,3.9,3.9,0,0,0-1.35.94,5.37,5.37,0,0,0-.44.51v1.84h0V27.94h5.48V16.82c0-.56,0-1.08-.07-1.58a2.67,2.67,0,0,0-.33-.53,1.83,1.83,0,0,0-.8-.55,3.24,3.24,0,0,0-1-.16M56.82,10.05H54.4V27.94H57V15.65A4,4,0,0,1,57.3,14V12.13a8,8,0,0,0-.48.66V10.25h0v-.2m5.87-.62a6.58,6.58,0,0,0-2.82.62h2.75V12a2.08,2.08,0,0,1,.21.21l.11.15a7.32,7.32,0,0,1,2.34-2.07q.24-.13.48-.24a7.31,7.31,0,0,0-3.07-.58m12,0a7.31,7.31,0,0,0-3.07.64,4.17,4.17,0,0,1,.46.26,4.5,4.5,0,0,1,1.23,1.15,3.4,3.4,0,0,1,.72.14,1.89,1.89,0,0,1,.74.48,8.11,8.11,0,0,1,2.28-1.85c.21-.11.42-.21.64-.3a7.78,7.78,0,0,0-3-.52"/><path class="cls-5" d="M61.05,11.47a4.1,4.1,0,0,0-1.51.27A4.37,4.37,0,0,0,57.31,14v2.54a4,4,0,0,1,.88-1.31,3.9,3.9,0,0,1,1.35-.94A4.1,4.1,0,0,1,61.05,14a3.18,3.18,0,0,1,1,.16,1.86,1.86,0,0,1,.81.55,2.86,2.86,0,0,1,.52,1.08.84.84,0,0,1,0,.17l.15-.22V15a6.61,6.61,0,0,0-.2-1.78,3,3,0,0,0-.41-.93c-.11.15-.22.31-.32.47V12a1.87,1.87,0,0,0-.6-.34,3.17,3.17,0,0,0-1-.15m12,0a4.1,4.1,0,0,0-1.51.27,4.25,4.25,0,0,0-1.35.94,4.41,4.41,0,0,0-.88,1.25A3.44,3.44,0,0,0,69,15.41a3.4,3.4,0,0,1,.12.38,4.19,4.19,0,0,1,.15.81l.06-.13a4.41,4.41,0,0,1,.88-1.25A3.77,3.77,0,0,1,73.1,14a3.24,3.24,0,0,1,1,.16,1.83,1.83,0,0,1,.8.55,2.87,2.87,0,0,1,.53,1.08c0,.05,0,.1,0,.16l.15-.22V15a6.67,6.67,0,0,0-.19-1.78,2.87,2.87,0,0,0-.53-1.08l-.06-.07a10.23,10.23,0,0,0-.7.85,5.11,5.11,0,0,0-.76-1.47H73.1"/><path class="cls-4" d="M62.62,10.05H59.87l-.39.2a6.87,6.87,0,0,0-2.18,1.88V14a4.37,4.37,0,0,1,2.23-2.25,4.1,4.1,0,0,1,1.51-.27,3.17,3.17,0,0,1,1,.15,1.87,1.87,0,0,1,.6.34V10.05m3.14,0q-.24.11-.48.24a7.32,7.32,0,0,0-2.34,2.07,3,3,0,0,1,.41.93,6.61,6.61,0,0,1,.2,1.78v.71a3.67,3.67,0,0,1,.44-.52,3.9,3.9,0,0,1,1.35-.94,4,4,0,0,1,1.5-.28,3.19,3.19,0,0,1,1,.16,1.86,1.86,0,0,1,.81.55,2.57,2.57,0,0,1,.4.7,3.44,3.44,0,0,1,.33-1.48,4.41,4.41,0,0,1,.88-1.25,4.25,4.25,0,0,1,1.35-.94,4.1,4.1,0,0,1,1.51-.27h.26a4.5,4.5,0,0,0-1.23-1.15,4.17,4.17,0,0,0-.46-.26,2.53,2.53,0,0,0-.37.18,9.16,9.16,0,0,0-3,2.7,4.82,4.82,0,0,0-2-2.62,5.24,5.24,0,0,0-.57-.32m12-.06c-.22.09-.43.19-.64.3a8.11,8.11,0,0,0-2.28,1.85l.06.07a2.87,2.87,0,0,1,.53,1.08A6.67,6.67,0,0,1,75.6,15v.7a5.37,5.37,0,0,1,.44-.51,3.9,3.9,0,0,1,1.35-.94A4.1,4.1,0,0,1,78.9,14a3.24,3.24,0,0,1,1,.16,1.83,1.83,0,0,1,.8.55,2.67,2.67,0,0,1,.33.53,6.94,6.94,0,0,0-1.51-4.07A4.88,4.88,0,0,0,77.74,10"/><polyline class="cls-5" points="54.4 27.94 51.5 27.94 51.5 30.48 54.4 30.48 54.4 27.94"/><polyline class="cls-4" points="54.4 10.05 51.5 10.05 51.5 27.94 54.4 27.94 54.4 10.05"/><path d="M40.42,28.56a10.43,10.43,0,0,1-2.08,1.57,5.18,5.18,0,0,1-.75.35h2.83V28.56M27,28.31l1,2.17H25.56l.48.16a9.62,9.62,0,0,0,2.61.35,9.18,9.18,0,0,0,2.93-.43,6.15,6.15,0,0,1-1.89-1,5.25,5.25,0,0,1-1-1.09h0A9.87,9.87,0,0,1,27,28.31m8.27-2.95a12,12,0,0,1-1.14,1.12,2.89,2.89,0,0,0,1.14.37V25.36M32,19a11.64,11.64,0,0,0-2,.3,4.71,4.71,0,0,0-1.63.69,2,2,0,0,0-.76,1,3.57,3.57,0,0,0-.2,1.21,2.15,2.15,0,0,0,.29,1.12,1.8,1.8,0,0,1,.31-.43,4.63,4.63,0,0,1,.66-1.4,6.32,6.32,0,0,1,2.47-2.07A8.47,8.47,0,0,1,32,19m3.22-5a2.76,2.76,0,0,0-.68.53,2.35,2.35,0,0,1,.46.77h.23v-1a2.44,2.44,0,0,0,0-.27m-3.75-3c-2,.07-3.14.89-3.44,2.46l-1.57-.15a8.13,8.13,0,0,1-.77,2.26l-.11.2,2.28.22.18,0a2.71,2.71,0,0,1,1.11-1.77A6,6,0,0,1,31.42,11"/><path class="cls-4" d="M40.42,21.39l-1.91.09a14,14,0,0,0-2.77.35l-.6.18v.41a4,4,0,0,1-1.66,3.46,2.1,2.1,0,0,0,.38.41,2.48,2.48,0,0,0,.26.19,12,12,0,0,0,1.14-1.12v1.49a4.8,4.8,0,0,0,.55,0,5.71,5.71,0,0,0,3.45-1,4.18,4.18,0,0,0,1.16-1.31v-3.2M28,15.91l-.18,0H28v-.05M37.5,13.5a5.05,5.05,0,0,0-2.33.47,2.44,2.44,0,0,1,0,.27v1H35a4.48,4.48,0,0,1,.23,1.51v1l-2.62.12a30.77,30.77,0,0,0-3.86.39,12.33,12.33,0,0,0-3.42,1.06,6.39,6.39,0,0,0-1.91,1.39L27,28.31a9.87,9.87,0,0,0,1.66.14h0a6.32,6.32,0,0,1-.46-.81A6,6,0,0,1,27.74,26a2,2,0,0,1-.39-1.27,3.63,3.63,0,0,1,.2-1.22.88.88,0,0,1,.09-.2,2.15,2.15,0,0,1-.29-1.12,3.57,3.57,0,0,1,.2-1.21,2,2,0,0,1,.76-1,4.71,4.71,0,0,1,1.63-.69,11.64,11.64,0,0,1,2-.3,13.23,13.23,0,0,1,2.55-.68,30.77,30.77,0,0,1,3.86-.39l2.06-.09v-.26A12,12,0,0,0,40,14.23l-.05,0a4.22,4.22,0,0,0-2.44-.7M31.89,9.43a12.59,12.59,0,0,0-5.29,1c0,.2,0,.39,0,.58a11.63,11.63,0,0,1-.21,2.28l1.57.15c.3-1.57,1.45-2.39,3.44-2.46l.17-.11a9.13,9.13,0,0,1,3.14-1.17,14.43,14.43,0,0,0-2.84-.25"/><path class="cls-5" d="M22,23.61a8.49,8.49,0,0,0-.1,1.27,6.47,6.47,0,0,0,.55,2.76,5.48,5.48,0,0,0,1.47,1.9,5.82,5.82,0,0,0,1.67.94H28l-1-2.17A7.66,7.66,0,0,1,26,28.1,6,6,0,0,1,23.89,27a5.39,5.39,0,0,1-1.47-1.9A5.53,5.53,0,0,1,22,23.61M23.78,13A8.09,8.09,0,0,0,23,15.49l2.56.24.11-.2a8.13,8.13,0,0,0,.77-2.26L23.78,13"/><path class="cls-4" d="M23.37,20.76a7.5,7.5,0,0,0-.56.68A5.25,5.25,0,0,0,22,23.61a5.53,5.53,0,0,0,.45,1.49A5.39,5.39,0,0,0,23.89,27,6,6,0,0,0,26,28.1a7.66,7.66,0,0,0,.95.21l-3.62-7.55M26.6,10.41a7.73,7.73,0,0,0-.81.44,5.78,5.78,0,0,0-2,2.18l2.63.24A11.63,11.63,0,0,0,26.62,11c0-.19,0-.38,0-.58"/><path class="cls-5" d="M34.12,26.48a10.71,10.71,0,0,1-1.58,1.11,7.82,7.82,0,0,1-3.86.86,5.25,5.25,0,0,0,1,1.09,6.15,6.15,0,0,0,1.89,1,6.05,6.05,0,0,0,1-.43,11,11,0,0,0,2.72-2.23v-1a2.89,2.89,0,0,1-1.14-.37m6.3-1.89h0v3.35H35.26v2.54h2.33a5.18,5.18,0,0,0,.75-.35,10.43,10.43,0,0,0,2.08-1.57v-4m-5.28-5.77-2.43.12L32,19a8.47,8.47,0,0,0-.87.38,6.32,6.32,0,0,0-2.47,2.07,4.63,4.63,0,0,0-.66,1.4,1.87,1.87,0,0,1,.36-.32,4.71,4.71,0,0,1,1.63-.69,14,14,0,0,1,2.77-.35l2.22-.11a4.83,4.83,0,0,0,.21-1.49V18.82M31.7,11h-.28a6,6,0,0,0-2.32,3.18,4.55,4.55,0,0,1,2.6-.64,4.22,4.22,0,0,1,2.44.7,2,2,0,0,1,.35.3,2.76,2.76,0,0,1,.68-.53,2.74,2.74,0,0,0-1-2.31A4.22,4.22,0,0,0,31.7,11"/><path class="cls-4" d="M33.48,25.88l0,0a5.71,5.71,0,0,1-3.45,1,3,3,0,0,1-2-.59,2,2,0,0,1-.32-.33,6,6,0,0,0,.48,1.68,6.32,6.32,0,0,0,.46.81,7.82,7.82,0,0,0,3.86-.86,10.71,10.71,0,0,0,1.58-1.11,2.48,2.48,0,0,1-.26-.19,2.1,2.1,0,0,1-.38-.41m6.94-1.29a4.18,4.18,0,0,1-1.16,1.31,5.71,5.71,0,0,1-3.45,1,4.8,4.8,0,0,1-.55,0v1h0v0h5.16V24.59m0-6.76-2.06.09a30.77,30.77,0,0,0-3.86.39A13.23,13.23,0,0,0,32,19l.76,0,2.43-.12v1.06a4.83,4.83,0,0,1-.21,1.49h.21V22l.6-.18a14,14,0,0,1,2.77-.35l1.91-.09V17.83M34.73,9.68a9.13,9.13,0,0,0-3.14,1.17l-.17.11h.28a4.22,4.22,0,0,1,2.44.7,2.74,2.74,0,0,1,1,2.31,5.05,5.05,0,0,1,2.33-.47,4.22,4.22,0,0,1,2.44.7l.05,0,0-.05a6.32,6.32,0,0,0-1.44-2.56A6.45,6.45,0,0,0,35.88,10a9.16,9.16,0,0,0-1.15-.31"/><polyline points="48.6 10.05 48.6 10.05 48.6 27.94 46.22 27.94 46.22 30.48 48.6 30.48 48.6 10.05"/><path class="cls-4" d="M48.6,10.05H43.12v.61a5.45,5.45,0,0,1,1.21,1,6.32,6.32,0,0,1,1.44,2.56,11.84,11.84,0,0,1,.45,3.39V27.94H48.6V10.05"/><polyline class="cls-5" points="46.22 27.94 43.12 27.94 43.12 30.48 46.22 30.48 46.22 27.94"/><path class="cls-4" d="M43.12,10.66V27.94h3.1V17.57a11.84,11.84,0,0,0-.45-3.39,6.32,6.32,0,0,0-1.44-2.56,5.45,5.45,0,0,0-1.21-1"/><path d="M5.8,60.55H0v2.54H5.8V60.55m15.29-7.13a10.06,10.06,0,0,1-.45,2,6.34,6.34,0,0,1-1.76,2.69l-.18.17h0a4,4,0,0,0,1.55-.8,3,3,0,0,0,.74-1,10.78,10.78,0,0,0,.15-1.81,9.36,9.36,0,0,0-.08-1.18m-5.67-2.5h-4a4.62,4.62,0,0,1,3.13.94,3,3,0,0,1,.83,1.49,5.19,5.19,0,0,0,.15-1.29,5,5,0,0,0-.12-1.14M5.8,48.38H5.63v2.54H5.8V48.38M20.3,41.5a6.43,6.43,0,0,1-.58,1.75,5.71,5.71,0,0,1-2.66,2.47l.74.42a3.25,3.25,0,0,0,1.89-.78,2.23,2.23,0,0,0,.42-.55,7,7,0,0,0,.32-2.11c0-.34,0-.67-.05-1a1.31,1.31,0,0,0-.08-.21m-5.59-1.77H11.43v.07a5.27,5.27,0,0,1,2.21.65,2.33,2.33,0,0,1,.93,1.22,4.37,4.37,0,0,0,.18-1.31,4.26,4.26,0,0,0,0-.63M5.8,37.19H5.63v2.54H5.8V37.19"/><path class="cls-4" d="M16.91,50.92H15.42a5,5,0,0,1,.12,1.14,5.19,5.19,0,0,1-.15,1.29,4.81,4.81,0,0,1,.15,1.25,4.94,4.94,0,0,1-.24,1.6,3,3,0,0,1-.82,1.24,4,4,0,0,1-1.55.8,7.36,7.36,0,0,1-1.5.24v0h4.9a9.3,9.3,0,0,0,2.37-.26l.18-.17a6.34,6.34,0,0,0,1.76-2.69,10.06,10.06,0,0,0,.45-2c0-.18-.06-.36-.1-.54a1.42,1.42,0,0,0,0-.2,2.86,2.86,0,0,0-.59-.82,5,5,0,0,0-3.45-.94M15.66,39.73h-.95a4.26,4.26,0,0,1,0,.63,4.37,4.37,0,0,1-.18,1.31,3.88,3.88,0,0,1,.18,1.23,3.29,3.29,0,0,1-.86,2.46,3.8,3.8,0,0,1-2.46.84v0h5.09a8.36,8.36,0,0,0,1.28-.08l-.74-.42a5.71,5.71,0,0,0,2.66-2.47,6.43,6.43,0,0,0,.58-1.75,2.27,2.27,0,0,0-.86-1,7.35,7.35,0,0,0-3.78-.72m-5.6-4.58H0v25.4H5.8v-2H5.63V48.38H5.8V46.22H5.63v-9H5.8v-2h4.26"/><path class="cls-5" d="M21,56.41a3,3,0,0,1-.74,1,4,4,0,0,1-1.55.8h0a9.19,9.19,0,0,1-3,1.64,15.85,15.85,0,0,1-4.93.66H5.8v2.54h4.92a15.54,15.54,0,0,0,4.93-.67,8.71,8.71,0,0,0,3.23-1.8,6.31,6.31,0,0,0,1.76-2.7A8.56,8.56,0,0,0,21,56.41m-9.91-8H5.8v2.54h9.62a3.15,3.15,0,0,0-.86-1.6,5,5,0,0,0-3.45-.94m9-3.57a2.23,2.23,0,0,1-.42.55,3.25,3.25,0,0,1-1.89.78,9.35,9.35,0,0,1,1.11.79,4,4,0,0,0,.81-1.14,6.25,6.25,0,0,0,.39-1m.23-3.5a1.06,1.06,0,0,1,0,.19,1.31,1.31,0,0,1,.08.21c0-.14,0-.27,0-.4M9.86,37.19H5.8v2.54H9.86a15,15,0,0,1,1.57.07v-.07h3.28a2.47,2.47,0,0,0-1.07-1.82,7.32,7.32,0,0,0-3.78-.72"/><path class="cls-4" d="M18.7,58.25a9.3,9.3,0,0,1-2.37.26h-4.9v0q-.42,0-.9,0H5.8v2h4.92a15.85,15.85,0,0,0,4.93-.66,9.19,9.19,0,0,0,3-1.64m-.9-12.11a8.36,8.36,0,0,1-1.28.08H11.43v0c-.22,0-.46,0-.71,0H5.8v2.16h5.31a5,5,0,0,1,3.45.94,3.15,3.15,0,0,1,.86,1.6h1.49a5,5,0,0,1,3.45.94,2.86,2.86,0,0,1,.59.82,6.38,6.38,0,0,0-.58-1.49,6.09,6.09,0,0,0-1.25-1.54,9.83,9.83,0,0,0-2.06-1.39,7.16,7.16,0,0,0,1.85-1.33,9.35,9.35,0,0,0-1.11-.79m-7.74-11H5.8v2H9.86a7.32,7.32,0,0,1,3.78.72,2.47,2.47,0,0,1,1.07,1.82h.95a7.35,7.35,0,0,1,3.78.72,2.27,2.27,0,0,1,.86,1,1.06,1.06,0,0,0,0-.19A9.84,9.84,0,0,0,20,39.73a5.26,5.26,0,0,0-1.63-2.39,8.29,8.29,0,0,0-3.19-1.6,18.22,18.22,0,0,0-5.1-.59"/><path d="M46.81,59.4v2.54a6.89,6.89,0,0,0,4.92,1.54,15,15,0,0,0,2.06-.14,10.39,10.39,0,0,0,1.07-.18,5.28,5.28,0,0,1-2.32-1.28,4.55,4.55,0,0,1-.71-.94h-.1a6.89,6.89,0,0,1-4.92-1.54"/><path class="cls-4" d="M50.6,37.22H45.12v5.44h1.69V59.4a6.89,6.89,0,0,0,4.92,1.54h.1A7.37,7.37,0,0,1,51,58.26a3.43,3.43,0,0,1-.42-1.9V53.82h0V46.93H47.71V42.66H50.6V37.22"/><path class="cls-5" d="M55.53,60.45a11.17,11.17,0,0,1-1.74.35,15.06,15.06,0,0,1-2,.14,4.55,4.55,0,0,0,.71.94,5.28,5.28,0,0,0,2.32,1.28c.37-.08.75-.19,1.14-.3l-.47-2.41m-.24-17.79h0v1.73H50.6v2.54h4.69V42.66"/><path class="cls-4" d="M51,58.26a7.37,7.37,0,0,0,.81,2.68,15.06,15.06,0,0,0,2-.14,11.17,11.17,0,0,0,1.74-.35l-.31-1.63A6.16,6.16,0,0,1,54.1,59,10.65,10.65,0,0,1,53,59.1a2.57,2.57,0,0,1-1.72-.57,1.05,1.05,0,0,1-.24-.27m4.27-15.6H47.71v4.27H50.6V44.39h4.69V42.66"/><path class="cls-5" d="M45.12,53.94v2.54q0,3.8,1.62,5.4l.07.06V59.4l-.07-.06q-1.62-1.61-1.62-5.4m0-9.55H41.91v2.54h3.21V44.39"/><path class="cls-4" d="M46.81,42.66h-4.9v1.73h3.21v9.55q0,3.8,1.62,5.4l.07.06V42.66"/><path d="M107.89,61.17a10.49,10.49,0,0,1-2.09,1.57,5.6,5.6,0,0,1-.74.35h2.83V61.17M102.72,58a10.93,10.93,0,0,1-1.14,1.12,3,3,0,0,0,1.14.37V58M89.43,56.22a8.53,8.53,0,0,0-.09,1.27,6.32,6.32,0,0,0,.55,2.76,5.26,5.26,0,0,0,1.46,1.9,6,6,0,0,0,2.16,1.1,9.55,9.55,0,0,0,2.6.35,9.29,9.29,0,0,0,2.94-.43,6.09,6.09,0,0,1-1.9-1,5,5,0,0,1-1-1.09h0a9.55,9.55,0,0,1-2.6-.35,6,6,0,0,1-2.16-1.1,5.26,5.26,0,0,1-1.46-1.9,5.2,5.2,0,0,1-.46-1.49m10-4.62a11.62,11.62,0,0,0-2,.3,4.65,4.65,0,0,0-1.62.69,2,2,0,0,0-.77,1,3.57,3.57,0,0,0-.19,1.21,2.14,2.14,0,0,0,.28,1.12,1.8,1.8,0,0,1,.31-.43,4.65,4.65,0,0,1,.67-1.4A6.22,6.22,0,0,1,98.54,52a8.64,8.64,0,0,1,.88-.38m3.22-5a2.64,2.64,0,0,0-.69.53,2.19,2.19,0,0,1,.46.77h.23V46.58m-3.75-3a3.48,3.48,0,0,0-3,1.35l-.34,2.56a9.53,9.53,0,0,0-2.31-.24,6.49,6.49,0,0,0-1.72.22,3.26,3.26,0,0,0-1,.45,1.29,1.29,0,0,1,0,.19l4.85.46.17,0a2.68,2.68,0,0,1,1.12-1.77,6,6,0,0,1,2.32-3.18"/><path class="cls-4" d="M107.89,54l-1.91.09a14,14,0,0,0-2.78.35l-.6.18V55a4.17,4.17,0,0,1-.47,2.09A4.23,4.23,0,0,1,101,58.49a1.79,1.79,0,0,0,.37.41,2.48,2.48,0,0,0,.26.19A10.93,10.93,0,0,0,102.72,58v1.49a5,5,0,0,0,.56,0,5.68,5.68,0,0,0,3.44-1,4.34,4.34,0,0,0,1.17-1.31V54M95.45,48.52l-.17,0h.16v0M105,46.11a5,5,0,0,0-2.32.47v1.29h-.23a4.25,4.25,0,0,1,.23,1.51v1l-2.62.12a30.61,30.61,0,0,0-3.85.39A12.3,12.3,0,0,0,92.74,52a6.29,6.29,0,0,0-2.46,2.07,5.12,5.12,0,0,0-.85,2.17,5.2,5.2,0,0,0,.46,1.49,5.26,5.26,0,0,0,1.46,1.9,6,6,0,0,0,2.16,1.1,9.55,9.55,0,0,0,2.6.35h0a6.36,6.36,0,0,1-.47-.81,5.59,5.59,0,0,1-.47-1.68,2,2,0,0,1-.39-1.27A3.63,3.63,0,0,1,95,56.08l.09-.2a2.14,2.14,0,0,1-.28-1.12A3.57,3.57,0,0,1,95,53.55a2,2,0,0,1,.77-1,4.65,4.65,0,0,1,1.62-.69,11.62,11.62,0,0,1,2-.3,12.85,12.85,0,0,1,2.55-.68,30.61,30.61,0,0,1,3.85-.39l2.07-.09v-.26a12,12,0,0,0-.44-3.34l0,0a4.27,4.27,0,0,0-2.45-.7M99.36,42a15,15,0,0,0-3.6.39l.43.08-.32,2.41a3.48,3.48,0,0,1,3-1.35l.16-.11a9.13,9.13,0,0,1,3.14-1.17A14.32,14.32,0,0,0,99.36,42"/><path class="cls-5" d="M101.58,59.09A10.2,10.2,0,0,1,100,60.2a7.78,7.78,0,0,1-3.85.86,5,5,0,0,0,1,1.09,6.09,6.09,0,0,0,1.9,1,5.49,5.49,0,0,0,1-.43,10.87,10.87,0,0,0,2.72-2.23v-1a3,3,0,0,1-1.14-.37m6.31-1.89h0v3.35h-5.17v2.54h2.34a5.6,5.6,0,0,0,.74-.35,10.49,10.49,0,0,0,2.09-1.57v-4m-5.29-5.77-2.42.12-.76.05a8.64,8.64,0,0,0-.88.38,6.22,6.22,0,0,0-2.46,2.07,4.65,4.65,0,0,0-.67,1.4,1.94,1.94,0,0,1,.37-.32,4.65,4.65,0,0,1,1.62-.69,14,14,0,0,1,2.78-.35l2.21-.11a4.83,4.83,0,0,0,.21-1.49V51.43m-3.44-7.86h-.27a6,6,0,0,0-2.32,3.18,4.49,4.49,0,0,1,2.59-.64,4.27,4.27,0,0,1,2.45.7,1.92,1.92,0,0,1,.34.3,2.64,2.64,0,0,1,.69-.53,2.76,2.76,0,0,0-1-2.31,4.27,4.27,0,0,0-2.45-.7"/><path class="cls-4" d="M101,58.49l0,0a5.68,5.68,0,0,1-3.44,1,3,3,0,0,1-2-.59,1.93,1.93,0,0,1-.31-.33,5.59,5.59,0,0,0,.47,1.68,6.36,6.36,0,0,0,.47.81A7.78,7.78,0,0,0,100,60.2a10.2,10.2,0,0,0,1.58-1.11,2.48,2.48,0,0,1-.26-.19,1.79,1.79,0,0,1-.37-.41m6.94-1.29a4.34,4.34,0,0,1-1.17,1.31,5.68,5.68,0,0,1-3.44,1,5,5,0,0,1-.56,0v1h0v0h5.17V57.2m0-6.76-2.07.09a30.61,30.61,0,0,0-3.85.39,12.85,12.85,0,0,0-2.55.68l.76-.05,2.42-.12v1.06a4.83,4.83,0,0,1-.21,1.49h.21v.65l.6-.18a14,14,0,0,1,2.78-.35l1.91-.09V50.44m-5.7-8.15a9.13,9.13,0,0,0-3.14,1.17l-.16.11h.27a4.27,4.27,0,0,1,2.45.7,2.76,2.76,0,0,1,1,2.31,5,5,0,0,1,2.32-.47,4.27,4.27,0,0,1,2.45.7l0,0v-.05A6.34,6.34,0,0,0,106,44.23a6.48,6.48,0,0,0-2.64-1.63,11.47,11.47,0,0,0-1.16-.31"/><path class="cls-5" d="M95.87,44.92A3.22,3.22,0,0,0,95.44,46l-4.2-.39a8,8,0,0,0-.77,2.27,3.26,3.26,0,0,1,1-.45,6.49,6.49,0,0,1,1.72-.22,9.53,9.53,0,0,1,2.31.24l.34-2.56"/><path class="cls-4" d="M95.76,42.43a8.75,8.75,0,0,0-2.51,1,5.78,5.78,0,0,0-2,2.18l4.2.39a3.22,3.22,0,0,1,.43-1.11l.32-2.41-.43-.08"/><path d="M61.33,60.46l.47,2.4-.48.13a12.56,12.56,0,0,0,4.5.73,15.53,15.53,0,0,0,2.94-.26,8.61,8.61,0,0,1-4.61-2.37,11,11,0,0,1-2.82-.63M75,56.71h-.73a7,7,0,0,1-2,2.69l0,0a3.63,3.63,0,0,0,2.37-1A10.3,10.3,0,0,0,75,56.71M56.4,55.39v1a2.8,2.8,0,0,0,.66,2.17,2.55,2.55,0,0,0,1.72.57h.16a8.5,8.5,0,0,1-2.54-3.71m5.05-3.72h-.37a7.75,7.75,0,0,0,.35,2.16c0-.3,0-.6,0-.91s0-.85,0-1.25m8.33-5.25-.2.08a4.71,4.71,0,0,0-.93.54l.28.28a3.3,3.3,0,0,1,.51.75H70a6.93,6.93,0,0,0-.19-1.65M65.7,43.61a4.69,4.69,0,0,0-1.91.35,3.84,3.84,0,0,0-1.39,1,4.1,4.1,0,0,0-.88,1.41,5.39,5.39,0,0,0-.36,1.74h.76a4,4,0,0,1,.48-.61,1,1,0,0,1,.21-.21,9.44,9.44,0,0,1,1.63-2.36,8.31,8.31,0,0,1,1.56-1.28h-.1"/><path class="cls-4" d="M74.29,56.71h-4.6a3.37,3.37,0,0,1-1,1.87,4.71,4.71,0,0,0,3,.87l.56,0,0,0a7,7,0,0,0,2-2.69M71.5,46.15a5,5,0,0,0-1.72.27A6.93,6.93,0,0,1,70,48.07h-.53A5.52,5.52,0,0,1,70,50.61h5.22a11.35,11.35,0,0,0-.92-3.71,4.58,4.58,0,0,0-2.77-.75M65.82,42a11.52,11.52,0,0,0-4.15.72l-.58.25v3.92H57a12.05,12.05,0,0,0-.57,1.26v7.2a8.5,8.5,0,0,0,2.54,3.71c.32,0,.63,0,1-.06A5.9,5.9,0,0,0,61,58.82l.32,1.64a11,11,0,0,0,2.82.63L64,60.9a9.16,9.16,0,0,1-1.81-3.06,6.3,6.3,0,0,1-1.08-3.63h.37c0-.13,0-.25,0-.38a7.75,7.75,0,0,1-.35-2.16h.37c0-.37.07-.72.12-1.06h-.41a5.39,5.39,0,0,1,.36-1.74,4.27,4.27,0,0,1,.4-.8h-.76a5.39,5.39,0,0,1,.36-1.74,4.1,4.1,0,0,1,.88-1.41,3.84,3.84,0,0,1,1.39-1,4.69,4.69,0,0,1,1.91-.35h.1a8.74,8.74,0,0,1,1.67-.85,9.47,9.47,0,0,1,1.31-.4,12.44,12.44,0,0,0-3-.32"/><path class="cls-5" d="M55.65,51.69c0,.4,0,.81,0,1.23q0,5.16,2.56,8A7.75,7.75,0,0,0,61.32,63l.48-.13-.47-2.4a8.35,8.35,0,0,1-2.39-1.36h-.16a2.55,2.55,0,0,1-1.72-.57,2.8,2.8,0,0,1-.66-2.17v-1a13.26,13.26,0,0,1-.75-3.7"/><path class="cls-4" d="M61,58.82A5.9,5.9,0,0,1,59.9,59c-.33,0-.64.05-1,.06a8.35,8.35,0,0,0,2.39,1.36L61,58.82M56.4,48.19s0,.09,0,.13a12.06,12.06,0,0,0-.7,3.37,13.26,13.26,0,0,0,.75,3.7v-7.2M61.09,43a8.58,8.58,0,0,0-2.65,1.88,9.48,9.48,0,0,0-1.47,2h4.12V43"/><path class="cls-5" d="M74.59,58.47a3.63,3.63,0,0,1-2.37,1,10.18,10.18,0,0,1-6.4,1.75,14.9,14.9,0,0,1-1.67-.09,8.61,8.61,0,0,0,4.61,2.37,8.09,8.09,0,0,0,3.5-1.52,7.31,7.31,0,0,0,2.33-3.47m.66-6.8H61.45c0,.4,0,.82,0,1.25s0,.61,0,.91c0,.13.08.25.13.38h8.13v0H75v0h.24V51.67M65.8,43.61a8.31,8.31,0,0,0-1.56,1.28,9.44,9.44,0,0,0-1.63,2.36,4,4,0,0,1,1.18-.75,4.69,4.69,0,0,1,1.91-.35,4.35,4.35,0,0,1,3,.89,4.71,4.71,0,0,1,.93-.54l.2-.08a3.63,3.63,0,0,0-4-2.81"/><path class="cls-4" d="M62.16,57.84A9.16,9.16,0,0,0,64,60.9l.18.19a14.9,14.9,0,0,0,1.67.09,10.18,10.18,0,0,0,6.4-1.75l-.56,0a4.71,4.71,0,0,1-3-.87,4.14,4.14,0,0,1-2.82.87,4.33,4.33,0,0,1-3.52-1.39l-.18-.22M75,54.17H69.69v0H75v0m-13.59-.34c0,.13,0,.25,0,.38h.11c-.05-.13-.09-.25-.13-.38m13.76-3.22H61.57c0,.34-.09.69-.12,1.06h13.8c0-.37,0-.72-.06-1.06m-6.41-8.25a9.47,9.47,0,0,0-1.31.4,8.74,8.74,0,0,0-1.67.85,3.63,3.63,0,0,1,4,2.81,5,5,0,0,1,1.72-.27,4.58,4.58,0,0,1,2.77.75,8.41,8.41,0,0,0-1.39-2.16,7.59,7.59,0,0,0-4.1-2.38"/><path d="M83.16,47.16a4.08,4.08,0,0,0-.32,1.57V60.55H79.35a6.83,6.83,0,0,1-1.29,1.39,7.18,7.18,0,0,1-.7.48v.67h5.48V51.27a4.08,4.08,0,0,1,.32-1.57V47.16m5.32-2.42v.78A8.34,8.34,0,0,1,89,44.8l-.52-.06m1.58-2.29-.19,1.42.38-.31.15-1.05-.34-.06"/><path class="cls-4" d="M82.69,42.66H77.36v.9a7.06,7.06,0,0,1,1.32,1.18A10.63,10.63,0,0,1,81.05,52v2.19H77.36v2.5h3.46a9,9,0,0,1-1.47,3.84h3.49V48.73a4.08,4.08,0,0,1,.32-1.57V44.84c-.16.21-.32.44-.47.68V43h0v-.32m5.51-.35a6.22,6.22,0,0,0-2,.35h2.33v2.08l.52.06a7,7,0,0,1,.87-.93l.19-1.42-.56-.08a11.46,11.46,0,0,0-1.3-.06"/><path class="cls-5" d="M79.35,60.55h-2v1.87a7.18,7.18,0,0,0,.7-.48,6.83,6.83,0,0,0,1.29-1.39"/><path class="cls-4" d="M80.82,56.71H77.36v3.84h2a9,9,0,0,0,1.47-3.84M77.36,43.56V54.21h3.69V52a10.63,10.63,0,0,0-2.37-7.28,7.06,7.06,0,0,0-1.32-1.18"/><path class="cls-5" d="M90.25,43.56l-.38.31-.14,1.07A5.25,5.25,0,0,0,89,44.8a8.34,8.34,0,0,0-.52.72v-.78c-.32,0-.68,0-1.06,0a6.49,6.49,0,0,0-1.72.22,3.61,3.61,0,0,0-1.49.8,3.94,3.94,0,0,0-1,1.41l0,0V49.7l0,0a3.94,3.94,0,0,1,1-1.41,3.61,3.61,0,0,1,1.49-.8,6.49,6.49,0,0,1,1.72-.22,9.53,9.53,0,0,1,2.31.24l.52-3.92"/><path class="cls-4" d="M89.87,43.87a7,7,0,0,0-.87.93,5.25,5.25,0,0,1,.73.14l.14-1.07m-1.39-1.21H86.15a6.82,6.82,0,0,0-1,.45,6.63,6.63,0,0,0-2,1.73v2.32l0,0a3.94,3.94,0,0,1,1-1.41,3.61,3.61,0,0,1,1.49-.8,6.49,6.49,0,0,1,1.72-.22c.38,0,.74,0,1.06,0V42.66"/><path d="M41,60.91a7.37,7.37,0,0,1-2.36,2l-.41.2H41V60.91M25.19,60.1a6.26,6.26,0,0,1-.51.52,6.7,6.7,0,0,1-.82.65,5.21,5.21,0,0,0,.48.63c1.1,1.21,2.8,1.82,5.13,1.82a7.23,7.23,0,0,0,2.66-.5,5,5,0,0,1-2-1.32,4.83,4.83,0,0,1-.54-.72h-.13a7.51,7.51,0,0,1-4.28-1.08m10.5-2.37c-.22.31-.44.6-.67.87a2.83,2.83,0,0,0,.67.35V57.73"/><path class="cls-4" d="M28.17,42.66H26.23v0a6.94,6.94,0,0,1-.71,3.09,5.76,5.76,0,0,1-2.66,2.47,9.49,9.49,0,0,1,2.05,1.39,5.93,5.93,0,0,1,1.26,1.54,5.76,5.76,0,0,1,.62,1.69A8.3,8.3,0,0,1,27,54.6a10.36,10.36,0,0,1-.53,3.32,6.23,6.23,0,0,1-1.25,2.18,7.51,7.51,0,0,0,4.28,1.08h.13a8.12,8.12,0,0,1-1-3.35,5.65,5.65,0,0,1-.41-2.41V52.88h0V42.66m12.84,0H35.53V55a3.71,3.71,0,0,1-.37,1.66,4,4,0,0,1-.82,1.15,2,2,0,0,0,.42.61l.26.23c.23-.27.45-.56.67-.87V59a3.81,3.81,0,0,0,1.22.19,4.19,4.19,0,0,0,1.74-.32,4.52,4.52,0,0,0,1.31-.9,4,4,0,0,0,1-1.31,1.17,1.17,0,0,0,0-.11V42.66"/><path class="cls-5" d="M22.7,53.62v2.54a9.41,9.41,0,0,0,1.16,5.11,6.7,6.7,0,0,0,.82-.65,6.26,6.26,0,0,0,.51-.52,5,5,0,0,1-.85-.74c-1.1-1.22-1.64-3.13-1.64-5.74"/><path class="cls-4" d="M26.23,42.66H22.7v11c0,2.61.54,4.52,1.64,5.74a5,5,0,0,0,.85.74,6.23,6.23,0,0,0,1.25-2.18A10.36,10.36,0,0,0,27,54.6a8.3,8.3,0,0,0-.18-1.72,5.76,5.76,0,0,0-.62-1.69,5.93,5.93,0,0,0-1.26-1.54,9.49,9.49,0,0,0-2.05-1.39,5.76,5.76,0,0,0,2.66-2.47,6.94,6.94,0,0,0,.71-3.09v0"/><path class="cls-5" d="M35,58.6a7.13,7.13,0,0,1-5.42,2.58,4.83,4.83,0,0,0,.54.72,5,5,0,0,0,2,1.32,4.69,4.69,0,0,0,.72-.33,7.94,7.94,0,0,0,2.84-2.62V59A2.83,2.83,0,0,1,35,58.6m6-2.1h0v4H35.69v2.54h2.55l.41-.2a7.37,7.37,0,0,0,2.36-2V56.5"/><path class="cls-4" d="M34.34,57.76l-.18.16a4.52,4.52,0,0,1-1.31.9,4.19,4.19,0,0,1-1.74.32A3,3,0,0,1,29,58.37a1.86,1.86,0,0,1-.38-.54,8.12,8.12,0,0,0,1,3.35A7.13,7.13,0,0,0,35,58.6l-.26-.23a2,2,0,0,1-.42-.61M41,56.5a1.17,1.17,0,0,1,0,.11,4,4,0,0,1-1,1.31,4.52,4.52,0,0,1-1.31.9,4.19,4.19,0,0,1-1.74.32A3.81,3.81,0,0,1,35.69,59v1.32h0v.28H41v-4"/></g></g></g></svg>