<svg xmlns="http://www.w3.org/2000/svg" viewBox="0 0 210.51 285.3"><defs><style>.cls-1,.cls-6{fill:#e72260;}.cls-1,.cls-2{opacity:0.4;}.cls-2,.cls-9{fill:#92d2e4;}.cls-3{fill:#bf7d8f;opacity:0.64;}.cls-4{fill:#020000;}.cls-5{fill:#000100;}.cls-7{fill:#93d3e4;}.cls-8{fill:#161616;}.cls-10{fill:#fffdec;}</style></defs><title>RBxo-full</title><g id="Layer_2" data-name="Layer 2"><g id="Layer_1-2" data-name="Layer 1"><g id="Full_Logo" data-name="Full Logo"><path class="cls-1" d="M43.26,244.85l-.09.21a3.57,3.57,0,0,0-.2,1.21,2,2,0,0,0,.39,1.27,9.2,9.2,0,0,1-.06-1.07,7.72,7.72,0,0,1,.11-1.4l-.15-.22m7.5-1.26a5.24,5.24,0,0,0-.66.28,4.37,4.37,0,0,1-1,1.08L49,245l0,.05a3.57,3.57,0,0,0-.2,1.21,2,2,0,0,0,.34,1.19A4.07,4.07,0,0,0,50.76,244v-.41m105.91-3a8,8,0,0,1-.35,2,4.79,4.79,0,0,1-1.15,1.89,4.28,4.28,0,0,1-1.23.78,5.63,5.63,0,0,0,.76,1.47,4.4,4.4,0,0,0,.35.39l.12-.1a4.76,4.76,0,0,0,1.15-1.9,9.18,9.18,0,0,0,.37-2.87v-.71c0-.34,0-.67,0-1m-52.28-.08q-.06.6-.06,1.26a11.06,11.06,0,0,0,.48,3.49,16.44,16.44,0,0,1-.35-3.49c0-.18,0-.36,0-.54s-.06-.47-.08-.72m65.62,0c0,.4,0,.82,0,1.26a11.06,11.06,0,0,0,.48,3.49,15.79,15.79,0,0,1-.36-3.49c0-.18,0-.36,0-.54s-.06-.47-.08-.72m-56.41,0a7.26,7.26,0,0,1-1.11,3.54,3.61,3.61,0,0,1-1.81,1.42,5.32,5.32,0,0,0,.59,1.14,4,4,0,0,0,.6.69,3.55,3.55,0,0,0,.62-.71,8.44,8.44,0,0,0,1.16-4.81c0-.45,0-.87-.05-1.27m65.62,0a7.37,7.37,0,0,1-1.1,3.54,3.65,3.65,0,0,1-1.81,1.42,5.3,5.3,0,0,0,.58,1.14,3.68,3.68,0,0,0,.61.69,3.9,3.9,0,0,0,.62-.71,8.44,8.44,0,0,0,1.15-4.81c0-.45,0-.87-.05-1.27m-31.52,0c0,.38,0,.78,0,1.2a12.68,12.68,0,0,0,.26,2.74,19.17,19.17,0,0,1-.17-2.7c0-.25,0-.5,0-.74s0-.33-.05-.5m36.81-2.37a14.6,14.6,0,0,1,.39,2.38c0-.23,0-.46,0-.69a8.5,8.5,0,0,0-.43-1.69m-65.63,0a12.72,12.72,0,0,1,.39,2.38c0-.23,0-.46,0-.69a7.32,7.32,0,0,0-.43-1.69m21-1.19c.05.5.07,1,.07,1.59v-1.41l-.07-.18m-89.34-.12-1,.05a3.18,3.18,0,0,0-.19.64l-3.88-.36-1.19.17-.72.14v0h-.16a11.52,11.52,0,0,0-2.54.88,6.3,6.3,0,0,0-2.46,2.07c-.07.1-.13.2-.19.3l.74,1.56A6.52,6.52,0,0,1,40.9,241a12.3,12.3,0,0,1,3.43-1.06,30.42,30.42,0,0,1,3.85-.39l2.62-.12v-1a4.54,4.54,0,0,0-.23-1.52m46.06,0a15.71,15.71,0,0,1,.07,1.58V237a.87.87,0,0,0-.07-.17m-41-1a11.83,11.83,0,0,1,.44,3.33v-2.54c0-.12,0-.25,0-.37a1.9,1.9,0,0,0-.43-.42m-34.19-1.64h-.05v2.54h.05v-2.54m9-2.61a1.89,1.89,0,0,0-.05.23,2.89,2.89,0,0,1-.73,1.27,3.59,3.59,0,0,1-1.43.82,5.41,5.41,0,0,1-1,.22v2.54a5.41,5.41,0,0,0,1-.22,3.59,3.59,0,0,0,1.43-.82,2.92,2.92,0,0,0,.73-1.28,6.42,6.42,0,0,0,.19-1.64,4.64,4.64,0,0,0-.14-1.12m33.83-2.47H58.74v3.14h0v-.61h5.48V229.1m8.22,0H67.12v2.53h5.32V229.1m54.36,0h-5.33v4h0v-1.46h5.33V229.1m-79.29-.63a11.76,11.76,0,0,0-5.72,1.21,10.06,10.06,0,0,1,.43,2.32,12.43,12.43,0,0,1,5.29-1,14.36,14.36,0,0,1,2.84.25,15.87,15.87,0,0,1,3-.25c.41,0,.8,0,1.17,0a4.24,4.24,0,0,0-.33-.39A6.57,6.57,0,0,0,51.51,229a12.31,12.31,0,0,0-4-.57m30.8,0a6.67,6.67,0,0,0-3.21.82,7.54,7.54,0,0,0-2.66,2.54v2.54a8,8,0,0,1,.48-.66v-2.08h2.57a6.73,6.73,0,0,1,2.82-.62,7.16,7.16,0,0,1,3.07.59,6.72,6.72,0,0,1,2.14-.57A4.71,4.71,0,0,0,82,229.37a6.66,6.66,0,0,0-3.64-.9m12,0a7.25,7.25,0,0,0-3.44.82A8.34,8.34,0,0,0,84.74,231a6.69,6.69,0,0,1,2.55.62,7.31,7.31,0,0,1,3.07-.64,7.78,7.78,0,0,1,3,.52A7.65,7.65,0,0,1,95.7,231a4.39,4.39,0,0,0-.58-.81,6.12,6.12,0,0,0-4.76-1.74m18.63,0a11.79,11.79,0,0,0-4.26.74,9.07,9.07,0,0,0-3.27,2.14,8.12,8.12,0,0,0-.88,1.06l.34.34a4.69,4.69,0,0,1,.68,1,9.11,9.11,0,0,1,3.13-2A11.79,11.79,0,0,1,109,231a12.39,12.39,0,0,1,2.92.32,12.11,12.11,0,0,1,2.88-.32,14.8,14.8,0,0,1,1.51.08,9.25,9.25,0,0,0-3-1.88,12,12,0,0,0-4.31-.74m24.15,0a7.73,7.73,0,0,0-3.47.82,7.42,7.42,0,0,0-2.87,2.62v2.54c.15-.23.31-.44.47-.65v-2.17h2.83a7.8,7.8,0,0,1,3-.62,9.11,9.11,0,0,1,3.11.48,7.72,7.72,0,0,1,2.6-.48,4.89,4.89,0,0,0-.55-.72,6.71,6.71,0,0,0-5.16-1.82m17.64,0a8.52,8.52,0,0,0-3.71.78,7.69,7.69,0,0,0-2.78,2.21c-.23.3-.45.61-.65.93a4.78,4.78,0,0,1,.46.44,4.64,4.64,0,0,1,.56.74,7.59,7.59,0,0,1,2.41-1.78,8.52,8.52,0,0,1,3.71-.78,8.93,8.93,0,0,1,2.83.47,8.93,8.93,0,0,1,2.94-.47,6.78,6.78,0,0,0-2.73-2,8.76,8.76,0,0,0-3-.55m23.84,0a11.85,11.85,0,0,0-4.27.74,9.38,9.38,0,0,0-2.42,1.37v2.54a9.38,9.38,0,0,1,2.42-1.37,11.85,11.85,0,0,1,4.27-.74,12.3,12.3,0,0,1,2.91.32,12.11,12.11,0,0,1,2.88-.32,14.85,14.85,0,0,1,1.52.08,9.19,9.19,0,0,0-3-1.88,11.93,11.93,0,0,0-4.3-.74m-149.1-6.89h-9.9v2.54h15.7a21.94,21.94,0,0,1,2.93.18,8.88,8.88,0,0,0-3.31-2,16.26,16.26,0,0,0-5.42-.77m38.78,0H58.67v2.54H64.3v-2.54m97.83,0h-5.48V231h0v-6.89h5.48v-2.54"/><path class="cls-1" d="M21.42,277.56h-.16v2.53h.16v-2.53m89.3-.1-.09.21a3.57,3.57,0,0,0-.19,1.21,2,2,0,0,0,.39,1.27,7.4,7.4,0,0,1-.07-1.07,7.69,7.69,0,0,1,.12-1.4,1.77,1.77,0,0,1-.16-.22m7.51-1.26a6.16,6.16,0,0,0-.67.28,4.2,4.2,0,0,1-1,1.08l-.09.06,0,.05a3.57,3.57,0,0,0-.19,1.21,2.14,2.14,0,0,0,.33,1.2,4.42,4.42,0,0,0,1.19-1.38,4.25,4.25,0,0,0,.47-2.09v-.41m-41.16-.41h-.36a6.22,6.22,0,0,0,1.08,3.64,13.28,13.28,0,0,1-.72-3.64m13.56,0H85.31A3.11,3.11,0,0,1,83,278.31a4.51,4.51,0,0,0,.79,1.33,3,3,0,0,0,.54.52,3.32,3.32,0,0,0,1-1.87h4.59a10.16,10.16,0,0,0,.72-2.5m-24.41-.39v2.54a3.41,3.41,0,0,0,.42,1.9,14,14,0,0,1-.1-1.78v-.93a3.84,3.84,0,0,1-.32-1.73M31,274.93a1.92,1.92,0,0,1-.09.32,2.79,2.79,0,0,1-.82,1.23,3.85,3.85,0,0,1-1.55.8,8.06,8.06,0,0,1-1.5.25v2.53a7.36,7.36,0,0,0,1.5-.24,3.85,3.85,0,0,0,1.55-.8,2.81,2.81,0,0,0,.82-1.24,4.89,4.89,0,0,0,.24-1.6,4.81,4.81,0,0,0-.15-1.25m12.79-.47V277a5.75,5.75,0,0,0,.4,2.42,14.72,14.72,0,0,1-.08-1.67v-1.07a6.06,6.06,0,0,1-.32-2.22m-7.23-.19c0,.06,0,.12,0,.19l.09.54,0-.31a2.63,2.63,0,0,0-.17-.42m41.3-4.62h-.33a4.27,4.27,0,0,0-.4.8,5.39,5.39,0,0,0-.36,1.74h.41a12.18,12.18,0,0,1,.58-2.29,2.6,2.6,0,0,1,.1-.25m7.19,0H83.34a4.27,4.27,0,0,0-.4.8,5.39,5.39,0,0,0-.36,1.74h3a5.55,5.55,0,0,0-.53-2.54m33-.18-1,0a4,4,0,0,0-.19.64l-3.88-.36-1.19.17-.71.14,0,0h-.16a11.7,11.7,0,0,0-2.54.88,6.53,6.53,0,0,0-2.46,2.07,5.84,5.84,0,0,0-.94,3.45,7.15,7.15,0,0,0,.1,1.26,5,5,0,0,1,.84-2.17,6.45,6.45,0,0,1,2.46-2.07,12.3,12.3,0,0,1,3.43-1.06,30.61,30.61,0,0,1,3.85-.39l2.62-.12v-1a4.21,4.21,0,0,0-.23-1.51m-45.44-1H72v1.27a11.35,11.35,0,0,1,.57-1.27m17.3,0a11.42,11.42,0,0,1,.92,3.71h.06v-1.13a15,15,0,0,0-.07-1.52,4.09,4.09,0,0,0-.45-.64,3.7,3.7,0,0,0-.46-.42m33.18-.05a11.83,11.83,0,0,1,.44,3.33v-2.54c0-.12,0-.25,0-.37a1.91,1.91,0,0,0-.43-.42M21.42,265.27h-.16v2.54h.16v-2.54m8.77-2a2.77,2.77,0,0,1-.68,1.15,3.75,3.75,0,0,1-2.46.83v2.54a3.75,3.75,0,0,0,2.46-.83,3.33,3.33,0,0,0,.86-2.47,3.78,3.78,0,0,0-.18-1.22m13.61-1.55H41.52a10.24,10.24,0,0,1,.33,2.53H43.8v-2.53m12.83,0H51.15V274a3.75,3.75,0,0,1-.37,1.67,4.16,4.16,0,0,1-1,1.31l-.18.17a5.81,5.81,0,0,0,.36,2.2,4,4,0,0,0,.82-1.14,3.75,3.75,0,0,0,.37-1.67V264.24h5.48v-2.53m9.91,0h-.32v2.53h.32v-2.53m31.77,0H93v3.44h0v-.91h5.32v-2.53m5.52-.36a6.2,6.2,0,0,0-3.06.81,6.86,6.86,0,0,0-2.46,2.4v2.54c.15-.24.31-.46.47-.68v-2.18h3a6.23,6.23,0,0,1,2.06-.35,11.39,11.39,0,0,1,1.29.06l.56.08.34-2.48c-.26-.05-.56-.1-.9-.14a11.39,11.39,0,0,0-1.29-.06m-22.39-.27a11.55,11.55,0,0,0-4.15.72,8.87,8.87,0,0,0-3.22,2.14l-.29.3h2.93v.35l.58-.25a11.55,11.55,0,0,1,4.15-.72,13,13,0,0,1,3,.32,12.36,12.36,0,0,1,2.84-.32c.4,0,.79,0,1.16,0q-2.37-2.58-7-2.58m33.54,0a11.42,11.42,0,0,0-6.11,1.43,5.72,5.72,0,0,0-1.9,2,6.11,6.11,0,0,1,2.65-.6,11.46,11.46,0,0,1,1.3.06l.46.06a15.1,15.1,0,0,1,3.6-.39,14.32,14.32,0,0,1,2.83.25,16.06,16.06,0,0,1,3-.25c.4,0,.79,0,1.16,0a4,4,0,0,0-.33-.39,6.44,6.44,0,0,0-2.64-1.62,12.29,12.29,0,0,0-4-.57m-48.76-4.81H60.74v5.44H57.53v2.53h3.21v-5.43h5.48v-2.54m-40.54-2.08H15.62v2.54H31.48a25.33,25.33,0,0,1,3,.17,6.69,6.69,0,0,0-.54-.52,8.43,8.43,0,0,0-3.19-1.6,18.6,18.6,0,0,0-5.1-.59"/><path class="cls-2" d="M156.81,249.36a7.52,7.52,0,0,1-3.61,2.87,9.48,9.48,0,0,0,3.07.46,7.67,7.67,0,0,0,3.15-.63h-2.61v-2.7m-4.73-13.93a4.32,4.32,0,0,0-1.71.35,3.87,3.87,0,0,0-1.41,1.1,5.43,5.43,0,0,0-1,2l0,.09a15.51,15.51,0,0,0-.23,2.1,9.58,9.58,0,0,0,.24,1.23,5.46,5.46,0,0,0,.92,2,3.42,3.42,0,0,0,1.37,1.1,4.27,4.27,0,0,0,1.68.33,5.14,5.14,0,0,0,2-.36c-.05-.17-.11-.34-.15-.53a11.57,11.57,0,0,1-.34-3.07,10.58,10.58,0,0,1,.35-2.89,5.6,5.6,0,0,1,1-2,4.15,4.15,0,0,1,.4-.43,3.27,3.27,0,0,0-1.42-.8,6.42,6.42,0,0,0-1.66-.22m4.5-4.42h0l.1.12V231h-.07m11.35-6.89h-5.48v9.55l-.32-.36v5.08l0,.09a12,12,0,0,1,.33,3.13v.71a9.39,9.39,0,0,1-.36,2.84V250a6,6,0,0,0,.48-.62v2.7h5.32v-1.34a8.39,8.39,0,0,1-.94-.85c-1.8-1.88-2.71-4.56-2.71-8.06,0-.42,0-.83.05-1.22s-.05-.87-.05-1.32a13.35,13.35,0,0,1,.73-4.52,9.25,9.25,0,0,1,2.07-3.4,8.82,8.82,0,0,1,.85-.77v-6.46"/><path class="cls-3" d="M147.75,241c0,.24,0,.49,0,.74a19.17,19.17,0,0,0,.17,2.7,2.66,2.66,0,0,0,.08.33,5.54,5.54,0,0,0,.92,2,3.31,3.31,0,0,0,1.37,1.09,4.1,4.1,0,0,0,1.68.34,4.64,4.64,0,0,0,3.09-1,4.4,4.4,0,0,1-.35-.39,5.63,5.63,0,0,1-.76-1.47,5.14,5.14,0,0,1-2,.36,4.27,4.27,0,0,1-1.68-.33,3.42,3.42,0,0,1-1.37-1.1,5.46,5.46,0,0,1-.92-2,9.58,9.58,0,0,1-.24-1.23m8.8-10a8.93,8.93,0,0,0-2.94.47l.21.08a6.82,6.82,0,0,1,2.83,2.11V231h0v.12l-.1-.12m11.38-.43a8.82,8.82,0,0,0-.85.77,9.25,9.25,0,0,0-2.07,3.4,13.35,13.35,0,0,0-.73,4.52c0,.45,0,.89.05,1.32a12.63,12.63,0,0,1,.68-3.3,9.25,9.25,0,0,1,2.07-3.4,8.82,8.82,0,0,1,.85-.77v-2.54"/><path class="cls-2" d="M26.85,241.57H21.42v10.49h5.75v-9.77l-.32-.72M25.4,228.93h-4v5.25h4.49a9.75,9.75,0,0,0,1.26-.07v-5.05a11.44,11.44,0,0,0-1.77-.13m8.85-4.63,0,0A6.71,6.71,0,0,1,36,227.08a10,10,0,0,1,.47,2.95,12.49,12.49,0,0,1-.07,1.4,8.94,8.94,0,0,1,.07,1.14,9.59,9.59,0,0,1-1,4.54,7.14,7.14,0,0,1-2.34,2.52l4.73,9.89H36.63l1.22,2.54h3.33a5.82,5.82,0,0,1-1.67-.94A5.44,5.44,0,0,1,38,249.23a6.47,6.47,0,0,1-.54-2.76,8.67,8.67,0,0,1,.09-1.28,8.3,8.3,0,0,1-.09-1.26,6.07,6.07,0,0,1,.75-3.15L38,240.2a7.77,7.77,0,0,0,3.18-2.89l-2.56-.24a8.09,8.09,0,0,1,.81-2.46l-.81-.08a6.45,6.45,0,0,1,2.82-4.63c.12-.08.25-.15.38-.22l0-.06a6.82,6.82,0,0,0-1.68-2.74,8.83,8.83,0,0,0-3.35-2,12.67,12.67,0,0,0-2.49-.58m35.85-.18H64.47v4.93H70.1v-4.93"/><path class="cls-3" d="M38.25,240.78a6.07,6.07,0,0,0-.75,3.15,8.3,8.3,0,0,0,.09,1.26,5.18,5.18,0,0,1,.85-2.17,6.05,6.05,0,0,1,.55-.68l-.74-1.56m-5.13-1.15a10.85,10.85,0,0,1-.95.57l4.46,9.32h1.22l-4.73-9.89m-5.95-5.52a9.75,9.75,0,0,1-1.26.07H21.42v2.54h4.49a9.75,9.75,0,0,0,1.26-.07v-2.54m14.62-4.43c-.13.07-.26.14-.38.22a6.45,6.45,0,0,0-2.82,4.63l.81.08a5.68,5.68,0,0,1,2-2.17,7.89,7.89,0,0,1,.81-.44,10.06,10.06,0,0,0-.43-2.32m-10.47-5.56h-5.8a16.55,16.55,0,0,1,5.42.76,8.83,8.83,0,0,1,3.35,2A6.71,6.71,0,0,1,36,229.62a11.13,11.13,0,0,1,.4,1.81,12.49,12.49,0,0,0,.07-1.4,10,10,0,0,0-.47-2.95,6.71,6.71,0,0,0-1.68-2.74l0,0a21.94,21.94,0,0,0-2.93-.18"/><path class="cls-2" d="M174.62,235.39a4,4,0,0,0-3.51,1.64,5.91,5.91,0,0,0-.55,1,14,14,0,0,0-.47,3.21,6.8,6.8,0,0,0,1,2.83,4,4,0,0,0,3.53,1.67,5,5,0,0,0,1.69-.27,10.63,10.63,0,0,1-.55-3.69,8.29,8.29,0,0,1,1.15-4.78,3.55,3.55,0,0,1,.61-.67,4.22,4.22,0,0,0-2.9-1m7.31-4.3c.09.08.17.17.26.26a9.08,9.08,0,0,1,2.05,3.4,13.61,13.61,0,0,1,.71,4.52c0,.19,0,.39,0,.58a13.15,13.15,0,0,1,.13,2,10.1,10.1,0,0,1-.59,3.73,8,8,0,0,1-.26.83,9.51,9.51,0,0,1-2.07,3.42,9,9,0,0,1-3.27,2.16,11.1,11.1,0,0,1-1.45.44,14,14,0,0,0,3,.3,11.85,11.85,0,0,0,4.27-.74,9,9,0,0,0,3.27-2.16,9.51,9.51,0,0,0,2.07-3.42,13.46,13.46,0,0,0,.73-4.56,13.61,13.61,0,0,0-.71-4.52,8.85,8.85,0,0,0-5.32-5.54,11.16,11.16,0,0,0-2.79-.66"/><path class="cls-3" d="M170.09,241.27c0,.18,0,.36,0,.54a15.79,15.79,0,0,0,.36,3.49,5.39,5.39,0,0,0,.65,1.34,4,4,0,0,0,3.53,1.67,4.17,4.17,0,0,0,2.88-1,3.68,3.68,0,0,1-.61-.69,5.3,5.3,0,0,1-.58-1.14,5,5,0,0,1-1.69.27,4,4,0,0,1-3.53-1.67,6.8,6.8,0,0,1-1-2.83M180.41,231a12.11,12.11,0,0,0-2.88.32,10.2,10.2,0,0,1,1.39.42,8.85,8.85,0,0,1,5.32,5.54q.15.42.27.87a8.5,8.5,0,0,1,.43,1.69c0-.19,0-.39,0-.58a13.61,13.61,0,0,0-.71-4.52,9.08,9.08,0,0,0-2.05-3.4c-.09-.09-.17-.18-.26-.26a14.85,14.85,0,0,0-1.52-.08"/><path class="cls-2" d="M131.49,235.59a4.78,4.78,0,0,0-1.82.31,5.2,5.2,0,0,0-1.43.9,5,5,0,0,0-.92,1.31.54.54,0,0,1,0,.11v13.84h5.48V239.77a3.85,3.85,0,0,1,.37-1.66,4.9,4.9,0,0,1,.91-1.29,1.8,1.8,0,0,0-.35-.45,3,3,0,0,0-2.19-.78m7.44-4.58h-.08a9.34,9.34,0,0,1,1.13,5v1.13a5.86,5.86,0,0,1,.32,2.16v12.75h5.48v-.61a6.64,6.64,0,0,1-1.73-1.66q-2.12-2.89-2.11-8c0-.4,0-.8,0-1.19s0-.88,0-1.35a14.63,14.63,0,0,1,.61-4.36,11,11,0,0,1,1.09-2.48,7.19,7.19,0,0,0-4.71-1.38"/><path class="cls-3" d="M143.64,232.39a11,11,0,0,0-1.09,2.48,14.63,14.63,0,0,0-.61,4.36c0,.47,0,.92,0,1.35a14.26,14.26,0,0,1,.57-3.17,10.07,10.07,0,0,1,1.74-3.41c.12-.15.24-.29.37-.43a4.64,4.64,0,0,0-.56-.74,4.78,4.78,0,0,0-.46-.44m-13.54-.76h-2.83v2.17a7.08,7.08,0,0,1,2.4-2l.43-.2m8.75-.62a7.72,7.72,0,0,0-2.6.48,5.16,5.16,0,0,1,2.05,1.34,7,7,0,0,1,1.61,4.14l.07.18V236a9.34,9.34,0,0,0-1.13-5"/><path class="cls-2" d="M109,235.39a4,4,0,0,0-3.5,1.64,5.3,5.3,0,0,0-.55,1,13,13,0,0,0-.47,3.21,6.66,6.66,0,0,0,1,2.83,4,4,0,0,0,3.52,1.67,5,5,0,0,0,1.69-.27,10.87,10.87,0,0,1-.55-3.69,8.29,8.29,0,0,1,1.16-4.78,3.87,3.87,0,0,1,.6-.67,4.2,4.2,0,0,0-2.9-1m7.31-4.3a3.19,3.19,0,0,1,.26.26,9.1,9.1,0,0,1,2.06,3.4,13.61,13.61,0,0,1,.7,4.52c0,.2,0,.39,0,.58a13.08,13.08,0,0,1,.14,2,10.31,10.31,0,0,1-.59,3.73c-.08.28-.16.56-.26.83a9.53,9.53,0,0,1-2.08,3.42,9,9,0,0,1-3.26,2.16,11.25,11.25,0,0,1-1.46.44,14.09,14.09,0,0,0,3,.3,11.85,11.85,0,0,0,4.27-.74,9.06,9.06,0,0,0,2.41-1.38V233.09a9.05,9.05,0,0,0-2.38-1.34,11.16,11.16,0,0,0-2.79-.66"/><path class="cls-3" d="M104.47,241.27c0,.18,0,.36,0,.54a16.44,16.44,0,0,0,.35,3.49,5.4,5.4,0,0,0,.66,1.34,4,4,0,0,0,3.52,1.67,4.17,4.17,0,0,0,2.88-1,4,4,0,0,1-.6-.69,5.32,5.32,0,0,1-.59-1.14,5,5,0,0,1-1.69.27,4,4,0,0,1-3.52-1.67,6.66,6.66,0,0,1-1-2.83M114.79,231a12.11,12.11,0,0,0-2.88.32,10.64,10.64,0,0,1,1.39.42,8.92,8.92,0,0,1,5.32,5.54,8,8,0,0,1,.26.87,7.32,7.32,0,0,1,.43,1.69c0-.19,0-.38,0-.58a13.61,13.61,0,0,0-.7-4.52,9.1,9.1,0,0,0-2.06-3.4,3.19,3.19,0,0,0-.26-.26,14.8,14.8,0,0,0-1.51-.08"/><path class="cls-2" d="M76.67,235.59a4.1,4.1,0,0,0-1.51.27,4,4,0,0,0-1.35.94,4.31,4.31,0,0,0-.88,1.31v13.95H78.4V239.77a4.13,4.13,0,0,1,.33-1.66,4.21,4.21,0,0,1,.29-.56c0-.07,0-.12,0-.18a2.87,2.87,0,0,0-.53-1.08,1.83,1.83,0,0,0-.8-.55,3.24,3.24,0,0,0-1-.15m12,0a4.1,4.1,0,0,0-1.51.27,4.25,4.25,0,0,0-1.35.94,4.56,4.56,0,0,0-.88,1.25l-.06.13a7.21,7.21,0,0,1,0,1v12.91h5.48V239.54a3.48,3.48,0,0,1,.33-1.49,5.29,5.29,0,0,1,.29-.52c0-.06,0-.11,0-.16a2.87,2.87,0,0,0-.53-1.08,1.83,1.83,0,0,0-.8-.55,3.19,3.19,0,0,0-1-.15M84.11,231l-.59,0a6,6,0,0,1,.43,1,11.24,11.24,0,0,1,.79-1c-.2,0-.41,0-.63,0m12,0H95.7a9.77,9.77,0,0,1,1,4.85V237a3.19,3.19,0,0,1,.13.37,6.67,6.67,0,0,1,.19,1.78v12.91h5.48v-1.19a8.33,8.33,0,0,1-1.14-1c-1.8-1.88-2.7-4.56-2.7-8.06,0-.42,0-.83,0-1.22s0-.87,0-1.32a13.35,13.35,0,0,1,.72-4.52,10.11,10.11,0,0,1,1.2-2.34,6.44,6.44,0,0,0-4.42-1.4"/><path class="cls-3" d="M100.58,232.41a10.11,10.11,0,0,0-1.2,2.34,13.35,13.35,0,0,0-.72,4.52c0,.45,0,.89,0,1.32a12.63,12.63,0,0,1,.67-3.3,9.41,9.41,0,0,1,2.08-3.4l.14-.15a4.69,4.69,0,0,0-.68-1l-.34-.34m-25.09-.78H72.92v2.08a7,7,0,0,1,2.18-1.88l.39-.2m9.25-.6a11.24,11.24,0,0,0-.79,1,6,6,0,0,0-.43-1,6.72,6.72,0,0,0-2.14.57,3.91,3.91,0,0,1,.57.31,4.89,4.89,0,0,1,2,2.62,9.24,9.24,0,0,1,3-2.7l.37-.18a6.69,6.69,0,0,0-2.55-.62m11,0a7.65,7.65,0,0,0-2.34.51,4.92,4.92,0,0,1,1.76,1.22,6.94,6.94,0,0,1,1.51,4.08.87.87,0,0,1,.07.17v-1.13a9.77,9.77,0,0,0-1-4.85"/><path class="cls-2" d="M50.88,249.48a10.83,10.83,0,0,1-2.72,2.23,5.27,5.27,0,0,1-1,.43l.26.08a9.62,9.62,0,0,0,2.61.35,8.65,8.65,0,0,0,3.14-.51H50.88v-2.58M50.55,243l-2.21.11a14,14,0,0,0-2.78.35,4.91,4.91,0,0,0-1.63.69,2.27,2.27,0,0,0-.36.32,6.17,6.17,0,0,0-.16.65l.27.27a3,3,0,0,0,2,.58A5.73,5.73,0,0,0,49,245a2,2,0,0,1,.74-.91,4,4,0,0,1,.37-.23,3.21,3.21,0,0,0,.19-.31,3,3,0,0,0,.26-.61m-3.23-7.87a4.55,4.55,0,0,0-2.6.64,8.88,8.88,0,0,0-.33,1.35l1.13.11c.88-.11,1.76-.18,2.66-.22l1.41-.06a2.39,2.39,0,0,1,.52-.82,2.52,2.52,0,0,0-.35-.3,4.22,4.22,0,0,0-2.44-.7m7.16-4a6.39,6.39,0,0,1,1.12,2.17,11.69,11.69,0,0,1,.44,3,3.53,3.53,0,0,1,.56,2.13v1l-.55,0V243l.51,0V244a4.14,4.14,0,0,1-.47,2.09l0,.08v4q.31-.31.63-.66v2.58h2.06V232.24a7,7,0,0,0-1.43-.66,11,11,0,0,0-2.83-.53"/><path class="cls-3" d="M49,245a5.73,5.73,0,0,1-3.35.91,3,3,0,0,1-2-.58l-.27-.27a7.72,7.72,0,0,0-.11,1.4,9.2,9.2,0,0,0,.06,1.07,2,2,0,0,0,.32.33,2.92,2.92,0,0,0,2,.59,5.63,5.63,0,0,0,3.44-1l0,0a2,2,0,0,1-.34-1.19,3.57,3.57,0,0,1,.2-1.21l0-.05m1.77-2.07h-.21a3,3,0,0,1-.26.61,3.21,3.21,0,0,1-.19.31,5.24,5.24,0,0,1,.66-.28v-.65m-1.17-6-1.41.06c-.9,0-1.78.11-2.66.22l3.88.36a3.18,3.18,0,0,1,.19-.64M53.31,231a15.87,15.87,0,0,0-3,.25,9.31,9.31,0,0,1,1.16.32,6.47,6.47,0,0,1,2.64,1.62,6.34,6.34,0,0,1,1.45,2.56v.06a1.9,1.9,0,0,1,.43.42,11.69,11.69,0,0,0-.44-3,6.39,6.39,0,0,0-1.12-2.17c-.37,0-.76,0-1.17,0"/><polyline class="cls-2" points="67.12 231.63 64.54 231.63 64.54 252.06 70.02 252.06 67.12 252.06 67.12 249.52 67.12 231.63"/><path class="cls-2" d="M26.73,272.5H21.42v5.06h4.73q.48,0,.9,0v-5h-.32m-1.25-11.19H21.42v4h4.92c.25,0,.49,0,.71,0v-3.85a14.66,14.66,0,0,0-1.57-.08m9-4.41a5.28,5.28,0,0,1,1.09,1.87,9.5,9.5,0,0,1,.45,3A7.33,7.33,0,0,1,36,262.9c0,.13,0,.26,0,.39a3.6,3.6,0,0,1,.17,1.19,3.72,3.72,0,0,1-.44,1.91,6.35,6.35,0,0,1-.39,1,4.07,4.07,0,0,1-.81,1.13l.21.18A6,6,0,0,1,36,270.24a6,6,0,0,1,.63,1.68,9.12,9.12,0,0,1,.17,1.72,9,9,0,0,1,0,1.05,5.31,5.31,0,0,1,0,3.09,1.8,1.8,0,0,1-.08.21,8.67,8.67,0,0,1-.38,1.52,6.44,6.44,0,0,1-1.76,2.7,9,9,0,0,1-3.23,1.8,15.85,15.85,0,0,1-4.93.66h5.8a15.85,15.85,0,0,0,4.93-.66,9.82,9.82,0,0,0,2.41-1.16,9.46,9.46,0,0,1-1.16-5.1v-2.54h0v-13.5h3.2l-.12-.4a5.32,5.32,0,0,0-1.63-2.39,8.29,8.29,0,0,0-3.19-1.6,13.73,13.73,0,0,0-2.07-.42"/><path class="cls-3" d="M27.05,277.53q-.42,0-.9,0H21.42v2.53h4.73q.48,0,.9,0v-2.53m7.48-9a6.93,6.93,0,0,1-1.85,1.33,10.23,10.23,0,0,1,2.06,1.39A6,6,0,0,1,36,272.78a5.68,5.68,0,0,1,.58,1.49,2.63,2.63,0,0,1,.17.42,9,9,0,0,0,0-1.05,9.12,9.12,0,0,0-.17-1.72,6,6,0,0,0-.63-1.68,6,6,0,0,0-1.25-1.55l-.21-.18m-7.48-3.27c-.22,0-.46,0-.71,0H21.42v2.54h4.92c.25,0,.49,0,.71,0v-2.54m14.47-3.53h-3.2v13.5h0v-11h3.53a10.24,10.24,0,0,0-.33-2.53m-10-5h-5.8a18.6,18.6,0,0,1,5.1.59,8.29,8.29,0,0,1,3.19,1.6,5.32,5.32,0,0,1,1.63,2.39A10,10,0,0,1,36,262.9a7.33,7.33,0,0,0,.09-1.15,9.5,9.5,0,0,0-.45-3,5.28,5.28,0,0,0-1.09-1.87,25.33,25.33,0,0,0-3-.17"/><path class="cls-2" d="M72,258.81H66.54v2.9h4.37v6.8H66.54v8.62a1.4,1.4,0,0,0,.34.44,2.58,2.58,0,0,0,1.73.57,10.6,10.6,0,0,0,1.11-.06,7.13,7.13,0,0,0,1.12-.21l.78,4-.47.14.47,2.4q-.59.18-1.14.3a9.77,9.77,0,0,0,2.67.32,16.63,16.63,0,0,0,2.06-.13,14.34,14.34,0,0,0,1.73-.35,8,8,0,0,1-3.15-2.1q-2.57-2.82-2.56-8c0-.42,0-.83,0-1.23s0-.86,0-1.31a13.37,13.37,0,0,1,.74-4.6,10,10,0,0,1,1.81-3.12H72v-5.43"/><path class="cls-3" d="M66.54,277.13v.93a14,14,0,0,0,.1,1.78,1.64,1.64,0,0,0,.24.27,2.58,2.58,0,0,0,1.73.57,10.6,10.6,0,0,0,1.11-.06,7.13,7.13,0,0,0,1.12-.21l.31,1.63.47-.14-.78-4a7.13,7.13,0,0,1-1.12.21,10.6,10.6,0,0,1-1.11.06,2.58,2.58,0,0,1-1.73-.57,1.4,1.4,0,0,1-.34-.44m10.17-12.89H73.78A10,10,0,0,0,72,267.36a13.37,13.37,0,0,0-.74,4.6c0,.45,0,.89,0,1.31a12.51,12.51,0,0,1,.7-3.37l0-.12v-1.27h.57a8.9,8.9,0,0,1,1.48-2,8.74,8.74,0,0,1,2.64-1.89v-.35m-5.8-2.53H66.54v2.53h4.37v-2.53"/><path class="cls-2" d="M118.34,282.09a10.65,10.65,0,0,1-2.72,2.23,5.49,5.49,0,0,1-1,.43l.26.08a9.6,9.6,0,0,0,2.6.35,8.74,8.74,0,0,0,3.15-.51h-2.34v-2.58m-.32-6.53-2.22.11A14.08,14.08,0,0,0,113,276a5.17,5.17,0,0,0-1.62.69,2.94,2.94,0,0,0-.37.32,6.19,6.19,0,0,0-.15.65,2.17,2.17,0,0,0,.26.27,3,3,0,0,0,2,.58,5.71,5.71,0,0,0,3.35-.91,2,2,0,0,1,.75-.91,3.76,3.76,0,0,1,.36-.23l.2-.31a3.73,3.73,0,0,0,.26-.61m-3.24-7.87a4.49,4.49,0,0,0-2.59.64,10.24,10.24,0,0,0-.34,1.35l1.13.11c.88-.11,1.77-.18,2.66-.22l1.41-.06a2.55,2.55,0,0,1,.52-.82,2.43,2.43,0,0,0-.34-.3,4.25,4.25,0,0,0-2.45-.7m7.16-4a6.39,6.39,0,0,1,1.12,2.17,11.33,11.33,0,0,1,.44,3,3.46,3.46,0,0,1,.56,2.13v1l-.55,0v3.56l.51,0v1.06a4.14,4.14,0,0,1-.47,2.09l0,.09v4q.33-.31.63-.66v2.58h5.17V271.76a11.89,11.89,0,0,0-.45-3.39,6.29,6.29,0,0,0-1.45-2.56,6.57,6.57,0,0,0-2.64-1.62,10.8,10.8,0,0,0-2.83-.53"/><path class="cls-3" d="M116.45,277.62a5.71,5.71,0,0,1-3.35.91,3,3,0,0,1-2-.58,2.17,2.17,0,0,1-.26-.27,7.69,7.69,0,0,0-.12,1.4,7.4,7.4,0,0,0,.07,1.07,2.45,2.45,0,0,0,.31.34,3,3,0,0,0,2,.58,5.59,5.59,0,0,0,3.44-1h0a2.14,2.14,0,0,1-.33-1.2,3.57,3.57,0,0,1,.19-1.21l0-.05m1.78-2.07H118a3.73,3.73,0,0,1-.26.61l-.2.31a6.16,6.16,0,0,1,.67-.28v-.65m-1.18-6-1.41.06c-.89,0-1.78.11-2.66.22l3.88.36a4,4,0,0,1,.19-.64m3.73-5.89a16.06,16.06,0,0,0-3,.25,9.31,9.31,0,0,1,1.16.32,6.44,6.44,0,0,1,2.64,1.62,6.29,6.29,0,0,1,1.45,2.56v.06a1.91,1.91,0,0,1,.43.42,11.33,11.33,0,0,0-.44-3,6.39,6.39,0,0,0-1.12-2.17c-.37,0-.76,0-1.16,0"/><path class="cls-2" d="M93,278.29H91.11a3.29,3.29,0,0,1-.9,1.76,7.26,7.26,0,0,1-2.33,3.47,8,8,0,0,1-3.5,1.52,15,15,0,0,0,2.86.26A11,11,0,0,0,93,284v-5.71m-7.68-2.5H77.18a4.8,4.8,0,0,0,.78,1.32,4.37,4.37,0,0,0,3.52,1.38,5.58,5.58,0,0,0,1.49-.18,7.55,7.55,0,0,1-.46-2.52h2.8m-4-8.06a4.86,4.86,0,0,0-1.91.35,4,4,0,0,0-1.18.75c-.13.26-.25.54-.36.82h5.47a4,4,0,0,1,.48-.61,4.47,4.47,0,0,1,.45-.42,4.41,4.41,0,0,0-3-.89m7.08-4.07.11.12a9.92,9.92,0,0,1,2.29,5.76,5.44,5.44,0,0,1,.59,2.65h-.52v1.06h0v2.54H93V265.15a9.25,9.25,0,0,0-4.59-1.49"/><path class="cls-3" d="M77.18,275.79h-.11a13.28,13.28,0,0,0,.72,3.64l.17.21A4.34,4.34,0,0,0,81.48,281a4.14,4.14,0,0,0,2.82-.87,3,3,0,0,1-.54-.52,4.51,4.51,0,0,1-.79-1.33,5.58,5.58,0,0,1-1.49.18A4.37,4.37,0,0,1,78,277.11a4.8,4.8,0,0,1-.78-1.32m13.69-3.6h-.06c0,.34,0,.7.06,1.06h0v-1.06m-7.53-2.54H77.87a2.6,2.6,0,0,0-.1.25,12.18,12.18,0,0,0-.58,2.29h5.39a5.39,5.39,0,0,1,.36-1.74,4.27,4.27,0,0,1,.4-.8m3.9-6a12.36,12.36,0,0,0-2.84.32,7.72,7.72,0,0,1,4.11,2.38,8.65,8.65,0,0,1,1.38,2.16,3.7,3.7,0,0,1,.46.42,4.09,4.09,0,0,1,.45.64,9.92,9.92,0,0,0-2.29-5.76l-.11-.12c-.37,0-.76,0-1.16,0"/><path class="cls-2" d="M107,264.49a3.84,3.84,0,0,0-.4.21,5.1,5.1,0,0,0-.69.45l-.53,3.91a9.41,9.41,0,0,0-2.31-.24,6.93,6.93,0,0,0-1.72.22,3.61,3.61,0,0,0-1.49.8,3.94,3.94,0,0,0-1,1.41l0,0v13.39h5.48V272.85a4,4,0,0,1,1.37-3,5.07,5.07,0,0,1,.46-.35,8,8,0,0,1,.77-2.27l-.8-.07a7.73,7.73,0,0,1,.91-2.66"/><path class="cls-3" d="M101.77,264.24h-3v2.18a6.59,6.59,0,0,1,2-1.72,6,6,0,0,1,1-.46m7.85-.35a6.11,6.11,0,0,0-2.65.6,7.73,7.73,0,0,0-.91,2.66l.8.07a5.68,5.68,0,0,1,2-2.17,8.77,8.77,0,0,1,2.51-1l-.46-.06a11.46,11.46,0,0,0-1.3-.06"/><path class="cls-2" d="M51.31,281.86a8,8,0,0,1-2.84,2.62,5.83,5.83,0,0,1-.72.32,9,9,0,0,0,3.14.5,7.25,7.25,0,0,0,3-.63H51.31v-2.81M49.6,264.24H44.12v12.44a2.08,2.08,0,0,0,.46.74,2.94,2.94,0,0,0,2.15.76,4.14,4.14,0,0,0,1.74-.31,4.83,4.83,0,0,0,1.13-.73v-12.9m7.93,0H57v12.29a3.69,3.69,0,0,1-.32,1.56v4.4l.48-.63v2.81h5.32v-1.15l-.07-.06q-1.62-1.6-1.62-5.4v-2.54h0v-7H57.53v-4.27"/><path class="cls-3" d="M44.12,276.68v1.07a14.72,14.72,0,0,0,.08,1.67,2.17,2.17,0,0,0,.38.54,2.94,2.94,0,0,0,2.15.76,4.14,4.14,0,0,0,1.74-.31,4.8,4.8,0,0,0,1.31-.9,1.49,1.49,0,0,0,.18-.17,5.81,5.81,0,0,1-.36-2.2,4.83,4.83,0,0,1-1.13.73,4.14,4.14,0,0,1-1.74.31,2.94,2.94,0,0,1-2.15-.76,2.08,2.08,0,0,1-.46-.74"/><path d="M162.13,250a7.29,7.29,0,0,1-2.71,2.08h2.71V250m-16.35-1.07v2.54a8.32,8.32,0,0,0,4.69,1.24,7.74,7.74,0,0,0,2.73-.46,6.58,6.58,0,0,1-3.07-2.09,8,8,0,0,1-4.35-1.23m11-2.09a7.84,7.84,0,0,1-.84,1l.1,0a4,4,0,0,0,.74.24v-1.31m-.51-11.09-.13.05a3.86,3.86,0,0,0-1,.67l.12.12a4.22,4.22,0,0,1,1.08,1.91,9.86,9.86,0,0,1,.31,2.15c0-.27,0-.55,0-.85v-.71a12,12,0,0,0-.33-3.13l-.06-.21M151,233a4.83,4.83,0,0,0-.64.22,3.87,3.87,0,0,0-1.41,1.1,5.51,5.51,0,0,0-1,2,10.23,10.23,0,0,0-.36,2.89c0,.48,0,.92,0,1.34a10,10,0,0,1,.28-1.6,12.49,12.49,0,0,1,.37-1.52,10.07,10.07,0,0,1,1.74-3.41,8.53,8.53,0,0,1,.92-1"/><path class="cls-4" d="M157.87,235.43a4.14,4.14,0,0,0-1.57.3l.06.21a12,12,0,0,1,.33,3.13v.71c0,.3,0,.58,0,.85s0,.64,0,1v.71a9.18,9.18,0,0,1-.37,2.87,4.76,4.76,0,0,1-1.15,1.9l-.12.1a3.4,3.4,0,0,0,.92.66,7.84,7.84,0,0,0,.84-1v1.31a4.85,4.85,0,0,0,.95.1,4.6,4.6,0,0,0,3.21-1.14,4.76,4.76,0,0,0,1.15-1.9v-6.8a4.15,4.15,0,0,0-1-1.82,3.31,3.31,0,0,0-1.54-.92,6.44,6.44,0,0,0-1.67-.22M150.78,231a8.52,8.52,0,0,0-3.71.78,7.59,7.59,0,0,0-2.41,1.78,9.39,9.39,0,0,1,1.12,5v10.35a8,8,0,0,0,4.35,1.23c-.1-.11-.19-.23-.28-.35a11.39,11.39,0,0,1-1.94-5.32,12.68,12.68,0,0,1-.26-2.74c0-.42,0-.82,0-1.2s0-.86,0-1.34a10.23,10.23,0,0,1,.36-2.89,5.51,5.51,0,0,1,1-2,3.87,3.87,0,0,1,1.41-1.1A4.83,4.83,0,0,1,151,233a7.91,7.91,0,0,1,1.86-1.23c.24-.11.49-.22.74-.31a8.93,8.93,0,0,0-2.83-.47m11.35-6.89h-5.48V231a8.85,8.85,0,0,1,3,.55,6.49,6.49,0,0,1,2.51,1.75v-9.19"/><path class="cls-5" d="M156,247.85a7.27,7.27,0,0,1-5.5,2.3h-.34a6.58,6.58,0,0,0,3.07,2.09,7.52,7.52,0,0,0,3.61-2.87v-1.23a4,4,0,0,1-.74-.24l-.1,0m6.16-2.69h0v4.36h-5.32v2.54h2.61a7.29,7.29,0,0,0,2.71-2.08v-4.82m-10-12.27A4.68,4.68,0,0,0,151,233a8.53,8.53,0,0,0-.92,1,10.07,10.07,0,0,0-1.74,3.41,12.49,12.49,0,0,0-.37,1.52l0-.09a5.43,5.43,0,0,1,1-2,3.87,3.87,0,0,1,1.41-1.1,4.32,4.32,0,0,1,1.71-.35,6.42,6.42,0,0,1,1.66.22,3.27,3.27,0,0,1,1.42.8,3.86,3.86,0,0,1,1-.67l.13-.05a4.32,4.32,0,0,0-1-1.7,3.26,3.26,0,0,0-1.54-.92,6.42,6.42,0,0,0-1.66-.22"/><path class="cls-4" d="M162.13,245.16v0a4.76,4.76,0,0,1-1.15,1.9,4.6,4.6,0,0,1-3.21,1.14,4.85,4.85,0,0,1-.95-.1v1.23h0v.16h5.32v-4.36m-14.22-.69a11.39,11.39,0,0,0,1.94,5.32c.09.12.18.24.28.35h.34a7.27,7.27,0,0,0,5.5-2.3,3.4,3.4,0,0,1-.92-.66,4.64,4.64,0,0,1-3.09,1,4.1,4.1,0,0,1-1.68-.34,3.31,3.31,0,0,1-1.37-1.09,5.54,5.54,0,0,1-.92-2,2.66,2.66,0,0,1-.08-.33M156.65,231v2.66a6.82,6.82,0,0,0-2.83-2.11l-.21-.08c-.25.09-.5.2-.74.31A7.91,7.91,0,0,0,151,233a4.68,4.68,0,0,1,1.07-.13,6.42,6.42,0,0,1,1.66.22,3.26,3.26,0,0,1,1.54.92,4.32,4.32,0,0,1,1,1.7,4.14,4.14,0,0,1,1.57-.3,6.44,6.44,0,0,1,1.67.22,3.31,3.31,0,0,1,1.54.92,4.15,4.15,0,0,1,1,1.82v-5.08a6.49,6.49,0,0,0-2.51-1.75,8.85,8.85,0,0,0-3-.55"/><path class="cls-5" d="M142,240.58c0,.39,0,.79,0,1.19q0,5.13,2.11,8a6.64,6.64,0,0,0,1.73,1.66v-2.54a6.64,6.64,0,0,1-1.73-1.66,12.35,12.35,0,0,1-2.07-6.67"/><path class="cls-4" d="M144.66,233.57c-.13.14-.25.28-.37.43a10.07,10.07,0,0,0-1.74,3.41,14.26,14.26,0,0,0-.57,3.17,12.35,12.35,0,0,0,2.07,6.67,6.64,6.64,0,0,0,1.73,1.66V238.56a9.39,9.39,0,0,0-1.12-5"/><polyline points="64.3 224.12 64.3 224.12 64.3 226.51 58.67 226.51 58.67 229.05 64.3 229.05 64.3 224.12"/><polyline class="cls-4" points="64.3 224.12 58.67 224.12 58.67 226.51 64.3 226.51 64.3 224.12"/><path d="M28,241.57h-.82v.72l4.38,9.77h5.8l-1.14-2.54H31.55l-3.56-8M21.42,239h-.05v10.48H15.62v2.54h5.75V241.57h.05V239m14.86-7a7.94,7.94,0,0,1-.82,2.52A6.68,6.68,0,0,1,34,236.43h0a3.59,3.59,0,0,0,1.43-.82,2.81,2.81,0,0,0,.72-1.28,6.41,6.41,0,0,0,.2-1.64,4.48,4.48,0,0,0,0-.64m-5.92-3.12H27.17v.13a5,5,0,0,1,.76.17,3.77,3.77,0,0,1,1.56.82,3,3,0,0,1,.81,1.21l.09.31a7,7,0,0,0,.14-1.42,4.55,4.55,0,0,0-.17-1.22m-8.94-2.53h-.05v2.53h.05V226.4"/><path class="cls-4" d="M32.65,241.57H28l3.56,8h4.66l-3.56-8M31.2,228.93h-.84a4.55,4.55,0,0,1,.17,1.22,7,7,0,0,1-.14,1.42,4.64,4.64,0,0,1,.14,1.12,6.42,6.42,0,0,1-.19,1.64,2.92,2.92,0,0,1-.73,1.28,3.59,3.59,0,0,1-1.43.82,5.41,5.41,0,0,1-1,.22v.07h4.54a7.26,7.26,0,0,0,2.26-.29,6.68,6.68,0,0,0,1.49-1.86,7.94,7.94,0,0,0,.82-2.52,3.64,3.64,0,0,0-.19-.79,2.88,2.88,0,0,0-.8-1.21,3.84,3.84,0,0,0-1.56-.82,9,9,0,0,0-2.53-.3m-5.68-4.81h-9.9v25.4h5.75V239h.05v-2.32h-.05V226.4h.05v-2.28h4.1"/><path class="cls-5" d="M36.63,249.52h-.42l1.14,2.54h.5l-1.22-2.54M26.85,239H21.42v2.53h5.43l.32.72v-.72H28L26.85,239m9.52-7.61a6.17,6.17,0,0,1-.09.62,4.48,4.48,0,0,1,0,.64,6.41,6.41,0,0,1-.2,1.64,2.81,2.81,0,0,1-.72,1.28,3.59,3.59,0,0,1-1.43.82h0a10,10,0,0,1-1.8,1.24l.95,2a7.14,7.14,0,0,0,2.34-2.52,9.59,9.59,0,0,0,1-4.54,8.94,8.94,0,0,0-.07-1.14m-11-5h-4v2.53h4a11.44,11.44,0,0,1,1.77.13v-.13h3.19l-.06-.21a3,3,0,0,0-.81-1.21,3.77,3.77,0,0,0-1.56-.82,9,9,0,0,0-2.53-.29"/><path class="cls-4" d="M34,236.43a7.26,7.26,0,0,1-2.26.29H27.17v-.07a9.75,9.75,0,0,1-1.26.07H21.42V239h5.43L28,241.57h4.66l3.56,8h.42l-4.46-9.32a10.85,10.85,0,0,0,.95-.57l-.95-2a10,10,0,0,0,1.8-1.24m-8.45-12.31h-4.1v2.28h4a9,9,0,0,1,2.53.29,3.77,3.77,0,0,1,1.56.82,3,3,0,0,1,.81,1.21l.06.21h.84a9,9,0,0,1,2.53.3,3.84,3.84,0,0,1,1.56.82,2.88,2.88,0,0,1,.8,1.21,3.64,3.64,0,0,1,.19.79,6.17,6.17,0,0,0,.09-.62,11.13,11.13,0,0,0-.4-1.81,6.71,6.71,0,0,0-1.68-2.74,8.83,8.83,0,0,0-3.35-2,16.55,16.55,0,0,0-5.42-.76"/><path d="M167.93,248.18v2.54a10.7,10.7,0,0,0,6.69,2,12.68,12.68,0,0,0,2.81-.3,8.89,8.89,0,0,1-4.45-2.33,9.8,9.8,0,0,1-5-1.88m17-7.64a12.47,12.47,0,0,1-.68,3.29,9.51,9.51,0,0,1-2.07,3.42,8.89,8.89,0,0,1-1.18,1,3.81,3.81,0,0,0,2.95-1.66,5,5,0,0,0,.56-1.08,14.11,14.11,0,0,0,.47-3.73c0-.43,0-.86,0-1.27m-6.18-4.88a3.51,3.51,0,0,0-1.2.7,3.87,3.87,0,0,1,.6.67,7.25,7.25,0,0,1,1.1,3.51c0-.4.05-.82.05-1.27a10.15,10.15,0,0,0-.55-3.61m-4.67-2.78a3.85,3.85,0,0,0-2.94,1.62,8.23,8.23,0,0,0-1.15,4.77c0,.45,0,.88,0,1.28a8.64,8.64,0,0,1,.55-2.49c.08-.26.16-.52.25-.77a9.25,9.25,0,0,1,2.07-3.4,8.65,8.65,0,0,1,1.17-1"/><path class="cls-4" d="M180.41,235.39a5,5,0,0,0-1.69.27,10.15,10.15,0,0,1,.55,3.61c0,.45,0,.87-.05,1.27s.05.82.05,1.27a8.44,8.44,0,0,1-1.15,4.81,3.9,3.9,0,0,1-.62.71,4.2,4.2,0,0,0,2.91,1,5,5,0,0,0,.56,0,8.89,8.89,0,0,0,1.18-1,9.51,9.51,0,0,0,2.07-3.42,12.47,12.47,0,0,0,.68-3.29,14.6,14.6,0,0,0-.39-2.38,5.48,5.48,0,0,0-.59-1.13,4,4,0,0,0-3.51-1.64M174.62,231a11.85,11.85,0,0,0-4.27.74,9.38,9.38,0,0,0-2.42,1.37v15.06a9.8,9.8,0,0,0,5,1.88l-.2-.19a9.54,9.54,0,0,1-2.34-4.57,11.06,11.06,0,0,1-.48-3.49c0-.44,0-.86,0-1.26s0-.83,0-1.28a8.23,8.23,0,0,1,1.15-4.77,3.85,3.85,0,0,1,2.94-1.62,9.18,9.18,0,0,1,2.1-1.13,10.06,10.06,0,0,1,1.38-.42,12.3,12.3,0,0,0-2.91-.32"/><path class="cls-5" d="M164.33,240.59c0,.39-.05.8-.05,1.22,0,3.5.91,6.18,2.71,8.06a8.39,8.39,0,0,0,.94.85v-2.54a8.39,8.39,0,0,1-.94-.85,10.42,10.42,0,0,1-2.66-6.74"/><path class="cls-4" d="M167.93,233.12a8.82,8.82,0,0,0-.85.77,9.25,9.25,0,0,0-2.07,3.4,12.63,12.63,0,0,0-.68,3.3,10.42,10.42,0,0,0,2.66,6.74,8.39,8.39,0,0,0,.94.85V233.12"/><path class="cls-5" d="M184.48,245.54a5,5,0,0,1-.56,1.08,3.81,3.81,0,0,1-2.95,1.66,9.51,9.51,0,0,1-2.09,1.13,11.83,11.83,0,0,1-4.26.74,14.36,14.36,0,0,1-1.64-.09,8.89,8.89,0,0,0,4.45,2.33,11.1,11.1,0,0,0,1.45-.44,9,9,0,0,0,3.27-2.16,9.51,9.51,0,0,0,2.07-3.42,8,8,0,0,0,.26-.83m-9.86-12.69a5.17,5.17,0,0,0-.57,0,8.65,8.65,0,0,0-1.17,1,9.25,9.25,0,0,0-2.07,3.4c-.09.25-.17.51-.25.77a5.91,5.91,0,0,1,.55-1,4,4,0,0,1,3.51-1.64,4.22,4.22,0,0,1,2.9,1,3.51,3.51,0,0,1,1.2-.7,4.88,4.88,0,0,0-.6-1.16,4,4,0,0,0-3.5-1.65"/><path class="cls-4" d="M170.44,245.3a9.54,9.54,0,0,0,2.34,4.57l.2.19a14.36,14.36,0,0,0,1.64.09,11.83,11.83,0,0,0,4.26-.74,9.51,9.51,0,0,0,2.09-1.13,5,5,0,0,1-.56,0,4.2,4.2,0,0,1-2.91-1,4.17,4.17,0,0,1-2.88,1,4,4,0,0,1-3.53-1.67,5.39,5.39,0,0,1-.65-1.34m7.09-14a10.06,10.06,0,0,0-1.38.42,9.18,9.18,0,0,0-2.1,1.13,5.17,5.17,0,0,1,.57,0,4,4,0,0,1,3.5,1.65,4.88,4.88,0,0,1,.6,1.16,5,5,0,0,1,1.69-.27,4,4,0,0,1,3.51,1.64,5.48,5.48,0,0,1,.59,1.13q-.12-.45-.27-.87a8.85,8.85,0,0,0-5.32-5.54,10.2,10.2,0,0,0-1.39-.42"/><path d="M140,238.56v11h-5.47v2.54H140v-13.5h0m-5.48-2.12a5.19,5.19,0,0,0-.46.36v0a5.13,5.13,0,0,1,.48,2.49v-2.54c0-.12,0-.23,0-.33m-7.23-.76a3.85,3.85,0,0,0-.32,1.56v12.28h-4.38l-.25.27a7.86,7.86,0,0,1-.85.78v1.49H127V239.77a3.84,3.84,0,0,1,.32-1.55v-2.54m5.33-2.48v1.25a9.65,9.65,0,0,1,.7-.92,2.81,2.81,0,0,0-.7-.33"/><path class="cls-4" d="M137.29,235.59a4.78,4.78,0,0,0-1.82.31,4.88,4.88,0,0,0-1,.54c0,.1,0,.21,0,.33v2.54h0v10.21H140v-11c0-.56,0-1.09-.07-1.59a2.1,2.1,0,0,0-.43-.6,3.06,3.06,0,0,0-2.19-.78m-10.49-4h-5.33v1.46a7.48,7.48,0,0,1,.89.8,9.1,9.1,0,0,1,2.06,3.4,13.61,13.61,0,0,1,.7,4.52,13.47,13.47,0,0,1-.72,4.56,9.6,9.6,0,0,1-1.83,3.15H127V237.24a3.85,3.85,0,0,1,.32-1.56V233.8c-.16.21-.32.42-.47.65v-2.54h0v-.28m6.34-.62a7.8,7.8,0,0,0-3,.62h2.5v1.57a2.81,2.81,0,0,1,.7.33,7.1,7.1,0,0,1,2.17-1.7c.26-.13.52-.24.78-.34a9.11,9.11,0,0,0-3.11-.48"/><path class="cls-5" d="M131.49,233.05a4.78,4.78,0,0,0-1.82.31,5.2,5.2,0,0,0-1.43.9,5,5,0,0,0-.92,1.31.54.54,0,0,1,0,.11v2.54a.54.54,0,0,0,0-.11,5,5,0,0,1,.92-1.31,5.2,5.2,0,0,1,1.43-.9,4.78,4.78,0,0,1,1.82-.31,3,3,0,0,1,2.19.78,1.8,1.8,0,0,1,.35.45v0a5.19,5.19,0,0,1,.46-.36,3.69,3.69,0,0,0-.82-2.61,2.28,2.28,0,0,0-.38-.3,9.65,9.65,0,0,0-.7.92V233.2a3.87,3.87,0,0,0-1.11-.15"/><path class="cls-4" d="M132.6,231.63h-2.5l-.43.2a7.08,7.08,0,0,0-2.4,2v1.88a.54.54,0,0,0,0-.11,5,5,0,0,1,.92-1.31,5.2,5.2,0,0,1,1.43-.9,4.78,4.78,0,0,1,1.82-.31,3.87,3.87,0,0,1,1.11.15v-1.57m3.65-.14c-.26.1-.52.21-.78.34a7.1,7.1,0,0,0-2.17,1.7,2.28,2.28,0,0,1,.38.3,3.69,3.69,0,0,1,.82,2.61,4.88,4.88,0,0,1,1-.54,4.78,4.78,0,0,1,1.82-.31,3.06,3.06,0,0,1,2.19.78,2.1,2.1,0,0,1,.43.6,7,7,0,0,0-1.61-4.14,5.16,5.16,0,0,0-2.05-1.34"/><path class="cls-5" d="M122.57,249.52h-1.1v1a7.86,7.86,0,0,0,.85-.78l.25-.27"/><path class="cls-4" d="M121.47,233.09v16.43h1.1a9.6,9.6,0,0,0,1.83-3.15,13.47,13.47,0,0,0,.72-4.56,13.61,13.61,0,0,0-.7-4.52,9.1,9.1,0,0,0-2.06-3.4,7.48,7.48,0,0,0-.89-.8"/><path d="M102.5,248.33v2.54a10.86,10.86,0,0,0,6.49,1.82,12.55,12.55,0,0,0,2.81-.3,8.93,8.93,0,0,1-4.45-2.33,9.92,9.92,0,0,1-4.85-1.73m16.77-7.79a12.47,12.47,0,0,1-.67,3.29,9.53,9.53,0,0,1-2.08,3.42,8.8,8.8,0,0,1-1.17,1,3.79,3.79,0,0,0,2.94-1.66,5.51,5.51,0,0,0,.57-1.08,14.12,14.12,0,0,0,.46-3.73c0-.43,0-.86,0-1.27m-6.17-4.88a3.56,3.56,0,0,0-1.21.7,3.87,3.87,0,0,1,.6.67,7.14,7.14,0,0,1,1.11,3.51c0-.4.05-.82.05-1.27a10.38,10.38,0,0,0-.55-3.61m-4.67-2.78a3.82,3.82,0,0,0-2.94,1.62,8.23,8.23,0,0,0-1.16,4.77c0,.45,0,.88.06,1.28a8.32,8.32,0,0,1,.55-2.49c.07-.26.15-.52.24-.77a9.41,9.41,0,0,1,2.08-3.4,8.65,8.65,0,0,1,1.17-1"/><path class="cls-4" d="M114.79,235.39a5,5,0,0,0-1.69.27,10.38,10.38,0,0,1,.55,3.61c0,.45,0,.87-.05,1.27s.05.82.05,1.27a8.44,8.44,0,0,1-1.16,4.81,3.55,3.55,0,0,1-.62.71,4.23,4.23,0,0,0,2.92,1,5.12,5.12,0,0,0,.56,0,8.8,8.8,0,0,0,1.17-1,9.53,9.53,0,0,0,2.08-3.42,12.47,12.47,0,0,0,.67-3.29,12.72,12.72,0,0,0-.39-2.38,5.48,5.48,0,0,0-.59-1.13,4,4,0,0,0-3.5-1.64M109,231a11.79,11.79,0,0,0-4.26.74,9.11,9.11,0,0,0-3.13,2,10.12,10.12,0,0,1,.9,4.67v9.92a9.92,9.92,0,0,0,4.85,1.73l-.19-.19a9.47,9.47,0,0,1-2.35-4.57,11.06,11.06,0,0,1-.48-3.49q0-.66.06-1.26c0-.4-.06-.83-.06-1.28a8.23,8.23,0,0,1,1.16-4.77,3.82,3.82,0,0,1,2.94-1.62,9.33,9.33,0,0,1,2.09-1.13,10.64,10.64,0,0,1,1.39-.42A12.39,12.39,0,0,0,109,231"/><path class="cls-5" d="M118.86,245.54a5.51,5.51,0,0,1-.57,1.08,3.79,3.79,0,0,1-2.94,1.66,9.75,9.75,0,0,1-2.09,1.13,11.85,11.85,0,0,1-4.27.74,14.49,14.49,0,0,1-1.64-.09,8.93,8.93,0,0,0,4.45,2.33,11.25,11.25,0,0,0,1.46-.44,9,9,0,0,0,3.26-2.16,9.53,9.53,0,0,0,2.08-3.42c.1-.27.18-.55.26-.83M109,232.85a5.12,5.12,0,0,0-.56,0,8.65,8.65,0,0,0-1.17,1,9.41,9.41,0,0,0-2.08,3.4c-.09.25-.17.51-.24.77a5.3,5.3,0,0,1,.55-1,4,4,0,0,1,3.5-1.64,4.2,4.2,0,0,1,2.9,1,3.56,3.56,0,0,1,1.21-.7,5.29,5.29,0,0,0-.61-1.16,4,4,0,0,0-3.5-1.65"/><path class="cls-4" d="M104.81,245.3a9.47,9.47,0,0,0,2.35,4.57l.19.19a14.49,14.49,0,0,0,1.64.09,11.85,11.85,0,0,0,4.27-.74,9.75,9.75,0,0,0,2.09-1.13,5.12,5.12,0,0,1-.56,0,4.23,4.23,0,0,1-2.92-1,4.17,4.17,0,0,1-2.88,1,4,4,0,0,1-3.52-1.67,5.4,5.4,0,0,1-.66-1.34m7.1-14a10.64,10.64,0,0,0-1.39.42,9.33,9.33,0,0,0-2.09,1.13,5.12,5.12,0,0,1,.56,0,4,4,0,0,1,3.5,1.65,5.29,5.29,0,0,1,.61,1.16,5,5,0,0,1,1.69-.27,4,4,0,0,1,3.5,1.64,5.48,5.48,0,0,1,.59,1.13,8,8,0,0,0-.26-.87,8.92,8.92,0,0,0-5.32-5.54,10.64,10.64,0,0,0-1.39-.42"/><path class="cls-5" d="M98.71,240.59c0,.39,0,.8,0,1.22,0,3.5.9,6.18,2.7,8.06a8.33,8.33,0,0,0,1.14,1v-2.54a8.33,8.33,0,0,1-1.14-1,10.42,10.42,0,0,1-2.65-6.74"/><path class="cls-4" d="M101.6,233.74l-.14.15a9.41,9.41,0,0,0-2.08,3.4,12.63,12.63,0,0,0-.67,3.3,10.42,10.42,0,0,0,2.65,6.74,8.33,8.33,0,0,0,1.14,1v-9.92a10.12,10.12,0,0,0-.9-4.67"/><path d="M96.7,238.41v11.11H91.22v2.54H96.7V238.41h0m-17.53-1.09-.15.23a7.18,7.18,0,0,1,.15,1.6v-1.83m12,0-.15.22a7.32,7.32,0,0,1,.15,1.62v-1.84M84.65,237h0v12.52H79.17v2.54h5.48V239.54a3.51,3.51,0,0,1,.27-1.36,5.42,5.42,0,0,0-.14-.81,3.19,3.19,0,0,0-.13-.37m-11.73-1.4a4,4,0,0,0-.32,1.64v12.28H70v2.54H72.6V239.77a4,4,0,0,1,.32-1.63V235.6m5.32-2.06v.83c.11-.16.21-.31.33-.46l-.12-.16-.21-.21M89,233.06a5.36,5.36,0,0,1,.75,1.47c.23-.3.46-.59.7-.85a1.89,1.89,0,0,0-.74-.48,3.43,3.43,0,0,0-.71-.14"/><path class="cls-4" d="M82.47,235.59a4.1,4.1,0,0,0-1.51.27,4,4,0,0,0-1.35.94,3.67,3.67,0,0,0-.44.52v1.83h0v10.37h5.48V237h0a2.64,2.64,0,0,0-.4-.71,1.86,1.86,0,0,0-.81-.55,3.17,3.17,0,0,0-1-.15m12,0a4.1,4.1,0,0,0-1.51.27,4.25,4.25,0,0,0-1.35.94,5.37,5.37,0,0,0-.44.51v1.84h0v10.37H96.7V238.41a15.71,15.71,0,0,0-.07-1.58,2.76,2.76,0,0,0-.33-.54,1.83,1.83,0,0,0-.8-.55,3.24,3.24,0,0,0-1-.15m-22.08-4H70v17.89H72.6V237.24a4,4,0,0,1,.32-1.64v-1.89a8,8,0,0,0-.48.66v-2.54h0v-.2m5.87-.62a6.73,6.73,0,0,0-2.82.62h2.75v1.91l.21.21.12.16a7.11,7.11,0,0,1,2.33-2.08l.48-.23a7.16,7.16,0,0,0-3.07-.59m12,0a7.31,7.31,0,0,0-3.07.64c.16.08.31.17.46.26A4.68,4.68,0,0,1,89,233.06a3.43,3.43,0,0,1,.71.14,1.89,1.89,0,0,1,.74.48,8.29,8.29,0,0,1,2.28-1.85c.21-.11.42-.21.64-.3a7.78,7.78,0,0,0-3-.52"/><path class="cls-5" d="M76.67,233.05a4.1,4.1,0,0,0-1.51.27,4,4,0,0,0-1.35.94,4.31,4.31,0,0,0-.88,1.31v2.54a4.31,4.31,0,0,1,.88-1.31,4,4,0,0,1,1.35-.94,4.1,4.1,0,0,1,1.51-.27,3.24,3.24,0,0,1,1,.15,1.83,1.83,0,0,1,.8.55,2.87,2.87,0,0,1,.53,1.08c0,.06,0,.11,0,.18l.15-.23v-.71a6.72,6.72,0,0,0-.19-1.78,3.43,3.43,0,0,0-.41-.92c-.12.15-.22.3-.33.46v-.83a1.93,1.93,0,0,0-.59-.34,3.24,3.24,0,0,0-1-.15m12,0a4.1,4.1,0,0,0-1.51.27,4.25,4.25,0,0,0-1.35.94,4.56,4.56,0,0,0-.88,1.25,3.48,3.48,0,0,0-.33,1.49,3.19,3.19,0,0,1,.13.37,5.42,5.42,0,0,1,.14.81l.06-.13a4.56,4.56,0,0,1,.88-1.25,4.25,4.25,0,0,1,1.35-.94,4.1,4.1,0,0,1,1.51-.27,3.19,3.19,0,0,1,1,.15,1.83,1.83,0,0,1,.8.55,2.87,2.87,0,0,1,.53,1.08s0,.1,0,.16l.15-.22v-.7a6.72,6.72,0,0,0-.19-1.78,2.87,2.87,0,0,0-.53-1.08l-.06-.07c-.24.26-.47.55-.7.85a5.36,5.36,0,0,0-.75-1.47h-.27"/><path class="cls-4" d="M78.24,231.63H75.49l-.39.2a7,7,0,0,0-2.18,1.88v1.86a4.31,4.31,0,0,1,.88-1.31,4,4,0,0,1,1.35-.94,4.1,4.1,0,0,1,1.51-.27,3.24,3.24,0,0,1,1,.15,1.93,1.93,0,0,1,.59.34v-1.91m3.14,0-.48.23a7.11,7.11,0,0,0-2.33,2.08,3.43,3.43,0,0,1,.41.92,6.72,6.72,0,0,1,.19,1.78v.71a3.67,3.67,0,0,1,.44-.52,4,4,0,0,1,1.35-.94,4.1,4.1,0,0,1,1.51-.27,3.17,3.17,0,0,1,1,.15,1.86,1.86,0,0,1,.81.55,2.64,2.64,0,0,1,.4.71,3.48,3.48,0,0,1,.33-1.49,4.56,4.56,0,0,1,.88-1.25,4.25,4.25,0,0,1,1.35-.94,4.1,4.1,0,0,1,1.51-.27H89a4.68,4.68,0,0,0-1.24-1.15c-.15-.09-.3-.18-.46-.26l-.37.18a9.24,9.24,0,0,0-3,2.7,4.89,4.89,0,0,0-2-2.62,3.91,3.91,0,0,0-.57-.31m12-.07c-.22.09-.43.19-.64.3a8.29,8.29,0,0,0-2.28,1.85l.06.07a2.87,2.87,0,0,1,.53,1.08,6.72,6.72,0,0,1,.19,1.78v.7a5.37,5.37,0,0,1,.44-.51,4.25,4.25,0,0,1,1.35-.94,4.1,4.1,0,0,1,1.51-.27,3.24,3.24,0,0,1,1,.15,1.83,1.83,0,0,1,.8.55,2.76,2.76,0,0,1,.33.54,6.94,6.94,0,0,0-1.51-4.08,4.92,4.92,0,0,0-1.76-1.22"/><polyline class="cls-5" points="70.02 249.52 67.12 249.52 67.12 252.06 70.02 252.06 70.02 249.52"/><polyline class="cls-4" points="70.02 231.63 67.12 231.63 67.12 249.52 70.02 249.52 70.02 231.63"/><path d="M56.05,250.14A10.78,10.78,0,0,1,54,251.71a5.18,5.18,0,0,1-.75.35h2.84v-1.92m-13.44-.25,1,2.17H41.18l.48.16a9.68,9.68,0,0,0,2.61.35,8.91,8.91,0,0,0,2.93-.43,5.75,5.75,0,0,1-1.89-1,5,5,0,0,1-1-1.09h0a9,9,0,0,1-1.66-.14m8.27-2.95a10.93,10.93,0,0,1-1.14,1.12,2.84,2.84,0,0,0,1.14.37v-1.49m-3.3-6.37a12.67,12.67,0,0,0-2,.3,5.13,5.13,0,0,0-1.63.69,2,2,0,0,0-.76,1,3.57,3.57,0,0,0-.2,1.21,2.12,2.12,0,0,0,.29,1.12,1.8,1.8,0,0,1,.31-.43,4.88,4.88,0,0,1,.66-1.4A6.4,6.4,0,0,1,46.7,241a7.77,7.77,0,0,1,.88-.38m3.22-5a2.41,2.41,0,0,0-.69.52,2.35,2.35,0,0,1,.46.77h.23v-1.28m-3.76-3c-2,.07-3.14.89-3.44,2.46L42,234.86a8.06,8.06,0,0,1-.77,2.25c0,.07-.07.14-.11.2l2.29.22.17,0a2.71,2.71,0,0,1,1.11-1.77A6,6,0,0,1,47,232.54"/><path class="cls-4" d="M56.05,243l-1.91.09a14,14,0,0,0-2.78.35l-.6.18V244a4.07,4.07,0,0,1-1.65,3.46,1.6,1.6,0,0,0,.37.41,2.48,2.48,0,0,0,.26.19,10.93,10.93,0,0,0,1.14-1.12v1.49a4.93,4.93,0,0,0,.55,0,5.64,5.64,0,0,0,3.45-1,4.23,4.23,0,0,0,1.17-1.31V243m-12.44-5.48-.17,0h.16v0m9.51-2.41a4.85,4.85,0,0,0-2.32.48v1.28h-.23a4.54,4.54,0,0,1,.23,1.52v1l-2.62.12a30.42,30.42,0,0,0-3.85.39A12.3,12.3,0,0,0,40.9,241,6.52,6.52,0,0,0,39,242.34l3.62,7.55a9,9,0,0,0,1.66.14h0a5.78,5.78,0,0,1-.47-.8,6.07,6.07,0,0,1-.48-1.69,2,2,0,0,1-.39-1.27,3.57,3.57,0,0,1,.2-1.21l.09-.21a2.12,2.12,0,0,1-.29-1.12,3.57,3.57,0,0,1,.2-1.21,2,2,0,0,1,.76-1,5.13,5.13,0,0,1,1.63-.69,12.67,12.67,0,0,1,2-.3,12.94,12.94,0,0,1,2.54-.68A30.77,30.77,0,0,1,54,239.5l2.07-.09v-.26a11.83,11.83,0,0,0-.44-3.33l0,0a4.22,4.22,0,0,0-2.44-.7M47.51,231a12.43,12.43,0,0,0-5.29,1c0,.19,0,.38,0,.57a11.74,11.74,0,0,1-.21,2.29l1.57.14c.3-1.57,1.45-2.39,3.44-2.46l.17-.1a9.13,9.13,0,0,1,3.14-1.18,14.36,14.36,0,0,0-2.84-.25"/><path class="cls-5" d="M37.59,245.19a8.67,8.67,0,0,0-.09,1.28,6.47,6.47,0,0,0,.54,2.76,5.44,5.44,0,0,0,1.47,1.89,5.82,5.82,0,0,0,1.67.94h2.47l-1-2.17a7.66,7.66,0,0,1-1-.21,5.85,5.85,0,0,1-2.15-1.1A5.35,5.35,0,0,1,38,246.69a5.71,5.71,0,0,1-.45-1.5m1.81-10.58a8.09,8.09,0,0,0-.81,2.46l2.56.24c0-.06.07-.13.11-.2a8.06,8.06,0,0,0,.77-2.25l-2.63-.25"/><path class="cls-4" d="M39,242.34a6.05,6.05,0,0,0-.55.68,5.18,5.18,0,0,0-.85,2.17,5.71,5.71,0,0,0,.45,1.5,5.35,5.35,0,0,0,1.47,1.89,5.85,5.85,0,0,0,2.15,1.1,7.66,7.66,0,0,0,1,.21L39,242.34M42.22,232a7.89,7.89,0,0,0-.81.44,5.68,5.68,0,0,0-2,2.17l2.63.25a11.74,11.74,0,0,0,.21-2.29c0-.19,0-.38,0-.57"/><path class="cls-5" d="M49.74,248.06a10.71,10.71,0,0,1-1.58,1.11,7.7,7.7,0,0,1-3.85.86,5,5,0,0,0,1,1.09,5.75,5.75,0,0,0,1.89,1,5.27,5.27,0,0,0,1-.43,10.83,10.83,0,0,0,2.72-2.23v-1a2.84,2.84,0,0,1-1.14-.37m6.31-1.89h0v3.35H50.88v2.54h2.33a5.18,5.18,0,0,0,.75-.35,10.78,10.78,0,0,0,2.09-1.57v-4m-5.29-5.76-2.42.11-.76,0a7.77,7.77,0,0,0-.88.38A6.4,6.4,0,0,0,44.23,243a4.88,4.88,0,0,0-.66,1.4,2.27,2.27,0,0,1,.36-.32,4.91,4.91,0,0,1,1.63-.69,14,14,0,0,1,2.78-.35l2.21-.11a4.83,4.83,0,0,0,.21-1.49v-1.05m-3.44-7.87H47a6,6,0,0,0-2.32,3.18,4.55,4.55,0,0,1,2.6-.64,4.22,4.22,0,0,1,2.44.7,2.52,2.52,0,0,1,.35.3,2.41,2.41,0,0,1,.69-.52,2.78,2.78,0,0,0-1-2.32,4.22,4.22,0,0,0-2.44-.7"/><path class="cls-4" d="M49.11,247.46l0,0a5.63,5.63,0,0,1-3.44,1,2.92,2.92,0,0,1-2-.59,2,2,0,0,1-.32-.33,6.07,6.07,0,0,0,.48,1.69,5.78,5.78,0,0,0,.47.8,7.7,7.7,0,0,0,3.85-.86,10.71,10.71,0,0,0,1.58-1.11,2.48,2.48,0,0,1-.26-.19,1.6,1.6,0,0,1-.37-.41m6.94-1.29a4.23,4.23,0,0,1-1.17,1.31,5.64,5.64,0,0,1-3.45,1,4.93,4.93,0,0,1-.55,0v1h0v0h5.17v-3.35m0-6.76L54,239.5a30.77,30.77,0,0,0-3.86.39,12.94,12.94,0,0,0-2.54.68l.76,0,2.42-.11v1.05a4.83,4.83,0,0,1-.21,1.49h.21v.65l.6-.18a14,14,0,0,1,2.78-.35l1.91-.09v-3.56m-5.7-8.15a9.13,9.13,0,0,0-3.14,1.18l-.17.1h.28a4.22,4.22,0,0,1,2.44.7,2.78,2.78,0,0,1,1,2.32,4.85,4.85,0,0,1,2.32-.48,4.22,4.22,0,0,1,2.44.7l0,0v-.06a6.34,6.34,0,0,0-1.45-2.56,6.47,6.47,0,0,0-2.64-1.62,9.31,9.31,0,0,0-1.16-.32"/><polyline points="64.22 231.63 64.22 231.63 64.22 249.52 61.84 249.52 61.84 252.06 64.22 252.06 64.22 231.63"/><path class="cls-4" d="M64.22,231.63H58.74v.61a6.09,6.09,0,0,1,1.21,1,6.32,6.32,0,0,1,1.44,2.56,11.89,11.89,0,0,1,.45,3.39v10.37h2.38V231.63"/><polyline class="cls-5" points="61.84 249.52 58.74 249.52 58.74 252.06 61.84 252.06 61.84 249.52"/><path class="cls-4" d="M58.74,232.24v17.28h3.1V239.15a11.89,11.89,0,0,0-.45-3.39A6.32,6.32,0,0,0,60,233.2a6.09,6.09,0,0,0-1.21-1"/><path d="M21.42,282.13h-5.8v2.54h5.8v-2.54M36.71,275a9.25,9.25,0,0,1-.45,2,6.44,6.44,0,0,1-1.76,2.7l-.18.16h0a3.85,3.85,0,0,0,1.55-.8,2.94,2.94,0,0,0,.74-1,10.78,10.78,0,0,0,.15-1.81,9.48,9.48,0,0,0-.08-1.18M31,272.5h-4a4.68,4.68,0,0,1,3.13.93,3,3,0,0,1,.83,1.49,5.19,5.19,0,0,0,.15-1.29A5.11,5.11,0,0,0,31,272.5M21.42,270h-.16v2.54h.16V270m14.51-6.88a7,7,0,0,1-.59,1.76,5.74,5.74,0,0,1-2.66,2.46c.26.14.51.28.74.43a3.38,3.38,0,0,0,1.89-.78,2.28,2.28,0,0,0,.42-.56,7,7,0,0,0,.32-2.11c0-.34,0-.67,0-1l-.07-.21m-5.6-1.77H27.05v.08a5.14,5.14,0,0,1,2.21.64,2.32,2.32,0,0,1,.93,1.23,4.48,4.48,0,0,0,.18-1.32,4.26,4.26,0,0,0,0-.63m-8.91-2.54h-.16v2.54h.16v-2.54"/><path class="cls-4" d="M32.53,272.5H31a5.11,5.11,0,0,1,.12,1.14,5.19,5.19,0,0,1-.15,1.29,4.81,4.81,0,0,1,.15,1.25,4.89,4.89,0,0,1-.24,1.6A2.81,2.81,0,0,1,30.1,279a3.85,3.85,0,0,1-1.55.8,7.36,7.36,0,0,1-1.5.24v0H32a8.82,8.82,0,0,0,2.37-.26l.18-.16a6.44,6.44,0,0,0,1.76-2.7,9.25,9.25,0,0,0,.45-2l-.09-.54c0-.07,0-.13,0-.19a2.91,2.91,0,0,0-.59-.83,5,5,0,0,0-3.45-.94m-1.25-11.19h-1a4.26,4.26,0,0,1,0,.63,4.48,4.48,0,0,1-.18,1.32,3.78,3.78,0,0,1,.18,1.22,3.33,3.33,0,0,1-.86,2.47,3.75,3.75,0,0,1-2.46.83v0h5.09a9.86,9.86,0,0,0,1.28-.08c-.23-.15-.48-.29-.74-.43a5.74,5.74,0,0,0,2.66-2.46,7,7,0,0,0,.59-1.76,2.36,2.36,0,0,0-.87-1.05,7.32,7.32,0,0,0-3.78-.72m-5.6-4.58H15.62v25.4h5.8v-2h-.16V270h.16v-2.15h-.16v-9h.16v-2h4.26"/><path class="cls-5" d="M36.64,278a2.94,2.94,0,0,1-.74,1,3.85,3.85,0,0,1-1.55.8h0a9,9,0,0,1-3.05,1.64,15.85,15.85,0,0,1-4.93.66H21.42v2.54h4.92a15.85,15.85,0,0,0,4.93-.66,9,9,0,0,0,3.23-1.8,6.44,6.44,0,0,0,1.76-2.7,8.67,8.67,0,0,0,.38-1.52m-9.91-8H21.42v2.54H31a3.12,3.12,0,0,0-.86-1.6,5,5,0,0,0-3.45-.94m9-3.57a2.28,2.28,0,0,1-.42.56,3.38,3.38,0,0,1-1.89.78,8.31,8.31,0,0,1,1.11.78,4.07,4.07,0,0,0,.81-1.13,6.35,6.35,0,0,0,.39-1M36,262.9l0,.18.07.21c0-.13,0-.26,0-.39m-10.48-4.13H21.42v2.54h4.06a14.66,14.66,0,0,1,1.57.08v-.08h3.28a2.44,2.44,0,0,0-1.07-1.82,7.3,7.3,0,0,0-3.78-.72"/><path class="cls-4" d="M34.32,279.83a8.82,8.82,0,0,1-2.37.26h-4.9v0q-.42,0-.9,0H21.42v2h4.92a15.85,15.85,0,0,0,4.93-.66,9,9,0,0,0,3.05-1.64m-.9-12.1a9.86,9.86,0,0,1-1.28.08H27.05v0c-.22,0-.46,0-.71,0H21.42V270h5.31a5,5,0,0,1,3.45.94,3.12,3.12,0,0,1,.86,1.6h1.49a5,5,0,0,1,3.45.94,2.91,2.91,0,0,1,.59.83,5.68,5.68,0,0,0-.58-1.49,6,6,0,0,0-1.25-1.55,10.23,10.23,0,0,0-2.06-1.39,6.93,6.93,0,0,0,1.85-1.33,8.31,8.31,0,0,0-1.11-.78m-7.74-11H21.42v2h4.06a7.3,7.3,0,0,1,3.78.72,2.44,2.44,0,0,1,1.07,1.82h1a7.32,7.32,0,0,1,3.78.72,2.36,2.36,0,0,1,.87,1.05l0-.18a10,10,0,0,0-.36-1.59A5.32,5.32,0,0,0,34,258.92a8.29,8.29,0,0,0-3.19-1.6,18.6,18.6,0,0,0-5.1-.59"/><path d="M62.43,281v2.53a6.91,6.91,0,0,0,4.92,1.54,16.51,16.51,0,0,0,2.06-.13c.35-.05.71-.11,1.07-.19a5.19,5.19,0,0,1-2.32-1.28,4.55,4.55,0,0,1-.71-.94h-.1A7,7,0,0,1,62.43,281"/><path class="cls-4" d="M66.22,258.81H60.74v5.43h1.69V281a7,7,0,0,0,4.92,1.54h.1a7.37,7.37,0,0,1-.81-2.68,3.41,3.41,0,0,1-.42-1.9V275.4h0v-6.89H63.33v-4.27h2.89v-5.43"/><path class="cls-5" d="M71.15,282a12.47,12.47,0,0,1-1.74.35,16.82,16.82,0,0,1-2,.13,4.55,4.55,0,0,0,.71.94,5.19,5.19,0,0,0,2.32,1.28q.55-.12,1.14-.3l-.47-2.4m-.24-17.8h0V266H66.22v2.54h4.69v-4.27"/><path class="cls-4" d="M66.64,279.84a7.37,7.37,0,0,0,.81,2.68,16.82,16.82,0,0,0,2-.13,12.47,12.47,0,0,0,1.74-.35l-.31-1.63a7.13,7.13,0,0,1-1.12.21,10.6,10.6,0,0,1-1.11.06,2.58,2.58,0,0,1-1.73-.57,1.64,1.64,0,0,1-.24-.27m4.27-15.6H63.33v4.27h2.89V266h4.69v-1.73"/><path class="cls-5" d="M60.74,275.52v2.54q0,3.79,1.62,5.4l.07.06V281a.23.23,0,0,0-.07-.07q-1.62-1.6-1.62-5.4m0-9.55H57.53v2.54h3.21V266"/><path class="cls-4" d="M62.43,264.24h-4.9V266h3.21v9.55q0,3.8,1.62,5.4a.23.23,0,0,1,.07.07V264.24"/><path d="M123.51,282.75a10.49,10.49,0,0,1-2.09,1.57,5.6,5.6,0,0,1-.74.35h2.83v-1.92m-5.17-3.2a10.93,10.93,0,0,1-1.14,1.12,2.84,2.84,0,0,0,1.14.37v-1.49m-13.28-1.75a7.47,7.47,0,0,0-.1,1.28,6.32,6.32,0,0,0,.55,2.76,5.14,5.14,0,0,0,1.47,1.89,6,6,0,0,0,2.15,1.1,9.6,9.6,0,0,0,2.6.35,8.93,8.93,0,0,0,2.94-.43,5.7,5.7,0,0,1-1.9-1,5.21,5.21,0,0,1-1-1.09h0a9.23,9.23,0,0,1-2.6-.35,5.85,5.85,0,0,1-2.15-1.1,5.14,5.14,0,0,1-1.47-1.89,5.36,5.36,0,0,1-.45-1.5m10-4.62a11.67,11.67,0,0,0-2,.31,5,5,0,0,0-1.62.68,2,2,0,0,0-.77,1,3.57,3.57,0,0,0-.19,1.21,2.12,2.12,0,0,0,.28,1.12A1.8,1.8,0,0,1,111,277a4.9,4.9,0,0,1,.67-1.4,6.37,6.37,0,0,1,2.46-2.07c.29-.14.58-.26.88-.38m3.22-5a2.41,2.41,0,0,0-.69.52,2.15,2.15,0,0,1,.46.78l.23,0v-1.28m-3.75-3a3.46,3.46,0,0,0-3,1.36l-.34,2.55a9.53,9.53,0,0,0-2.31-.24,6.93,6.93,0,0,0-1.72.22,3.51,3.51,0,0,0-1,.45l0,.19,4.84.46.18,0a2.67,2.67,0,0,1,1.11-1.77,6,6,0,0,1,2.32-3.18"/><path class="cls-4" d="M123.51,275.58l-1.91.09a14,14,0,0,0-2.78.35l-.59.18v.41a4.25,4.25,0,0,1-.47,2.09,4.42,4.42,0,0,1-1.19,1.38,2,2,0,0,0,.37.41,2.4,2.4,0,0,0,.26.18,10.93,10.93,0,0,0,1.14-1.12V281a5,5,0,0,0,.56,0,5.61,5.61,0,0,0,3.44-1,4.3,4.3,0,0,0,1.17-1.3v-3.21m-12.43-5.48-.18,0h.16l0,0m9.5-2.41a4.88,4.88,0,0,0-2.32.48v1.28l-.23,0a4.21,4.21,0,0,1,.23,1.51v1l-2.62.12a30.61,30.61,0,0,0-3.85.39,12.3,12.3,0,0,0-3.43,1.06,6.45,6.45,0,0,0-2.46,2.07,5,5,0,0,0-.84,2.17,5.36,5.36,0,0,0,.45,1.5,5.14,5.14,0,0,0,1.47,1.89,5.85,5.85,0,0,0,2.15,1.1,9.23,9.23,0,0,0,2.6.35h0a5.73,5.73,0,0,1-.46-.8,5.46,5.46,0,0,1-.48-1.69,2,2,0,0,1-.39-1.27,3.57,3.57,0,0,1,.19-1.21l.09-.21a2.12,2.12,0,0,1-.28-1.12,3.57,3.57,0,0,1,.19-1.21,2,2,0,0,1,.77-1,5,5,0,0,1,1.62-.68,11.67,11.67,0,0,1,2-.31,12.85,12.85,0,0,1,2.55-.68,30.61,30.61,0,0,1,3.85-.39l2.07-.09v-.26a11.83,11.83,0,0,0-.44-3.33l0,0a4.25,4.25,0,0,0-2.45-.7m-5.6-4.07a15.1,15.1,0,0,0-3.6.39l.44.08-.33,2.42a3.46,3.46,0,0,1,3-1.36l.16-.1a9.21,9.21,0,0,1,3.14-1.18,14.32,14.32,0,0,0-2.83-.25"/><path class="cls-5" d="M117.2,280.67a10.2,10.2,0,0,1-1.58,1.11,7.67,7.67,0,0,1-3.85.86,5.21,5.21,0,0,0,1,1.09,5.7,5.7,0,0,0,1.9,1,5.49,5.49,0,0,0,1-.43,10.65,10.65,0,0,0,2.72-2.23v-1a2.84,2.84,0,0,1-1.14-.37m6.31-1.88h0v3.34h-5.17v2.54h2.34a5.6,5.6,0,0,0,.74-.35,10.49,10.49,0,0,0,2.09-1.57v-4M118.23,273l-2.43.11-.76.05c-.3.12-.59.24-.88.38a6.37,6.37,0,0,0-2.46,2.07A4.9,4.9,0,0,0,111,277a2.94,2.94,0,0,1,.37-.32A5.17,5.17,0,0,1,113,276a14.08,14.08,0,0,1,2.78-.35l2.22-.11a4.83,4.83,0,0,0,.21-1.49V273m-3.45-7.87h-.27a6,6,0,0,0-2.32,3.18,4.49,4.49,0,0,1,2.59-.64,4.25,4.25,0,0,1,2.45.7,2.43,2.43,0,0,1,.34.3,2.41,2.41,0,0,1,.69-.52,2.77,2.77,0,0,0-1-2.32,4.25,4.25,0,0,0-2.45-.7"/><path class="cls-4" d="M116.57,280.08h0a5.59,5.59,0,0,1-3.44,1,3,3,0,0,1-2-.58,2.45,2.45,0,0,1-.31-.34,5.46,5.46,0,0,0,.48,1.69,5.73,5.73,0,0,0,.46.8,7.67,7.67,0,0,0,3.85-.86,10.2,10.2,0,0,0,1.58-1.11,2.4,2.4,0,0,1-.26-.18,2,2,0,0,1-.37-.41m6.94-1.29a4.3,4.3,0,0,1-1.17,1.3,5.61,5.61,0,0,1-3.44,1,5,5,0,0,1-.56,0v1h0v0h5.17v-3.34m0-6.77-2.07.09a30.61,30.61,0,0,0-3.85.39,12.85,12.85,0,0,0-2.55.68l.76-.05,2.43-.11v1.05a4.83,4.83,0,0,1-.21,1.49h.21v.65l.59-.18a14,14,0,0,1,2.78-.35l1.91-.09V272m-5.7-8.15a9.21,9.21,0,0,0-3.14,1.18l-.16.1h.27a4.25,4.25,0,0,1,2.45.7,2.77,2.77,0,0,1,1,2.32,4.88,4.88,0,0,1,2.32-.48,4.25,4.25,0,0,1,2.45.7l0,0v-.06a6.29,6.29,0,0,0-1.45-2.56,6.44,6.44,0,0,0-2.64-1.62,9.31,9.31,0,0,0-1.16-.32"/><path class="cls-5" d="M111.49,266.51a3.28,3.28,0,0,0-.43,1.1l-4.2-.39a8,8,0,0,0-.77,2.27,3.51,3.51,0,0,1,1-.45,6.93,6.93,0,0,1,1.72-.22,9.53,9.53,0,0,1,2.31.24l.34-2.55"/><path class="cls-4" d="M111.38,264a8.77,8.77,0,0,0-2.51,1,5.68,5.68,0,0,0-2,2.17l4.2.39a3.28,3.28,0,0,1,.43-1.1l.33-2.42-.44-.08"/><path d="M77,282l.47,2.4-.48.14a12.87,12.87,0,0,0,4.5.72,15.53,15.53,0,0,0,2.94-.26,8.67,8.67,0,0,1-4.61-2.36A11.43,11.43,0,0,1,77,282m13.69-3.75h-.73a7,7,0,0,1-2,2.69l0,0a3.63,3.63,0,0,0,2.37-1,10.07,10.07,0,0,0,.43-1.76M72,277v1a2.78,2.78,0,0,0,.66,2.17,2.57,2.57,0,0,0,1.72.57h.16a7.67,7.67,0,0,1-.77-.74A8.82,8.82,0,0,1,72,277m5-3.72h-.36a7.76,7.76,0,0,0,.34,2.16c0-.3,0-.6,0-.91s0-.85,0-1.25M85.4,268l-.19.08a4.52,4.52,0,0,0-.94.54,2.47,2.47,0,0,1,.28.28,3.82,3.82,0,0,1,.51.75h.53A6.45,6.45,0,0,0,85.4,268m-4.08-2.81a4.86,4.86,0,0,0-1.91.35,4.21,4.21,0,0,0-1.39,1,4.36,4.36,0,0,0-.88,1.41,5.39,5.39,0,0,0-.36,1.74h.76A4,4,0,0,1,78,269l.21-.21a9.2,9.2,0,0,1,1.63-2.35,8.36,8.36,0,0,1,1.56-1.29h-.1"/><path class="cls-4" d="M89.91,278.29H85.32a3.32,3.32,0,0,1-1,1.87,4.73,4.73,0,0,0,3,.87,5.15,5.15,0,0,0,.56,0l0,0a7,7,0,0,0,2-2.69m-2.79-10.56a5.09,5.09,0,0,0-1.72.27,6.45,6.45,0,0,1,.19,1.65h-.53a5.55,5.55,0,0,1,.53,2.54h5.22a11.42,11.42,0,0,0-.92-3.71,4.58,4.58,0,0,0-2.77-.75m-5.68-4.11a11.55,11.55,0,0,0-4.15.72l-.58.25v3.92H72.59a11.35,11.35,0,0,0-.57,1.27V277a8.82,8.82,0,0,0,1.77,3,7.67,7.67,0,0,0,.77.74,7.73,7.73,0,0,0,1-.06,7.13,7.13,0,0,0,1.12-.21L77,282a11.43,11.43,0,0,0,2.82.64l-.18-.2a8.84,8.84,0,0,1-1.8-3.05,6.22,6.22,0,0,1-1.08-3.64h.36c0-.12,0-.25,0-.38a7.76,7.76,0,0,1-.34-2.16h.36c0-.36.07-.72.12-1.06h-.41a5.39,5.39,0,0,1,.36-1.74,4.27,4.27,0,0,1,.4-.8h-.76a5.39,5.39,0,0,1,.36-1.74A4.36,4.36,0,0,1,78,266.5a4.21,4.21,0,0,1,1.39-1,4.86,4.86,0,0,1,1.91-.35h.1a9.71,9.71,0,0,1,1.67-.85,11.06,11.06,0,0,1,1.31-.4,13,13,0,0,0-3-.32"/><path class="cls-5" d="M71.27,273.27c0,.4,0,.81,0,1.23q0,5.16,2.56,8a8,8,0,0,0,3.15,2.1l.48-.14L77,282a8.12,8.12,0,0,1-2.39-1.36H74.4a2.57,2.57,0,0,1-1.72-.57,2.78,2.78,0,0,1-.66-2.17v-1a13.55,13.55,0,0,1-.75-3.7"/><path class="cls-4" d="M76.64,280.41a7.13,7.13,0,0,1-1.12.21,7.73,7.73,0,0,1-1,.06A8.12,8.12,0,0,0,77,282l-.31-1.63M72,269.78l0,.12a12.51,12.51,0,0,0-.7,3.37A13.55,13.55,0,0,0,72,277v-7.19m4.69-5.19a8.74,8.74,0,0,0-2.64,1.89,8.9,8.9,0,0,0-1.48,2h4.12v-3.92"/><path class="cls-5" d="M90.21,280.05a3.63,3.63,0,0,1-2.37,1c-1.47,1.17-3.61,1.75-6.4,1.75-.58,0-1.13,0-1.67-.08A8.67,8.67,0,0,0,84.38,285a8,8,0,0,0,3.5-1.52,7.26,7.26,0,0,0,2.33-3.47m.66-6.8H77.07c0,.4,0,.82,0,1.25s0,.61,0,.91c0,.13.08.26.13.38h8.13v0h5.32v0h.24v-2.54m-9.45-8.06a8.36,8.36,0,0,0-1.56,1.29,9.2,9.2,0,0,0-1.63,2.35,4,4,0,0,1,1.18-.75,4.86,4.86,0,0,1,1.91-.35,4.41,4.41,0,0,1,3,.89,4.52,4.52,0,0,1,.94-.54l.19-.08a4,4,0,0,0-.85-1.64,4.05,4.05,0,0,0-3.13-1.17"/><path class="cls-4" d="M77.79,279.43a8.84,8.84,0,0,0,1.8,3.05l.18.2c.54.05,1.09.08,1.67.08,2.79,0,4.93-.58,6.4-1.75a5.15,5.15,0,0,1-.56,0,4.73,4.73,0,0,1-3-.87,4.14,4.14,0,0,1-2.82.87A4.34,4.34,0,0,1,78,279.64l-.17-.21m12.85-3.68H85.32v0h5.32v0m-13.59-.34c0,.13,0,.26,0,.38h.11c-.05-.12-.09-.25-.13-.38m13.76-3.22H77.19c0,.34-.09.7-.12,1.06h13.8c0-.36,0-.72-.06-1.06m-6.41-8.25a11.06,11.06,0,0,0-1.31.4,9.71,9.71,0,0,0-1.67.85,4.05,4.05,0,0,1,3.13,1.17A4,4,0,0,1,85.4,268a5.09,5.09,0,0,1,1.72-.27,4.58,4.58,0,0,1,2.77.75,8.65,8.65,0,0,0-1.38-2.16,7.72,7.72,0,0,0-4.11-2.38"/><path d="M98.78,268.74a4.13,4.13,0,0,0-.32,1.58v11.81H95a6.88,6.88,0,0,1-1.3,1.39q-.33.25-.69.48v.67h5.47V272.85a4.12,4.12,0,0,1,.32-1.57v-2.54m5.33-2.41v.77q.24-.37.51-.72l-.51-.05m1.57-2.3-.19,1.43c.13-.11.26-.22.39-.31l.14-1.06-.34-.06"/><path class="cls-4" d="M98.31,264.24H93v.91a6.91,6.91,0,0,1,1.31,1.17,10.65,10.65,0,0,1,2.37,7.28v2.19H93v2.5h3.45A9.07,9.07,0,0,1,95,282.13h3.48V270.32a4.13,4.13,0,0,1,.32-1.58v-2.32c-.16.22-.32.44-.47.68v-2.54h0v-.32m5.52-.35a6.23,6.23,0,0,0-2.06.35h2.34v2.09l.51.05a6.94,6.94,0,0,1,.87-.92l.19-1.43-.56-.08a11.39,11.39,0,0,0-1.29-.06"/><path class="cls-5" d="M95,282.13H93V284q.36-.22.69-.48a6.88,6.88,0,0,0,1.3-1.39"/><path class="cls-4" d="M96.44,278.29H93v3.84h2a9.07,9.07,0,0,0,1.46-3.84M93,265.15v10.64h3.68V273.6a10.65,10.65,0,0,0-2.37-7.28A6.91,6.91,0,0,0,93,265.15"/><path class="cls-5" d="M105.88,265.15c-.13.09-.26.2-.39.31l-.14,1.06a6.77,6.77,0,0,0-.73-.14q-.27.35-.51.72v-.77c-.33,0-.69-.05-1.07-.05a6.93,6.93,0,0,0-1.72.22,3.61,3.61,0,0,0-1.49.8,3.94,3.94,0,0,0-1,1.41l0,0v2.54l0,0a3.94,3.94,0,0,1,1-1.41,3.61,3.61,0,0,1,1.49-.8,6.93,6.93,0,0,1,1.72-.22,9.41,9.41,0,0,1,2.31.24l.53-3.91"/><path class="cls-4" d="M105.49,265.46a6.94,6.94,0,0,0-.87.92,6.77,6.77,0,0,1,.73.14l.14-1.06m-1.38-1.22h-2.34a6,6,0,0,0-1,.46,6.59,6.59,0,0,0-2,1.72v2.32l0,0a3.94,3.94,0,0,1,1-1.41,3.61,3.61,0,0,1,1.49-.8,6.93,6.93,0,0,1,1.72-.22c.38,0,.74,0,1.07.05v-2.09"/><path d="M56.63,282.49a7.54,7.54,0,0,1-2.36,2l-.4.19h2.76v-2.18m-15.82-.81a6.32,6.32,0,0,1-.51.53,6.64,6.64,0,0,1-.82.64,5.21,5.21,0,0,0,.48.63q1.65,1.81,5.13,1.82a7.23,7.23,0,0,0,2.66-.5,5,5,0,0,1-2-1.32,4.83,4.83,0,0,1-.54-.72h-.13a7.54,7.54,0,0,1-4.28-1.08m10.5-2.36c-.22.31-.44.59-.67.86a2.51,2.51,0,0,0,.67.35v-1.21"/><path class="cls-4" d="M43.8,264.24H41.85v0a7,7,0,0,1-.71,3.1,5.74,5.74,0,0,1-2.66,2.46,10.23,10.23,0,0,1,2.06,1.39,6,6,0,0,1,1.25,1.55,5.7,5.7,0,0,1,.62,1.68,8.38,8.38,0,0,1,.18,1.72,10.42,10.42,0,0,1-.53,3.33,6.28,6.28,0,0,1-1.25,2.17,7.54,7.54,0,0,0,4.28,1.08h.13a8.07,8.07,0,0,1-1-3.34,5.75,5.75,0,0,1-.4-2.42v-2.54h0V264.24m12.83,0H51.15v12.29a3.75,3.75,0,0,1-.37,1.67,4,4,0,0,1-.82,1.14,2,2,0,0,0,.42.62,2.75,2.75,0,0,0,.26.22c.23-.27.45-.55.67-.86v1.21a3.55,3.55,0,0,0,1.22.19,4.2,4.2,0,0,0,1.74-.31,5,5,0,0,0,1.31-.9,4.27,4.27,0,0,0,1-1.31l.05-.11V264.24"/><path class="cls-5" d="M38.32,275.21v2.54a9.46,9.46,0,0,0,1.16,5.1,6.64,6.64,0,0,0,.82-.64,6.32,6.32,0,0,0,.51-.53,4.61,4.61,0,0,1-.85-.74q-1.64-1.81-1.64-5.73"/><path class="cls-4" d="M41.85,264.24H38.32v11q0,3.92,1.64,5.73a4.61,4.61,0,0,0,.85.74,6.28,6.28,0,0,0,1.25-2.17,10.42,10.42,0,0,0,.53-3.33,8.38,8.38,0,0,0-.18-1.72,5.7,5.7,0,0,0-.62-1.68,6,6,0,0,0-1.25-1.55,10.23,10.23,0,0,0-2.06-1.39,5.74,5.74,0,0,0,2.66-2.46,7,7,0,0,0,.71-3.1v0"/><path class="cls-5" d="M50.64,280.18a7.26,7.26,0,0,1-2.17,1.76,7.18,7.18,0,0,1-3.25.82,4.83,4.83,0,0,0,.54.72,5,5,0,0,0,2,1.32,5.83,5.83,0,0,0,.72-.32,8,8,0,0,0,2.84-2.62v-1.33a2.51,2.51,0,0,1-.67-.35m6-2.09h0v4H51.31v2.54h2.56l.4-.19a7.54,7.54,0,0,0,2.36-2v-4.4"/><path class="cls-4" d="M50,279.34a1.49,1.49,0,0,1-.18.17,4.8,4.8,0,0,1-1.31.9,4.14,4.14,0,0,1-1.74.31,2.94,2.94,0,0,1-2.15-.76,2.17,2.17,0,0,1-.38-.54,8.07,8.07,0,0,0,1,3.34,7.18,7.18,0,0,0,3.25-.82,7.26,7.26,0,0,0,2.17-1.76,2.75,2.75,0,0,1-.26-.22,2,2,0,0,1-.42-.62m6.67-1.25-.05.11a4.27,4.27,0,0,1-1,1.31,5,5,0,0,1-1.31.9,4.2,4.2,0,0,1-1.74.31,3.55,3.55,0,0,1-1.22-.19v1.33h0v.27h5.32v-4"/><g id="RBxo-emblem"><g id="Background_Box" data-name="Background Box"><rect class="cls-6" x="16.91" y="17.23" width="193.59" height="193.59"/><rect class="cls-7" width="193.59" height="193.59"/><rect class="cls-8" x="8.78" y="8.14" width="193.59" height="193.59"/></g><g id="RBXO"><path class="cls-9" d="M106.92,127H81.86L83.55,131h23.13l.59-3.33-.35-.74M60.64,88.63H51.5L45,127H30.87L30.16,131H52L58.4,92.7h3.93l-1.69-4.07M68,50H58.49l-4,22.46h7.64L65.4,54.1h9.54a32.42,32.42,0,0,1,7.14.71,7.21,7.21,0,0,0-2.88-2.64Q75,50,68,50m29.8-11.1Q106,45.54,106,57T99.64,75.92q-6.31,7.33-17.08,10l17.8,37.7,1.36-7.69L89.46,90q10.76-2.69,17.09-10a25.24,25.24,0,0,0,2-2.64l3.83-21.68a21.15,21.15,0,0,0-8.31-13.2,28.07,28.07,0,0,0-6.22-3.53"/><path class="cls-9" d="M142.67,86.21H128.15l-3.89,22.73h7.6l3.2-18.67h14.52a24.07,24.07,0,0,1,5,.48,8.94,8.94,0,0,0-2-2q-3.5-2.55-10-2.55m29.33-4c.53.47,1,1,1.54,1.51q4.91,5.32,4.91,13.79a26,26,0,0,1-3,12.78,26.58,26.58,0,0,1-8.4,9.21,39.41,39.41,0,0,1-12.91,5.58A67.33,67.33,0,0,1,137.7,127H107.4l-.13.74-.59,3.33h33.68a30.23,30.23,0,0,1,7.47-.88,33.24,33.24,0,0,1,5.28.41,59,59,0,0,0,7.91-1.42,39.36,39.36,0,0,0,12.9-5.58,26.53,26.53,0,0,0,8.41-9.21,26.11,26.11,0,0,0,3-12.78q0-8.46-4.91-13.78A20.71,20.71,0,0,0,172,82.21M146.84,49.76H134.61l-3.5,20.31h7.6l2.81-16.24h12.23a23.87,23.87,0,0,1,4.88.46A6.69,6.69,0,0,0,156,51.77a18.75,18.75,0,0,0-9.15-2m28.43-11.51a20.36,20.36,0,0,1,3.92,4.59,18,18,0,0,1,2.49,9.75q0,9.69-5.66,15.87a28.88,28.88,0,0,1-14.65,8.47v.27a21.14,21.14,0,0,1,8.51,3.35,28.4,28.4,0,0,0,13.05-8q5.67-6.18,5.66-15.87a17.88,17.88,0,0,0-2.5-9.74,20.1,20.1,0,0,0-6.45-6.46,26.67,26.67,0,0,0-4.37-2.2"/><path class="cls-9" d="M97.35,162.84,85,176.74H78.3l-3.92,4.06H91.91l9.27-10.43-3.83-7.53m3.73-27.26H96.23l4.2,8.28,3.07-3.5-2.42-4.78m29.83,0h-6.57l-16.91,17.73,13.08,23.43H109.26l2.07,4.06h16.08l-13.08-23.43,6.94-7.27a28.1,28.1,0,0,1,.87-2.69,26.35,26.35,0,0,1,5.49-8.91,26,26,0,0,1,3.28-2.92"/><path class="cls-9" d="M147.2,142.05a11.6,11.6,0,0,0-5.27,1.18,12,12,0,0,0-4,3.18A14.83,14.83,0,0,0,135.4,151a16.72,16.72,0,0,0-.91,5.54,9.59,9.59,0,0,0,2.45,6.76,8.51,8.51,0,0,0,5.83,2.64,10.08,10.08,0,0,1-1.37-5.34,16.81,16.81,0,0,1,.91-5.54,14.74,14.74,0,0,1,2.54-4.63,12.16,12.16,0,0,1,4-3.18,11.72,11.72,0,0,1,5.27-1.17,11.47,11.47,0,0,1,1.19,0,8.89,8.89,0,0,0-1.06-1.4,9.06,9.06,0,0,0-7-2.72M165,135.9A18.39,18.39,0,0,1,171.09,150a30.37,30.37,0,0,1-1.91,10.81,26.06,26.06,0,0,1-5.54,8.9,26.61,26.61,0,0,1-8.76,6A29.14,29.14,0,0,1,143.2,178a29.84,29.84,0,0,1-9.12-1.36l-.79-.27.44.38a20.88,20.88,0,0,0,7.25,4,29.64,29.64,0,0,0,9.13,1.36,29.17,29.17,0,0,0,11.68-2.22,26.42,26.42,0,0,0,8.75-6,26,26,0,0,0,5.54-8.9A30.33,30.33,0,0,0,178,154.1a18.47,18.47,0,0,0-6.63-14.57A21.12,21.12,0,0,0,165,135.9"/><path class="cls-6" d="M67.54,92.7H62.33L76.65,127h5.21L67.54,92.7M82.08,54.81a10.21,10.21,0,0,1,1.29,5.38c0,4.28-1.67,7.4-5,9.37s-8,2.94-14,2.94H62.09l-.73,4.06h10q9,0,14-2.94t5-9.36q0-5.88-4.17-8a17.4,17.4,0,0,0-4-1.43M72.61,31.74H40.06L23.25,127h7.62L47,35.81H79.52q10.77,0,18.31,3.13l-.68-.54q-8.81-6.64-24.54-6.66"/><path class="cls-10" d="M54.45,72.5l4-22.46H68q7,0,11.17,2.13a7.21,7.21,0,0,1,2.88,2.64,17.4,17.4,0,0,1,4,1.43q4.17,2.13,4.17,8,0,6.42-5,9.36t-14,2.94h-10l.73-4.06H54.45M79.52,35.81H47L30.87,127H45L51.5,88.63h9.14l1.69,4.07h5.21L81.86,127H99.77l.59-3.32-17.8-37.7q10.75-2.68,17.08-10T106,57q0-11.51-8.13-18.09-7.53-3.13-18.31-3.13"/><path class="cls-6" d="M154.61,90.75a8.68,8.68,0,0,1,1.52,5.15,11.74,11.74,0,0,1-1.55,6.18,11.38,11.38,0,0,1-4.17,4,20.46,20.46,0,0,1-6,2.15,36.26,36.26,0,0,1-7.13.67h-5.44l-.7,4.07h13.05a36.15,36.15,0,0,0,7.12-.68,20.14,20.14,0,0,0,6-2.15,11.3,11.3,0,0,0,4.17-4A11.71,11.71,0,0,0,163,100a8.34,8.34,0,0,0-3.5-7.13,12.69,12.69,0,0,0-4.92-2.08m15.27-10.2c-.53.16-1.06.31-1.6.45v.27a22.51,22.51,0,0,1,3.72.94,22.08,22.08,0,0,0-2.12-1.66M158.63,54.29a8.21,8.21,0,0,1,1,4.16,10.34,10.34,0,0,1-1.42,5.61,11,11,0,0,1-3.55,3.61,14.37,14.37,0,0,1-4.78,1.87,24.9,24.9,0,0,1-5,.53h-6.12l-.7,4.07h13.73a25.54,25.54,0,0,0,5-.53,14.44,14.44,0,0,0,4.79-1.88,11,11,0,0,0,3.55-3.6,10.49,10.49,0,0,0,1.41-5.62c0-3.11-1.2-5.34-3.62-6.67a15.32,15.32,0,0,0-4.27-1.55m-4.79-22.55H116.58l-4.22,23.93a27.72,27.72,0,0,1,.5,5.42q0,9.59-4.33,16.26L101.72,116l5.2,11h.48l16.09-91.15h37.25a46.71,46.71,0,0,1,9.95,1.08,29.71,29.71,0,0,1,4.58,1.36,21.59,21.59,0,0,0-2.54-1.87,28,28,0,0,0-8.94-3.56,47.51,47.51,0,0,0-9.95-1.08"/><path class="cls-10" d="M101.72,116l-1.36,7.69L99.77,127h7.15l-5.2-11m10.64-60.28-3.83,21.68q4.34-6.67,4.33-16.26a27.72,27.72,0,0,0-.5-5.42"/><path class="cls-10" d="M124.26,108.94l3.89-22.73h14.52q6.47,0,10,2.55a8.94,8.94,0,0,1,2,2,12.69,12.69,0,0,1,4.92,2.08A8.34,8.34,0,0,1,163,100a11.71,11.71,0,0,1-1.54,6.18,11.3,11.3,0,0,1-4.17,4,20.14,20.14,0,0,1-6,2.15,36.15,36.15,0,0,1-7.12.68H131.16l.7-4.07h-7.6m6.85-38.87,3.5-20.31h12.23a18.75,18.75,0,0,1,9.15,2,6.69,6.69,0,0,1,2.64,2.52,15.32,15.32,0,0,1,4.27,1.55c2.42,1.33,3.62,3.56,3.62,6.67a10.49,10.49,0,0,1-1.41,5.62,11,11,0,0,1-3.55,3.6,14.44,14.44,0,0,1-4.79,1.88,25.54,25.54,0,0,1-5,.53H138l.7-4.07h-7.6m29.63-34.26H123.49L107.4,127h30.3a67.33,67.33,0,0,0,16.41-1.88A39.41,39.41,0,0,0,167,119.5a26.58,26.58,0,0,0,8.4-9.21,26,26,0,0,0,3-12.78q0-8.48-4.91-13.79c-.5-.53-1-1-1.54-1.51a22.51,22.51,0,0,0-3.72-.94V81c.54-.14,1.07-.29,1.6-.45a21.14,21.14,0,0,0-8.51-3.35v-.27A28.88,28.88,0,0,0,176,68.46q5.67-6.18,5.66-15.87a18,18,0,0,0-2.49-9.75,20.36,20.36,0,0,0-3.92-4.59,29.71,29.71,0,0,0-4.58-1.36,46.71,46.71,0,0,0-9.95-1.08"/><path class="cls-6" d="M104.25,166.91l-3.07,3.46,3.25,6.37h4.83l-5-9.83m-10.08-35.4H78.28L90.35,153l-22.88,23.7H78.3l19-19.64L85.19,135.58h11l-2.06-4.07m34.05,0h-17l-7.75,8.85,3.84,7.57,10.81-12.35h6.19l3.88-4.07"/><polyline class="cls-10" points="124.34 135.58 118.15 135.58 107.34 147.93 103.5 140.36 100.43 143.86 96.23 135.58 85.19 135.58 97.26 157.1 78.3 176.74 85 176.74 97.35 162.84 101.18 170.37 104.25 166.91 109.26 176.74 120.51 176.74 107.43 153.31 124.34 135.58"/><path class="cls-6" d="M155.3,146.17a10,10,0,0,1,1.44,5.41,16.72,16.72,0,0,1-.91,5.54,14.49,14.49,0,0,1-2.59,4.64,11.82,11.82,0,0,1-9.3,4.26c-.4,0-.79,0-1.17,0a9.76,9.76,0,0,0,1.08,1.43,9,9,0,0,0,7,2.68,11.87,11.87,0,0,0,9.31-4.27,14.74,14.74,0,0,0,2.59-4.63,17,17,0,0,0,.91-5.54,9.62,9.62,0,0,0-2.51-6.81,8.51,8.51,0,0,0-5.84-2.67m-2.19-15.61a75.18,75.18,0,0,1-8.51.47h-4.24a24.15,24.15,0,0,0-4.05,1.39,27.62,27.62,0,0,0-5.4,3.16h4.22L121.27,150.1a30.84,30.84,0,0,0-1,8,18.56,18.56,0,0,0,6.59,14.58,20.59,20.59,0,0,0,6.47,3.68,18.58,18.58,0,0,1-6.15-14.19,30.29,30.29,0,0,1,1.9-10.72,26.33,26.33,0,0,1,5.5-8.9,26.74,26.74,0,0,1,8.68-6.09,28,28,0,0,1,11.52-2.27,30.28,30.28,0,0,1,9.27,1.37l1,.32-.5-.44a21.58,21.58,0,0,0-7.36-4,28.32,28.32,0,0,0-4-.95"/><path class="cls-10" d="M147.83,130.15a30.23,30.23,0,0,0-7.47.88h4.24a75.18,75.18,0,0,0,8.51-.47,33.24,33.24,0,0,0-5.28-.41"/><path class="cls-10" d="M135.13,135.58h-4.22a26,26,0,0,0-3.28,2.92,26.35,26.35,0,0,0-5.49,8.91,28.1,28.1,0,0,0-.87,2.69l13.86-14.52"/><path class="cls-10" d="M142.77,166a8.51,8.51,0,0,1-5.83-2.64,9.59,9.59,0,0,1-2.45-6.76,16.72,16.72,0,0,1,.91-5.54,14.83,14.83,0,0,1,2.54-4.63,12,12,0,0,1,4-3.18,11.6,11.6,0,0,1,5.27-1.18,9.06,9.06,0,0,1,7,2.72,8.89,8.89,0,0,1,1.06,1.4,8.51,8.51,0,0,1,5.84,2.67,9.62,9.62,0,0,1,2.51,6.81,17,17,0,0,1-.91,5.54,14.74,14.74,0,0,1-2.59,4.63,11.87,11.87,0,0,1-9.31,4.27,9,9,0,0,1-7-2.68,9.76,9.76,0,0,1-1.08-1.43m12-31.77a28,28,0,0,0-11.52,2.27,26.74,26.74,0,0,0-8.68,6.09,26.33,26.33,0,0,0-5.5,8.9,30.29,30.29,0,0,0-1.9,10.72,18.58,18.58,0,0,0,6.15,14.19l.79.27A29.84,29.84,0,0,0,143.2,178a29.14,29.14,0,0,0,11.68-2.22,26.61,26.61,0,0,0,8.76-6,26.06,26.06,0,0,0,5.54-8.9A30.37,30.37,0,0,0,171.09,150,18.39,18.39,0,0,0,165,135.9l-1-.32a30.28,30.28,0,0,0-9.27-1.37"/></g></g></g></g></g></svg>