<svg xmlns="http://www.w3.org/2000/svg" viewBox="0 0 210.51 317.19"><defs><style>.cls-1{isolation:isolate;}.cls-2,.cls-6{opacity:0.4;}.cls-2,.cls-6,.cls-7{mix-blend-mode:multiply;font-size:39.13px;font-family:AktivGrotesk-Bold, Aktiv Grotesk;font-weight:700;letter-spacing:-0.05em;}.cls-2,.cls-8{fill:#e72260;}.cls-3{letter-spacing:-0.06em;}.cls-4{letter-spacing:-0.08em;}.cls-5{letter-spacing:-0.05em;}.cls-6,.cls-9{fill:#93d3e4;}.cls-10{fill:#161616;}.cls-11{mix-blend-mode:lighten;}</style></defs><title>TikTokStyle</title><g class="cls-1"><g id="Layer_2" data-name="Layer 2"><g id="Layer_1-2" data-name="Layer 1"><text class="cls-2" transform="translate(12.76 249.52)">Raimondo<tspan x="0" y="32.61">Bu</tspan><tspan class="cls-3" x="44.3" y="32.61">t</tspan><tspan x="56.74" y="32.61">e</tspan><tspan class="cls-4" x="77.79" y="32.61">r</tspan><tspan class="cls-5" x="91.02" y="32.61">a</tspan></text><text class="cls-6" transform="translate(18.56 252.06)">Raimondo<tspan x="0" y="32.61">Bu</tspan><tspan class="cls-3" x="44.3" y="32.61">t</tspan><tspan x="56.74" y="32.61">e</tspan><tspan class="cls-4" x="77.79" y="32.61">r</tspan><tspan class="cls-5" x="91.02" y="32.61">a</tspan></text><text class="cls-7" transform="translate(12.76 252.06)">Raimondo<tspan x="0" y="32.61">Bu</tspan><tspan class="cls-3" x="44.3" y="32.61">t</tspan><tspan x="56.74" y="32.61">e</tspan><tspan class="cls-4" x="77.79" y="32.61">r</tspan><tspan class="cls-5" x="91.02" y="32.61">a</tspan></text><rect class="cls-8" x="16.91" y="17.23" width="193.59" height="193.59"/><rect class="cls-9" width="193.59" height="193.59"/><rect class="cls-10" x="8.78" y="8.14" width="193.59" height="193.59"/><g class="cls-11"><path class="cls-9" d="M108.84,131H83.55l-16-38.33H58.4L52,131H30.16L47,35.81H79.52q15.72,0,24.53,6.66t8.81,18.62q0,11.58-6.31,18.9T89.46,90ZM71.31,76.56q9,0,14-2.94t5-9.36q0-5.88-4.17-8T74.94,54.1H65.4l-4,22.46Z"/><path class="cls-9" d="M160.75,35.81a46.69,46.69,0,0,1,9.94,1.08,27.47,27.47,0,0,1,8.95,3.56,20.1,20.1,0,0,1,6.45,6.46,17.88,17.88,0,0,1,2.5,9.74q0,9.69-5.66,15.87A29,29,0,0,1,168.28,81v.27a20.78,20.78,0,0,1,12.17,6.52q4.91,5.31,4.91,13.78a26.11,26.11,0,0,1-3,12.78,26.53,26.53,0,0,1-8.41,9.21,39.36,39.36,0,0,1-12.9,5.58A67.4,67.4,0,0,1,144.6,131H106.68l16.81-95.22ZM135.06,90.27,131.16,113h13.05a36.15,36.15,0,0,0,7.12-.68,20.14,20.14,0,0,0,6-2.15,11.3,11.3,0,0,0,4.17-4A11.71,11.71,0,0,0,163,100a8.34,8.34,0,0,0-3.5-7.13q-3.5-2.55-9.95-2.56Zm6.46-36.44L138,74.14h13.73a25.54,25.54,0,0,0,5-.53,14.44,14.44,0,0,0,4.79-1.88,11,11,0,0,0,3.55-3.6,10.49,10.49,0,0,0,1.41-5.62c0-3.11-1.2-5.34-3.62-6.67a18.75,18.75,0,0,0-9.15-2Z"/><path class="cls-9" d="M111.33,180.8l-7.08-13.89L91.91,180.8H74.38l22.88-23.7L85.19,135.58h15.89l6.26,12.35,10.81-12.35h17l-20.8,21.79,13.08,23.43Z"/><path class="cls-9" d="M150.11,182.07a29.64,29.64,0,0,1-9.13-1.36,20.88,20.88,0,0,1-7.25-4,18.62,18.62,0,0,1-4.82-6.27,18.9,18.9,0,0,1-1.77-8.3,30.29,30.29,0,0,1,1.9-10.72,26.33,26.33,0,0,1,5.5-8.9,26.74,26.74,0,0,1,8.68-6.09,28,28,0,0,1,11.52-2.27,30.28,30.28,0,0,1,9.27,1.37,21.24,21.24,0,0,1,7.36,3.95A18.47,18.47,0,0,1,178,154.1a30.33,30.33,0,0,1-1.92,10.81,25.87,25.87,0,0,1-5.54,8.9,26.42,26.42,0,0,1-8.75,6A29.17,29.17,0,0,1,150.11,182.07Zm13.54-26.42a9.66,9.66,0,0,0-2.51-6.82,9.05,9.05,0,0,0-7-2.71,11.72,11.72,0,0,0-5.27,1.17,12.16,12.16,0,0,0-4,3.18,14.74,14.74,0,0,0-2.54,4.63,16.55,16.55,0,0,0-.91,5.54,9.62,9.62,0,0,0,2.45,6.77,9,9,0,0,0,7,2.68,11.87,11.87,0,0,0,9.31-4.27,14.74,14.74,0,0,0,2.59-4.63A17,17,0,0,0,163.65,155.65Z"/></g><g class="cls-11"><path class="cls-8" d="M101.93,127H76.65l-16-38.33H51.5L45,127H23.25L40.06,31.74H72.61q15.72,0,24.54,6.66T106,57q0,11.56-6.32,18.89t-17.08,10ZM64.4,72.5q9,0,14-2.94c3.31-2,5-5.09,5-9.37q0-5.86-4.17-8T68,50H58.49l-4,22.46Z"/><path class="cls-8" d="M153.84,31.74a47.51,47.51,0,0,1,9.95,1.08,28,28,0,0,1,8.94,3.56,20.23,20.23,0,0,1,6.46,6.46,18,18,0,0,1,2.49,9.75q0,9.69-5.66,15.87a28.88,28.88,0,0,1-14.65,8.47v.27a20.77,20.77,0,0,1,12.17,6.52q4.91,5.32,4.91,13.79a26,26,0,0,1-3,12.78,26.58,26.58,0,0,1-8.4,9.21,39.62,39.62,0,0,1-12.91,5.58A67.33,67.33,0,0,1,137.7,127H99.77l16.81-95.22ZM128.15,86.21l-3.89,22.73h13a36.26,36.26,0,0,0,7.13-.67,20.46,20.46,0,0,0,6-2.15,11.38,11.38,0,0,0,4.17-4,11.74,11.74,0,0,0,1.55-6.18,8.37,8.37,0,0,0-3.51-7.14q-3.5-2.55-10-2.55Zm6.46-36.45-3.5,20.31h13.72a24.9,24.9,0,0,0,5-.53,14.37,14.37,0,0,0,4.78-1.87,11.07,11.07,0,0,0,3.56-3.61,10.43,10.43,0,0,0,1.41-5.61q0-4.66-3.63-6.68a18.75,18.75,0,0,0-9.15-2Z"/><path class="cls-8" d="M104.43,176.74l-7.08-13.89L85,176.74H67.47L90.35,153,78.28,131.51H94.17l6.26,12.35,10.82-12.35h17l-20.79,21.8,13.08,23.43Z"/><path class="cls-8" d="M143.2,178a29.84,29.84,0,0,1-9.12-1.36,21,21,0,0,1-7.26-4,18.56,18.56,0,0,1-6.59-14.58,30.28,30.28,0,0,1,1.91-10.71,26.45,26.45,0,0,1,5.49-8.91,27.09,27.09,0,0,1,8.68-6.08,28,28,0,0,1,11.52-2.27,30.23,30.23,0,0,1,9.27,1.36,21.58,21.58,0,0,1,7.36,4,18.67,18.67,0,0,1,4.86,6.27,18.91,18.91,0,0,1,1.77,8.31,30.37,30.37,0,0,1-1.91,10.81,26.06,26.06,0,0,1-5.54,8.9,26.61,26.61,0,0,1-8.76,6A29.14,29.14,0,0,1,143.2,178Zm13.54-26.43a9.69,9.69,0,0,0-2.5-6.81,9.06,9.06,0,0,0-7-2.72,11.6,11.6,0,0,0-5.27,1.18,12.16,12.16,0,0,0-4,3.18A14.83,14.83,0,0,0,135.4,151a16.72,16.72,0,0,0-.91,5.54,9.59,9.59,0,0,0,2.45,6.76c1.63,1.79,4,2.68,7,2.68a11.82,11.82,0,0,0,9.3-4.26,14.49,14.49,0,0,0,2.59-4.64A16.72,16.72,0,0,0,156.74,151.58Z"/></g></g></g></g></svg>